<svg xmlns="http://www.w3.org/2000/svg" xmlns:xlink="http://www.w3.org/1999/xlink" width="531.03" height="353.64" viewBox="0 0 531.03 353.64">
  <defs>
    <style>
      .a {
        fill: #358e43;
      }

      .b {
        fill: #e34d25;
      }

      .c {
        fill: #231f20;
      }

      .d {
        fill: url(#a);
      }

      .e {
        fill: url(#b);
      }

      .f {
        fill: #807e7e;
      }

      .g {
        fill: url(#c);
      }

      .h {
        fill: url(#d);
      }

      .i {
        fill: #3f393b;
      }
    </style>
    <linearGradient id="a" x1="356.29" y1="389.27" x2="475.43" y2="302.06" gradientUnits="userSpaceOnUse">
      <stop offset="0" stop-color="#f36d31"/>
      <stop offset="1" stop-color="#e24f26"/>
    </linearGradient>
    <linearGradient id="b" x1="422.48" y1="207.92" x2="355.52" y2="286.56" gradientUnits="userSpaceOnUse">
      <stop offset="0" stop-color="#2aaf4a"/>
      <stop offset="1" stop-color="#338e43"/>
    </linearGradient>
    <linearGradient id="c" x1="481.71" y1="387.85" x2="403.85" y2="506.21" gradientUnits="userSpaceOnUse">
      <stop offset="0" stop-color="#f36e26"/>
      <stop offset="1" stop-color="#f99d45"/>
    </linearGradient>
    <linearGradient id="d" x1="355.22" y1="521.86" x2="391.03" y2="496.94" xlink:href="#b"/>
  </defs>
  <title>Лого 5 лет НИИ</title>
  <g>
    <g>
      <polygon class="a" points="53.92 248.98 43.02 259.88 17.27 267.73 0 284.99 0 291 53.92 291 53.92 261.71 47.92 267.72 47.92 284.99 8.49 284.99 20.45 273.03 46.21 265.19 53.92 257.47 53.92 248.98"/>
      <path class="b" d="M147.73,450.11,122,458l-6.49,6.49V387.51a24.84,24.84,0,0,1,18.39,11.87l2.56,4.22,2.56-4.22a24.83,24.83,0,0,1,18.39-11.87v48.68l6-6V381.33h-3a30.77,30.77,0,0,0-24,11.31,30.77,30.77,0,0,0-24-11.31h-3v97.6l15.67-15.67,25.76-7.85,12.49-12.49v-8.49Z" transform="translate(-109.48 -198.18)"/>
      <polygon class="c" points="75.76 194.04 68.61 194.04 68.61 200.88 66.84 200.88 66.84 185.97 68.61 185.97 68.61 192.47 75.76 192.47 75.76 185.97 77.53 185.97 77.53 200.88 75.76 200.88 75.76 194.04"/>
      <polygon class="c" points="90.26 190.78 90.38 189.08 90.3 189.08 89.38 190.83 82.19 200.88 81.14 200.88 81.14 185.97 82.91 185.97 82.91 196.19 82.76 197.87 82.85 197.87 83.78 196.13 90.98 185.97 92.02 185.97 92.02 200.88 90.26 200.88 90.26 190.78"/>
      <polygon class="c" points="104.75 190.78 104.88 189.08 104.8 189.08 103.88 190.83 96.68 200.88 95.64 200.88 95.64 185.97 97.41 185.97 97.41 196.19 97.26 197.87 97.34 197.87 98.28 196.13 105.48 185.97 106.52 185.97 106.52 200.88 104.75 200.88 104.75 190.78"/>
      <path class="c" d="M175.7,413.57a9,9,0,0,1,1.58-5.72,5.39,5.39,0,0,1,4.49-2,6.22,6.22,0,0,1,2.72.55A5.12,5.12,0,0,1,186.4,408a6.83,6.83,0,0,1,1.12,2.43,12.76,12.76,0,0,1,.36,3.16,9,9,0,0,1-1.59,5.72,5.45,5.45,0,0,1-4.52,2,6.09,6.09,0,0,1-2.69-.55,5.13,5.13,0,0,1-1.89-1.56,6.84,6.84,0,0,1-1.12-2.43,12.75,12.75,0,0,1-.36-3.16m1.87,0a10.8,10.8,0,0,0,.24,2.34,6.36,6.36,0,0,0,.76,1.95,4,4,0,0,0,1.31,1.34,3.47,3.47,0,0,0,1.88.5,3.68,3.68,0,0,0,3.11-1.5,7.71,7.71,0,0,0,1.13-4.63,10.84,10.84,0,0,0-.25-2.33,6.19,6.19,0,0,0-.77-2,4.11,4.11,0,0,0-1.32-1.34,3.52,3.52,0,0,0-1.9-.5,3.62,3.62,0,0,0-3.08,1.5,7.76,7.76,0,0,0-1.12,4.63" transform="translate(-109.48 -198.18)"/>
      <path class="c" d="M190.88,406.26a10.72,10.72,0,0,1,1.75-.26q.94-.06,1.85-.06a10.72,10.72,0,0,1,2,.19,5.4,5.4,0,0,1,1.84.7,4,4,0,0,1,1.35,1.41,4.48,4.48,0,0,1,.52,2.28,4.91,4.91,0,0,1-.49,2.3,4.31,4.31,0,0,1-1.3,1.52,5.25,5.25,0,0,1-1.85.84,9,9,0,0,1-2.15.25h-.86l-.52,0-.36,0V421h-1.77Zm3.64,1.21-1.06,0a3.64,3.64,0,0,0-.81.11v6.17a1.12,1.12,0,0,0,.34.05l.49,0h.83a7.52,7.52,0,0,0,1.44-.14,3.72,3.72,0,0,0,1.29-.5,2.64,2.64,0,0,0,.93-1,3.56,3.56,0,0,0,.35-1.68,2.94,2.94,0,0,0-.33-1.46,2.64,2.64,0,0,0-.87-.94,3.67,3.67,0,0,0-1.22-.5,6.37,6.37,0,0,0-1.36-.15" transform="translate(-109.48 -198.18)"/>
      <polygon class="c" points="101.28 209.51 95.07 209.51 95.07 222.84 93.3 222.84 93.3 207.93 101.28 207.93 101.28 209.51"/>
      <path class="c" d="M217.82,416.89h-5.47L210.87,421h-1.77l5.64-15.14h.81L221.22,421h-1.87Zm-4.89-1.53h4.36l-1.65-4.53-.53-2.26h0l-.53,2.3Z" transform="translate(-109.48 -198.18)"/>
      <polygon class="c" points="122.63 216 115.48 216 115.48 222.84 113.71 222.84 113.71 207.93 115.48 207.93 115.48 214.43 122.63 214.43 122.63 207.93 124.4 207.93 124.4 222.84 122.63 222.84 122.63 216"/>
      <polygon class="c" points="137.13 212.75 137.26 211.04 137.17 211.04 136.26 212.79 129.06 222.84 128.02 222.84 128.02 207.93 129.79 207.93 129.79 218.15 129.64 219.83 129.72 219.83 130.66 218.09 137.85 207.93 138.9 207.93 138.9 222.84 137.13 222.84 137.13 212.75"/>
      <path class="c" d="M253.15,414v-1.49H254l.56,0,.55,0a2.22,2.22,0,0,0,.44-.05,4.53,4.53,0,0,0,1-.29,3,3,0,0,0,.85-.52,2.45,2.45,0,0,0,.57-.75,2.07,2.07,0,0,0,.21-.94,2.6,2.6,0,0,0-.23-1.17,2,2,0,0,0-.65-.76,2.64,2.64,0,0,0-1-.4,5.51,5.51,0,0,0-1.16-.12,10.32,10.32,0,0,0-2,.16,5.57,5.57,0,0,0-1.3.39l-.47-1.41a6.45,6.45,0,0,1,1.53-.48,11.63,11.63,0,0,1,2.49-.24,7.73,7.73,0,0,1,1.67.18,4.49,4.49,0,0,1,1.47.6,3.08,3.08,0,0,1,1,1.13,3.59,3.59,0,0,1,.39,1.76,3.4,3.4,0,0,1-.7,2,3.89,3.89,0,0,1-2.11,1.39V413a3.94,3.94,0,0,1,2.38,1.13,3.4,3.4,0,0,1,.87,2.45,4.34,4.34,0,0,1-.48,2.1,4.4,4.4,0,0,1-1.26,1.46A5.21,5.21,0,0,1,257,421a8.06,8.06,0,0,1-2.05.27,13.8,13.8,0,0,1-2.31-.16,7.91,7.91,0,0,1-1.5-.39l.45-1.58a6,6,0,0,0,1.37.39,11.9,11.9,0,0,0,2.14.16,4.75,4.75,0,0,0,1.3-.18,3.46,3.46,0,0,0,1.14-.55,2.9,2.9,0,0,0,.81-.93,2.68,2.68,0,0,0,.31-1.32,2.2,2.2,0,0,0-.94-2,5,5,0,0,0-2.45-.73l-.48,0h-1.63Z" transform="translate(-109.48 -198.18)"/>
      <path class="c" d="M270.59,416.89h-5.46L263.64,421h-1.77l5.64-15.14h.81L274,421h-1.87Zm-4.89-1.53h4.36l-1.65-4.53-.53-2.26h0l-.53,2.3Z" transform="translate(-109.48 -198.18)"/>
      <polygon class="c" points="178.71 225.58 177.49 225.58 177.17 222.84 166.49 222.84 166.49 207.93 168.25 207.93 168.25 221.26 174.96 221.26 174.96 207.93 176.73 207.93 176.73 221.26 178.71 221.26 178.71 225.58"/>
      <polygon class="c" points="190.22 212.75 190.35 211.04 190.26 211.04 189.35 212.79 182.15 222.84 181.11 222.84 181.11 207.93 182.88 207.93 182.88 218.15 182.73 219.83 182.81 219.83 183.75 218.09 190.95 207.93 191.99 207.93 191.99 222.84 190.22 222.84 190.22 212.75"/>
      <polygon class="c" points="204.72 212.75 204.85 211.04 204.76 211.04 203.85 212.79 196.65 222.84 195.61 222.84 195.61 207.93 197.38 207.93 197.38 218.15 197.23 219.83 197.31 219.83 198.25 218.09 205.44 207.93 206.49 207.93 206.49 222.84 204.72 222.84 204.72 212.75"/>
      <path class="c" d="M177.47,435.93v-1.49h.81l.56,0,.55,0a2.22,2.22,0,0,0,.44-.05,4.54,4.54,0,0,0,1-.29,3,3,0,0,0,.85-.52,2.44,2.44,0,0,0,.57-.75,2.06,2.06,0,0,0,.21-.94,2.61,2.61,0,0,0-.23-1.17,2,2,0,0,0-.65-.76,2.65,2.65,0,0,0-1-.4,5.5,5.5,0,0,0-1.16-.12,10.32,10.32,0,0,0-2,.16,5.58,5.58,0,0,0-1.3.39l-.47-1.41a6.43,6.43,0,0,1,1.53-.48,11.62,11.62,0,0,1,2.49-.24,7.75,7.75,0,0,1,1.67.18,4.5,4.5,0,0,1,1.47.6,3.08,3.08,0,0,1,1,1.13,3.6,3.6,0,0,1,.39,1.76,3.41,3.41,0,0,1-.7,2,3.9,3.9,0,0,1-2.11,1.39V435a3.94,3.94,0,0,1,2.39,1.13,3.4,3.4,0,0,1,.87,2.45,4.34,4.34,0,0,1-.48,2.1,4.4,4.4,0,0,1-1.26,1.46,5.21,5.21,0,0,1-1.79.84,8.07,8.07,0,0,1-2.05.27,13.75,13.75,0,0,1-2.31-.16,7.91,7.91,0,0,1-1.5-.39l.45-1.57a6.07,6.07,0,0,0,1.37.39,11.88,11.88,0,0,0,2.14.16,4.75,4.75,0,0,0,1.3-.18,3.47,3.47,0,0,0,1.14-.55,2.9,2.9,0,0,0,.81-.93,2.67,2.67,0,0,0,.31-1.32,2.2,2.2,0,0,0-.94-2,5,5,0,0,0-2.45-.73l-.48,0h-1.63Z" transform="translate(-109.48 -198.18)"/>
      <path class="c" d="M199.68,445.72h-1.21l-.32-2.75H187.69l-.32,2.75h-1.23V441.4h1.51a6.44,6.44,0,0,0,.52-1.1,15.8,15.8,0,0,0,.7-2.47q.35-1.61.63-4a51.2,51.2,0,0,0,.28-5.74h8V441.4h1.94ZM196,441.4V429.65h-4.53q-.06,2.34-.24,4.22t-.44,3.31a21.38,21.38,0,0,1-.57,2.48,12.3,12.3,0,0,1-.66,1.75Z" transform="translate(-109.48 -198.18)"/>
      <path class="c" d="M202.08,428.22a10.7,10.7,0,0,1,1.75-.26q.94-.06,1.85-.06a10.72,10.72,0,0,1,2,.19,5.4,5.4,0,0,1,1.84.7,4,4,0,0,1,1.35,1.41,4.47,4.47,0,0,1,.52,2.28,4.92,4.92,0,0,1-.49,2.3,4.31,4.31,0,0,1-1.3,1.52,5.25,5.25,0,0,1-1.85.84,9,9,0,0,1-2.15.26h-.86l-.52,0-.36,0V443h-1.77Zm3.64,1.21-1.06,0a3.64,3.64,0,0,0-.81.11v6.17a1.14,1.14,0,0,0,.34.05l.49,0h.83a7.51,7.51,0,0,0,1.44-.14,3.72,3.72,0,0,0,1.29-.5,2.64,2.64,0,0,0,.93-1,3.56,3.56,0,0,0,.35-1.68,2.94,2.94,0,0,0-.33-1.46,2.64,2.64,0,0,0-.87-.94,3.69,3.69,0,0,0-1.22-.5,6.37,6.37,0,0,0-1.36-.15" transform="translate(-109.48 -198.18)"/>
      <path class="c" d="M219.71,438.85h-5.46L212.77,443H211l5.64-15.14h.81L223.11,443h-1.87Zm-4.89-1.53h4.36l-1.65-4.53-.53-2.26h0l-.53,2.3Z" transform="translate(-109.48 -198.18)"/>
      <path class="c" d="M234.08,431.48a3.68,3.68,0,0,1-.17,1.09,3.63,3.63,0,0,1-.51,1,3.41,3.41,0,0,1-.87.84,4,4,0,0,1-1.26.55v.09a5.2,5.2,0,0,1,1.22.36,3.32,3.32,0,0,1,1,.7,3.45,3.45,0,0,1,.72,1.08,3.77,3.77,0,0,1,.28,1.51,4,4,0,0,1-.48,2,4.1,4.1,0,0,1-1.26,1.37,5.55,5.55,0,0,1-1.78.79,8.28,8.28,0,0,1-2,.25h-.85q-.49,0-1,0L226,443a6.16,6.16,0,0,1-.94-.16V428.2q.79-.13,1.83-.21t2.28-.09a10.64,10.64,0,0,1,1.69.14,4.7,4.7,0,0,1,1.56.53,3.3,3.3,0,0,1,1.16,1.1,3.26,3.26,0,0,1,.46,1.81M228,434.63l.87,0q.51,0,.85-.06a5.86,5.86,0,0,0,1-.42,3.88,3.88,0,0,0,.8-.58,2.44,2.44,0,0,0,.55-.77,2.22,2.22,0,0,0,.2-.95,2.28,2.28,0,0,0-.27-1.16,2.08,2.08,0,0,0-.71-.73,3.1,3.1,0,0,0-1-.39,5.89,5.89,0,0,0-1.17-.12q-.7,0-1.29,0a6.25,6.25,0,0,0-.88.1v5.07Zm1.17,7a5.43,5.43,0,0,0,1.32-.16,3.3,3.3,0,0,0,1.13-.51,2.65,2.65,0,0,0,.78-.86,2.43,2.43,0,0,0,.29-1.21,2.51,2.51,0,0,0-.35-1.4,2.47,2.47,0,0,0-.91-.83,4,4,0,0,0-1.27-.4,9.34,9.34,0,0,0-1.41-.11h-1.85v5.34a2.25,2.25,0,0,0,.43.06l.6,0,.66,0h.6" transform="translate(-109.48 -198.18)"/>
      <path class="c" d="M236.91,435.53a9,9,0,0,1,1.57-5.72,5.4,5.4,0,0,1,4.49-2,6.22,6.22,0,0,1,2.72.55,5.11,5.11,0,0,1,1.9,1.56,6.84,6.84,0,0,1,1.12,2.43,12.78,12.78,0,0,1,.36,3.16,9,9,0,0,1-1.59,5.72,5.45,5.45,0,0,1-4.52,2,6.09,6.09,0,0,1-2.69-.55,5.13,5.13,0,0,1-1.89-1.56,6.82,6.82,0,0,1-1.12-2.43,12.75,12.75,0,0,1-.36-3.16m1.87,0a10.85,10.85,0,0,0,.24,2.34,6.39,6.39,0,0,0,.76,1.95,4,4,0,0,0,1.31,1.34,3.47,3.47,0,0,0,1.88.5,3.67,3.67,0,0,0,3.11-1.5,7.71,7.71,0,0,0,1.13-4.63,10.91,10.91,0,0,0-.24-2.33,6.22,6.22,0,0,0-.77-2,4.12,4.12,0,0,0-1.32-1.34,3.51,3.51,0,0,0-1.9-.5,3.62,3.62,0,0,0-3.08,1.5,7.77,7.77,0,0,0-1.12,4.63" transform="translate(-109.48 -198.18)"/>
      <path class="c" d="M251.47,435.53a9,9,0,0,1,1.57-5.72,5.4,5.4,0,0,1,4.49-2,6.22,6.22,0,0,1,2.72.55,5.11,5.11,0,0,1,1.9,1.56,6.83,6.83,0,0,1,1.12,2.43,12.76,12.76,0,0,1,.36,3.16,9,9,0,0,1-1.58,5.72,5.45,5.45,0,0,1-4.52,2,6.09,6.09,0,0,1-2.69-.55,5.13,5.13,0,0,1-1.89-1.56,6.82,6.82,0,0,1-1.12-2.43,12.76,12.76,0,0,1-.36-3.16m1.87,0a10.82,10.82,0,0,0,.24,2.34,6.38,6.38,0,0,0,.76,1.95,4,4,0,0,0,1.31,1.34,3.47,3.47,0,0,0,1.88.5,3.67,3.67,0,0,0,3.11-1.5,7.71,7.71,0,0,0,1.13-4.63,10.91,10.91,0,0,0-.24-2.33,6.2,6.2,0,0,0-.77-2,4.11,4.11,0,0,0-1.32-1.34,3.51,3.51,0,0,0-1.9-.5,3.62,3.62,0,0,0-3.08,1.5,7.77,7.77,0,0,0-1.12,4.63" transform="translate(-109.48 -198.18)"/>
      <polygon class="c" points="160.29 237.22 155.76 229.89 157.89 229.89 160.91 234.94 161.44 236.15 161.95 234.94 165.15 229.89 167.1 229.89 162.42 237.07 167.32 244.8 165.25 244.8 161.89 239.45 161.31 238.18 160.76 239.45 157.31 244.8 155.33 244.8 160.29 237.22"/>
      <path class="c" d="M279.23,428.22A10.7,10.7,0,0,1,281,428q.94-.06,1.85-.06a10.71,10.71,0,0,1,2,.19,5.4,5.4,0,0,1,1.84.7A4,4,0,0,1,288,430.2a4.47,4.47,0,0,1,.52,2.28,4.92,4.92,0,0,1-.49,2.3,4.31,4.31,0,0,1-1.3,1.52,5.26,5.26,0,0,1-1.85.84,9,9,0,0,1-2.15.26h-.86l-.52,0-.36,0V443h-1.77Zm3.64,1.21-1.06,0a3.65,3.65,0,0,0-.81.11v6.17a1.15,1.15,0,0,0,.34.05l.49,0h.83a7.52,7.52,0,0,0,1.44-.14,3.73,3.73,0,0,0,1.29-.5,2.64,2.64,0,0,0,.93-1,3.56,3.56,0,0,0,.35-1.68,2.94,2.94,0,0,0-.33-1.46,2.64,2.64,0,0,0-.87-.94,3.69,3.69,0,0,0-1.22-.5,6.35,6.35,0,0,0-1.36-.15" transform="translate(-109.48 -198.18)"/>
      <path class="c" d="M296.86,438.85H291.4L289.91,443h-1.77l5.64-15.14h.81L300.26,443h-1.87ZM292,437.31h4.36l-1.65-4.53-.53-2.26h0l-.53,2.3Z" transform="translate(-109.48 -198.18)"/>
      <polygon class="c" points="201.68 237.96 194.52 237.96 194.52 244.8 192.76 244.8 192.76 229.9 194.52 229.9 194.52 236.39 201.68 236.39 201.68 229.9 203.44 229.9 203.44 244.8 201.68 244.8 201.68 237.96"/>
      <polygon class="c" points="207.06 229.9 215.17 229.9 215.17 231.47 208.83 231.47 208.83 236.34 214.64 236.34 214.64 237.92 208.83 237.92 208.83 243.22 215.28 243.22 215.28 244.8 207.06 244.8 207.06 229.9"/>
      <polygon class="c" points="227.39 237.96 220.24 237.96 220.24 244.8 218.47 244.8 218.47 229.9 220.24 229.9 220.24 236.39 227.39 236.39 227.39 229.9 229.16 229.9 229.16 244.8 227.39 244.8 227.39 237.96"/>
      <polygon class="c" points="241.89 234.71 242.02 233 241.93 233 241.01 234.75 233.82 244.8 232.78 244.8 232.78 229.89 234.54 229.89 234.54 240.11 234.4 241.79 234.48 241.79 235.42 240.05 242.61 229.89 243.66 229.89 243.66 244.8 241.89 244.8 241.89 234.71"/>
      <path class="c" d="M365.25,443h-1.77v-6.49l-2.19.47-3.7,6H355.5l3.32-5.3,1.3-.92a5.47,5.47,0,0,1-1.42-.52,4.07,4.07,0,0,1-1.13-.89,4,4,0,0,1-.75-1.27,5.45,5.45,0,0,1,.17-3.82,3.64,3.64,0,0,1,1.19-1.38,5,5,0,0,1,1.77-.75,9.87,9.87,0,0,1,2.14-.22q.72,0,1.54.06a10.07,10.07,0,0,1,1.61.26ZM362,429.44a6.35,6.35,0,0,0-1.34.14,3.21,3.21,0,0,0-1.14.48,2.44,2.44,0,0,0-.8.92,3.12,3.12,0,0,0-.3,1.45,3.06,3.06,0,0,0,.29,1.38,2.66,2.66,0,0,0,.78.95,3.2,3.2,0,0,0,1.14.54,5.48,5.48,0,0,0,1.39.17h1.45v-5.9a5.62,5.62,0,0,0-.62-.1c-.21,0-.5,0-.85,0" transform="translate(-109.48 -198.18)"/>
      <polygon class="c" points="75.95 256.43 76.08 254.73 75.99 254.73 75.08 256.47 67.88 266.52 66.84 266.52 66.84 251.62 68.61 251.62 68.61 261.84 68.46 263.52 68.54 263.52 69.48 261.78 76.67 251.62 77.72 251.62 77.72 266.52 75.95 266.52 75.95 256.43"/>
      <polygon class="c" points="98.47 256.52 98.69 254.28 98.58 254.28 97.77 256.33 93.9 263.05 93.36 263.05 89.25 256.3 88.49 254.28 88.38 254.28 88.68 256.5 88.68 266.52 87.02 266.52 87.02 251.62 88.34 251.62 93 259.24 93.7 260.9 93.75 260.9 94.41 259.2 98.86 251.62 100.24 251.62 100.24 266.52 98.47 266.52 98.47 256.52"/>
      <polygon class="c" points="103.86 251.62 111.97 251.62 111.97 253.2 105.63 253.2 105.63 258.07 111.44 258.07 111.44 259.65 105.63 259.65 105.63 264.95 112.08 264.95 112.08 266.52 103.86 266.52 103.86 251.62"/>
      <path class="c" d="M236.59,467.45h-1.21l-.32-2.75H224.6l-.32,2.75H223v-4.32h1.51a6.35,6.35,0,0,0,.52-1.1,15.93,15.93,0,0,0,.7-2.47q.35-1.61.63-4a51.31,51.31,0,0,0,.28-5.74h8v13.33h1.94Zm-3.7-4.32V451.38h-4.53q-.06,2.34-.25,4.22t-.44,3.31a21.49,21.49,0,0,1-.57,2.48,12.3,12.3,0,0,1-.66,1.75Z" transform="translate(-109.48 -198.18)"/>
      <polygon class="c" points="138.62 256.43 138.75 254.73 138.66 254.73 137.75 256.47 130.55 266.52 129.51 266.52 129.51 251.62 131.28 251.62 131.28 261.84 131.13 263.52 131.21 263.52 132.15 261.78 139.34 251.62 140.39 251.62 140.39 266.52 138.62 266.52 138.62 256.43"/>
      <polygon class="c" points="156.23 269.27 155.01 269.27 154.69 266.52 144.01 266.52 144.01 251.62 145.77 251.62 145.77 264.95 152.48 264.95 152.48 251.62 154.25 251.62 154.25 264.95 156.23 264.95 156.23 269.27"/>
      <polygon class="c" points="167.74 256.43 167.87 254.73 167.79 254.73 166.87 256.47 159.68 266.52 158.63 266.52 158.63 251.62 160.4 251.62 160.4 261.84 160.25 263.52 160.34 263.52 161.27 261.78 168.47 251.62 169.51 251.62 169.51 266.52 167.74 266.52 167.74 256.43"/>
      <polygon class="c" points="182.05 259.69 174.9 259.69 174.9 266.52 173.13 266.52 173.13 251.62 174.9 251.62 174.9 258.11 182.05 258.11 182.05 251.62 183.81 251.62 183.81 266.52 182.05 266.52 182.05 259.69"/>
      <path class="c" d="M306.45,464.09a3.83,3.83,0,0,1-1.62.68,10.87,10.87,0,0,1-2.09.19,6.84,6.84,0,0,1-2.51-.46,5.51,5.51,0,0,1-2-1.39,6.72,6.72,0,0,1-1.38-2.39,10.49,10.49,0,0,1-.51-3.46,9.85,9.85,0,0,1,.56-3.54,6.74,6.74,0,0,1,1.49-2.38,5.74,5.74,0,0,1,2.08-1.35,6.71,6.71,0,0,1,2.34-.43,12.85,12.85,0,0,1,2.09.14,6.69,6.69,0,0,1,1.38.37l-.43,1.57a6.68,6.68,0,0,0-2.92-.51,4.87,4.87,0,0,0-1.72.32,4,4,0,0,0-1.52,1,5.29,5.29,0,0,0-1.08,1.89,8.89,8.89,0,0,0-.4,2.87,8.51,8.51,0,0,0,.38,2.68,5.5,5.5,0,0,0,1.05,1.92,4.3,4.3,0,0,0,1.57,1.15,5,5,0,0,0,2,.38,6.49,6.49,0,0,0,1.67-.19,4.62,4.62,0,0,0,1.2-.49Z" transform="translate(-109.48 -198.18)"/>
      <polygon class="c" points="202.36 259.63 201.36 259.63 201.36 266.52 199.59 266.52 199.59 251.62 201.36 251.62 201.36 258.56 202.31 258.26 207.32 251.62 209.36 251.62 204.38 258.03 203.49 258.73 204.57 259.58 210.02 266.52 207.78 266.52 202.36 259.63"/>
      <path class="c" d="M321.23,457.25a9,9,0,0,1,1.57-5.72,5.4,5.4,0,0,1,4.49-2,6.22,6.22,0,0,1,2.72.55,5.12,5.12,0,0,1,1.91,1.56,6.84,6.84,0,0,1,1.12,2.43,12.76,12.76,0,0,1,.36,3.16,9,9,0,0,1-1.59,5.72,5.45,5.45,0,0,1-4.52,2,6.09,6.09,0,0,1-2.69-.55,5.13,5.13,0,0,1-1.89-1.56,6.83,6.83,0,0,1-1.12-2.43,12.78,12.78,0,0,1-.36-3.16m1.87,0a10.78,10.78,0,0,0,.25,2.34,6.36,6.36,0,0,0,.76,1.95,4,4,0,0,0,1.31,1.34,3.48,3.48,0,0,0,1.88.5,3.67,3.67,0,0,0,3.11-1.5,7.71,7.71,0,0,0,1.13-4.63,10.91,10.91,0,0,0-.24-2.33,6.2,6.2,0,0,0-.77-2,4.11,4.11,0,0,0-1.32-1.34,3.52,3.52,0,0,0-1.91-.5,3.62,3.62,0,0,0-3.08,1.5,7.76,7.76,0,0,0-1.12,4.63" transform="translate(-109.48 -198.18)"/>
      <polygon class="c" points="234.91 253.2 228.69 253.2 228.69 266.52 226.92 266.52 226.92 251.62 234.91 251.62 234.91 253.2"/>
      <path class="c" d="M344.71,457.25a9,9,0,0,1,1.58-5.72,5.39,5.39,0,0,1,4.49-2,6.22,6.22,0,0,1,2.72.55,5.11,5.11,0,0,1,1.9,1.56,6.84,6.84,0,0,1,1.12,2.43,12.78,12.78,0,0,1,.36,3.16A9,9,0,0,1,355.3,463a5.45,5.45,0,0,1-4.52,2,6.09,6.09,0,0,1-2.69-.55,5.12,5.12,0,0,1-1.89-1.56,6.82,6.82,0,0,1-1.12-2.43,12.75,12.75,0,0,1-.36-3.16m1.87,0a10.82,10.82,0,0,0,.24,2.34,6.37,6.37,0,0,0,.76,1.95,4,4,0,0,0,1.31,1.34,3.48,3.48,0,0,0,1.89.5,3.67,3.67,0,0,0,3.11-1.5,7.71,7.71,0,0,0,1.13-4.63,10.88,10.88,0,0,0-.25-2.33,6.18,6.18,0,0,0-.77-2,4.11,4.11,0,0,0-1.32-1.34,3.51,3.51,0,0,0-1.9-.5,3.62,3.62,0,0,0-3.08,1.5,7.76,7.76,0,0,0-1.12,4.63" transform="translate(-109.48 -198.18)"/>
      <polygon class="c" points="78.29 278.24 78.5 276.01 78.4 276.01 77.59 278.05 73.72 284.78 73.18 284.78 69.07 278.03 68.31 276.01 68.2 276.01 68.5 278.22 68.5 288.25 66.84 288.25 66.84 273.35 68.16 273.35 72.82 280.97 73.52 282.63 73.57 282.63 74.23 280.93 78.67 273.35 80.06 273.35 80.06 288.25 78.29 288.25 78.29 278.24"/>
      <polygon class="c" points="83.68 273.35 91.79 273.35 91.79 274.92 85.44 274.92 85.44 279.8 91.26 279.8 91.26 281.37 85.44 281.37 85.44 286.67 91.89 286.67 91.89 288.25 83.68 288.25 83.68 273.35"/>
      <polygon class="c" points="104.01 281.42 96.85 281.42 96.85 288.25 95.09 288.25 95.09 273.35 96.85 273.35 96.85 279.84 104.01 279.84 104.01 273.35 105.77 273.35 105.77 288.25 104.01 288.25 104.01 281.42"/>
      <polygon class="c" points="109.39 273.35 117.5 273.35 117.5 274.92 111.16 274.92 111.16 279.8 116.97 279.8 116.97 281.37 111.16 281.37 111.16 286.67 117.61 286.67 117.61 288.25 109.39 288.25 109.39 273.35"/>
      <path class="c" d="M242.12,489.18h-1.21l-.32-2.75H230.14l-.32,2.75h-1.23v-4.32h1.51a6.44,6.44,0,0,0,.52-1.1,15.82,15.82,0,0,0,.7-2.47q.35-1.61.63-4a51.36,51.36,0,0,0,.28-5.74h8v13.33h1.94Zm-3.7-4.32V473.1h-4.53q-.06,2.34-.24,4.22t-.44,3.31a21.23,21.23,0,0,1-.57,2.48,12.43,12.43,0,0,1-.66,1.75Z" transform="translate(-109.48 -198.18)"/>
      <polygon class="c" points="140.86 273.35 142.56 273.35 142.56 280.29 143.47 279.99 147.8 273.35 149.75 273.35 145.46 279.82 144.6 280.5 145.67 281.37 150.41 288.25 148.24 288.25 143.54 281.35 142.56 281.35 142.56 288.25 140.86 288.25 140.86 281.1 139.96 281.39 135.26 288.25 133.21 288.25 137.92 281.59 138.94 280.78 137.96 280.03 133.51 273.35 135.58 273.35 139.9 280.03 140.86 280.03 140.86 273.35"/>
      <polygon class="c" points="163.66 278.24 163.87 276.01 163.76 276.01 162.95 278.05 159.08 284.78 158.55 284.78 154.44 278.03 153.67 276.01 153.56 276.01 153.86 278.22 153.86 288.25 152.2 288.25 152.2 273.35 153.52 273.35 158.19 280.97 158.89 282.63 158.93 282.63 159.59 280.93 164.04 273.35 165.42 273.35 165.42 288.25 163.66 288.25 163.66 278.24"/>
      <polygon class="c" points="169.04 273.35 177.15 273.35 177.15 274.92 170.81 274.92 170.81 279.8 176.62 279.8 176.62 281.37 170.81 281.37 170.81 286.67 177.26 286.67 177.26 288.25 169.04 288.25 169.04 273.35"/>
      <polygon class="c" points="189.37 281.42 182.22 281.42 182.22 288.25 180.45 288.25 180.45 273.35 182.22 273.35 182.22 279.84 189.37 279.84 189.37 273.35 191.14 273.35 191.14 288.25 189.37 288.25 189.37 281.42"/>
      <polygon class="c" points="204.38 274.92 199.74 274.92 199.74 288.25 197.97 288.25 197.97 274.92 193.33 274.92 193.33 273.35 204.38 273.35 204.38 274.92"/>
      <path class="c" d="M321.7,482.3h-5.46l-1.48,4.13H313l5.64-15.14h.81l5.66,15.14h-1.87Zm-4.89-1.53h4.36l-1.65-4.53L319,474h0l-.53,2.3Z" transform="translate(-109.48 -198.18)"/>
    </g>
    <g>
      <path class="d" d="M474.67,349.15A100.72,100.72,0,0,0,449.1,331c-27.16-13.58-70-20.46-96.49-23.67l-.9-.09-.9-.09c-.69-.09-1.37-.16-2.06-.25h-.19c-.44-.06-.9-.09-1.31-.16-.87-.12-1.87-.25-2.9-.4-7.23-1.31-11.37-4.2-8.88-13.7l3-11.31c2-8.38,4.42-13.3,11.31-14.27l111.16-12.3c12.3-11.8,22.61-32,27-50.68,0-3.43-1.46-5.89-5.42-5.89L352.2,213.91c-15.73,2-18.69,2-22.15,14.76l-11.93,45.69-4.89,18.78L300.56,341.8c-3,11.31-1,15.73,14.76,16.73,34.29,2.74,80.55,7.16,105.4,33.45a61.38,61.38,0,0,1,13.42,22.11,69.09,69.09,0,0,1,3.27,13.61,88,88,0,0,1,.84,12.46c0,26.57-16.73,49.18-45.72,66.4-11.21,6.7-26.38,11.74-43.08,15.36a334.42,334.42,0,0,1-55.29,6.79c-6.42,4.42-4.45,19.65,2.93,23.11a345.6,345.6,0,0,0,49.06-4.8,319.15,319.15,0,0,0,39.15-9.13,245.4,245.4,0,0,0,45.1-18.53c40.8-22.15,70.83-55.1,70.83-106.24C501.24,385.78,490.21,364.41,474.67,349.15Z" transform="translate(-109.48 -198.18)"/>
      <path class="e" d="M487.94,204.07c-4.42,18.72-14.73,38.87-27,50.68L349.74,267c-6.88,1-9.34,5.89-11.31,14.27l-3,11.31c-2.49,9.5,1.65,12.4,8.88,13.7-16.6,0-22.61-16.85-26.23-32l11.93-45.69c3.46-12.8,6.42-12.8,22.15-14.76l130.32-15.73C486.47,198.18,487.94,200.64,487.94,204.07Z" transform="translate(-109.48 -198.18)"/>
      <path class="f" d="M434.18,414.09a64.31,64.31,0,0,1,3.24,13.61,69.09,69.09,0,0,0-3.27-13.61Z" transform="translate(-109.48 -198.18)"/>
      <path class="g" d="M501.24,413.12c0,51.14-30,84.1-70.83,106.24a245.4,245.4,0,0,1-45.1,18.53A319.15,319.15,0,0,1,346.16,547a234.64,234.64,0,0,1,3.3-25.1c16.69-3.61,31.86-8.66,43.08-15.36,29-17.22,45.72-39.84,45.72-66.4a88,88,0,0,0-.84-12.46,69.09,69.09,0,0,0-3.27-13.61A61.38,61.38,0,0,0,420.72,392a331.06,331.06,0,0,1,53.95-42.83C490.21,364.41,501.24,385.78,501.24,413.12Z" transform="translate(-109.48 -198.18)"/>
      <path class="h" d="M386,537.31c-.25.19-.47.4-.72.59a340,340,0,0,1-88.21,13.92c-7.38-3.46-9.34-18.69-2.93-23.11,35.41-1.49,75.25-8.38,98.36-22.15,29-17.22,45.72-39.84,45.72-66.4a88,88,0,0,0-.84-12.46C440.63,449.53,438.82,494.26,386,537.31Z" transform="translate(-109.48 -198.18)"/>
    </g>
    <g>
      <path class="i" d="M639.53,265.21c-2,3.73-14.62,25.66-24.85,27-2.45.32-4.24-1-4.65-4-1.67-12.68,20.34-36.6,21.63-38.29-2.35-3-4.64-3.94-6.77-3.66-6.71.88-29.32,23.47-39.61,38.36,4.08-9.42,14.28-25,19.75-31.2-2.22-2.85-4.12-3.36-6.47-3.05-1.7.22-3.62,1.34-5.69,2.92-7,5.47-20.76,20.17-24.77,25.14,0,0,8.53-12.61,7.48-20.6-.46-3.52-3.21-5.43-8.32-4.76l-1.28.17c-.19,6.67-.47,9.55-5.74,22.25-.05,0-.09-.1-.14-.13-3.56,6.75-18.63,26.51-31.63,28.21-4.47.59-5.81-2.16-6.18-4.93-.63-4.79,1.14-11.09,3.87-16.76,25-6.54,29.57-15.81,29-20.49-.38-2.87-2.34-5.44-8-4.7-15.61,2.05-35.48,25.68-34.7,41.78-3.62,4.69-8.54,9.31-13,9.91a3.73,3.73,0,0,1-4.55-3.31c-.53-4,2.67-11,6.25-18.38,4.17-8.68,7.82-16.41,7.29-20.46-.45-3.41-3.91-5-10.53-4.26a7.33,7.33,0,0,1,1.19,3.31,13.46,13.46,0,0,1-1.6,8.45,120.52,120.52,0,0,1-8.07,12c-8.91,12.23-20.69,25.69-24.1,26.14-.64.08-1-.08-1.07-.72-.25-1.92,10.84-14,9.92-21-.57-4.37-2.87-5.37-6.92-6.46,0,.21.17.51.2.73.88,6.71-10.55,18.72-9.58,26.08.46,3.51,3,4.8,5.89,4.42,7.46-1,25.34-24.89,31.18-33.25-5.45,10.47-8.34,18.22-7.68,23.22.63,4.79,4.42,7.22,9.63,6.54,6.08-.8,11.91-5.91,15.85-10.47,1.11,5.09,5.13,7.18,10.72,6.44C536.1,305.67,548,295.25,556,285c-3.73,7.88-6.55,12.91-6.23,15.37.2,1.49,1.55,2.72,3.7,3.41,1.64-4,4.36-8,6.61-11.59,9.79-15.38,26.87-31.38,28.58-31.61a.65.65,0,0,1,.66.89c-.92,2.07-7.6,13.13-12.63,26.8-1,2.62-1.91,6.1-1.64,8.13.21,1.6,1.73,3.24,4.41,3a62.29,62.29,0,0,1,4.73-9.4c9.34-15.53,26.17-31,28.85-32.84.6-.4,1.4-.07.69,1.1-1.65,2.28-12,18.06-10.66,28.6.86,6.5,5.07,8.87,9.44,8.3,13-1.71,27-26,27.66-27A2,2,0,0,0,639.53,265.21Zm-93.94-5.54c1.07-.14,1.67.32,1.82,1.5.77,5.86-7.83,14.68-20.3,18.71C530,274.61,539.3,260.49,545.59,259.66Z" transform="translate(-109.48 -198.18)"/>
      <path class="i" d="M577.87,247.94c3.47-4.14,8.94-5.4,15.22-6.22,7.88-1,15.34-1.15,19.19-1.65,8.73-1.15,15.65-4.65,15.33-10.36-1.69,2-6.72,3.27-12.27,4-8.95,1.18-18.37-.4-29.55,1.06-6.29.83-9.44,5.69-8.84,10.27A9.89,9.89,0,0,0,577.87,247.94Z" transform="translate(-109.48 -198.18)"/>
    </g>
  </g>
</svg>
