<?xml version="1.0" encoding="utf-8"?>
<!-- Generator: Adobe Illustrator 21.1.0, SVG Export Plug-In . SVG Version: 6.00 Build 0)  -->
<svg version="1.1" baseProfile="basic" id="Layer_1"
	 xmlns="http://www.w3.org/2000/svg" xmlns:xlink="http://www.w3.org/1999/xlink" x="0px" y="0px" viewBox="0 0 200 100"
	 xml:space="preserve">
<g>
	<polygon fill="#358E43" points="54.2,57.4 47.4,64.1 31.5,69 20.8,79.7 20.8,83.4 54.2,83.4 54.2,65.3 50.5,69 50.5,79.7 
		26.1,79.7 33.5,72.3 49.4,67.4 54.2,62.6 	"/>
	<path fill="#E24D25" d="M44.5,59.2l-16,4.9l-4,4V20.4c4.7,0.6,8.9,3.2,11.4,7.4l1.6,2.6l1.6-2.6c2.5-4.1,6.7-6.8,11.4-7.4v30.1
		l3.7-3.7V16.6h-1.9c-5.8,0-11.2,2.6-14.8,7c-3.6-4.4-9-7-14.8-7h-1.9V77l9.7-9.7l16-4.9l7.7-7.7v-5.3L44.5,59.2z"/>
	<polygon fill="#221F1F" points="67.7,23.3 63.3,23.3 63.3,27.6 62.2,27.6 62.2,18.4 63.3,18.4 63.3,22.4 67.7,22.4 67.7,18.4 
		68.8,18.4 68.8,27.6 67.7,27.6 	"/>
	<polygon fill="#221F1F" points="76.7,21.3 76.8,20.3 76.7,20.3 76.2,21.4 71.7,27.6 71.1,27.6 71.1,18.4 72.1,18.4 72.1,24.7 
		72.1,25.7 72.1,25.7 72.7,24.6 77.1,18.4 77.8,18.4 77.8,27.6 76.7,27.6 	"/>
	<polygon fill="#221F1F" points="85.7,21.3 85.8,20.3 85.7,20.3 85.1,21.4 80.7,27.6 80,27.6 80,18.4 81.1,18.4 81.1,24.7 81,25.7 
		81.1,25.7 81.7,24.6 86.1,18.4 86.8,18.4 86.8,27.6 85.7,27.6 	"/>
	<path fill="#221F1F" d="M61.8,36.6c0-1.5,0.3-2.7,1-3.5c0.7-0.8,1.6-1.2,2.8-1.2c0.6,0,1.2,0.1,1.7,0.3c0.5,0.2,0.9,0.6,1.2,1
		c0.3,0.4,0.5,0.9,0.7,1.5c0.1,0.6,0.2,1.2,0.2,2c0,1.5-0.3,2.7-1,3.5c-0.7,0.8-1.6,1.2-2.8,1.2c-0.6,0-1.2-0.1-1.7-0.3
		c-0.5-0.2-0.9-0.6-1.2-1c-0.3-0.4-0.5-0.9-0.7-1.5C61.9,37.9,61.8,37.3,61.8,36.6 M63,36.6c0,0.5,0.1,1,0.2,1.5
		c0.1,0.5,0.3,0.9,0.5,1.2c0.2,0.3,0.5,0.6,0.8,0.8c0.3,0.2,0.7,0.3,1.2,0.3c0.8,0,1.5-0.3,1.9-0.9c0.5-0.6,0.7-1.6,0.7-2.9
		c0-0.5-0.1-1-0.2-1.4c-0.1-0.5-0.3-0.9-0.5-1.2c-0.2-0.3-0.5-0.6-0.8-0.8c-0.3-0.2-0.7-0.3-1.2-0.3c-0.8,0-1.4,0.3-1.9,0.9
		C63.2,34.3,63,35.3,63,36.6"/>
	<path fill="#221F1F" d="M71.2,32c0.3-0.1,0.7-0.1,1.1-0.2c0.4,0,0.8,0,1.1,0c0.4,0,0.8,0,1.2,0.1c0.4,0.1,0.8,0.2,1.1,0.4
		c0.3,0.2,0.6,0.5,0.8,0.9c0.2,0.4,0.3,0.8,0.3,1.4c0,0.6-0.1,1-0.3,1.4c-0.2,0.4-0.5,0.7-0.8,0.9c-0.3,0.2-0.7,0.4-1.1,0.5
		c-0.4,0.1-0.9,0.2-1.3,0.2h-0.2c-0.1,0-0.2,0-0.3,0c-0.1,0-0.2,0-0.3,0c-0.1,0-0.2,0-0.2,0v3.5h-1.1V32z M73.5,32.8
		c-0.2,0-0.4,0-0.7,0c-0.2,0-0.4,0-0.5,0.1v3.8c0,0,0.1,0,0.2,0c0.1,0,0.2,0,0.3,0c0.1,0,0.2,0,0.3,0h0.2c0.3,0,0.6,0,0.9-0.1
		c0.3-0.1,0.6-0.2,0.8-0.3c0.2-0.1,0.4-0.4,0.6-0.6c0.1-0.3,0.2-0.6,0.2-1c0-0.4-0.1-0.7-0.2-0.9c-0.1-0.2-0.3-0.4-0.5-0.6
		c-0.2-0.1-0.5-0.2-0.8-0.3C74,32.8,73.7,32.8,73.5,32.8"/>
	<polygon fill="#221F1F" points="83.5,32.9 79.7,32.9 79.7,41.2 78.6,41.2 78.6,32 83.5,32 	"/>
	<path fill="#221F1F" d="M87.9,38.6h-3.4l-0.9,2.6h-1.1l3.5-9.4h0.5l3.5,9.4h-1.2L87.9,38.6z M84.9,37.7h2.7l-1-2.8l-0.3-1.4h0
		l-0.3,1.4L84.9,37.7z"/>
	<polygon fill="#221F1F" points="96.7,36.9 92.3,36.9 92.3,41.2 91.2,41.2 91.2,32 92.3,32 92.3,36 96.7,36 96.7,32 97.8,32 
		97.8,41.2 96.7,41.2 	"/>
	<polygon fill="#221F1F" points="105.7,34.9 105.8,33.9 105.8,33.9 105.2,35 100.7,41.2 100.1,41.2 100.1,32 101.2,32 101.2,38.3 
		101.1,39.3 101.1,39.3 101.7,38.2 106.2,32 106.8,32 106.8,41.2 105.7,41.2 	"/>
	<path fill="#221F1F" d="M109.8,36.8v-0.9h0.2h0.3c0.1,0,0.2,0,0.3,0c0.1,0,0.2,0,0.3,0c0.1,0,0.2,0,0.3,0c0.2,0,0.4-0.1,0.6-0.2
		c0.2-0.1,0.4-0.2,0.5-0.3c0.1-0.1,0.3-0.3,0.4-0.5c0.1-0.2,0.1-0.4,0.1-0.6c0-0.3,0-0.5-0.1-0.7c-0.1-0.2-0.2-0.3-0.4-0.5
		c-0.2-0.1-0.4-0.2-0.6-0.3c-0.2,0-0.5-0.1-0.7-0.1c-0.5,0-0.9,0-1.2,0.1c-0.3,0.1-0.6,0.1-0.8,0.2l-0.3-0.9
		c0.2-0.1,0.5-0.2,0.9-0.3c0.5-0.1,1-0.2,1.5-0.2c0.4,0,0.7,0,1,0.1c0.3,0.1,0.6,0.2,0.9,0.4c0.3,0.2,0.5,0.4,0.6,0.7
		c0.2,0.3,0.2,0.7,0.2,1.1c0,0.4-0.1,0.9-0.4,1.3c-0.3,0.4-0.7,0.7-1.3,0.9v0.1c0.6,0.1,1.1,0.3,1.5,0.7c0.4,0.4,0.5,0.9,0.5,1.5
		c0,0.5-0.1,0.9-0.3,1.3c-0.2,0.4-0.5,0.7-0.8,0.9c-0.3,0.2-0.7,0.4-1.1,0.5c-0.4,0.1-0.8,0.2-1.3,0.2c-0.6,0-1.1,0-1.4-0.1
		c-0.4-0.1-0.7-0.1-0.9-0.2l0.3-1c0.2,0.1,0.5,0.2,0.9,0.2c0.4,0.1,0.8,0.1,1.3,0.1c0.3,0,0.5,0,0.8-0.1c0.3-0.1,0.5-0.2,0.7-0.3
		c0.2-0.2,0.4-0.3,0.5-0.6c0.1-0.2,0.2-0.5,0.2-0.8c0-0.6-0.2-1-0.6-1.2c-0.4-0.3-0.9-0.4-1.5-0.5c-0.1,0-0.2,0-0.3,0
		c-0.1,0-0.2,0-0.3,0H109.8z"/>
	<path fill="#221F1F" d="M120.6,38.6h-3.4l-0.9,2.6h-1.1l3.5-9.4h0.5l3.5,9.4h-1.2L120.6,38.6z M117.5,37.7h2.7l-1-2.8l-0.3-1.4h0
		l-0.3,1.4L117.5,37.7z"/>
	<polygon fill="#221F1F" points="131.5,42.9 130.7,42.9 130.5,41.2 123.9,41.2 123.9,32 125,32 125,40.2 129.2,40.2 129.2,32 
		130.2,32 130.2,40.2 131.5,40.2 	"/>
	<polygon fill="#221F1F" points="138.6,34.9 138.7,33.9 138.6,33.9 138.1,35 133.6,41.2 133,41.2 133,32 134.1,32 134.1,38.3 
		134,39.3 134,39.3 134.6,38.2 139.1,32 139.7,32 139.7,41.2 138.6,41.2 	"/>
	<polygon fill="#221F1F" points="147.6,34.9 147.7,33.9 147.6,33.9 147,35 142.6,41.2 141.9,41.2 141.9,32 143,32 143,38.3 
		142.9,39.3 143,39.3 143.6,38.2 148,32 148.7,32 148.7,41.2 147.6,41.2 	"/>
	<path fill="#221F1F" d="M62.9,50.4v-0.9h0.2h0.3c0.1,0,0.2,0,0.3,0c0.1,0,0.2,0,0.3,0c0.1,0,0.2,0,0.3,0c0.2,0,0.4-0.1,0.6-0.2
		c0.2-0.1,0.4-0.2,0.5-0.3c0.1-0.1,0.3-0.3,0.4-0.5c0.1-0.2,0.1-0.4,0.1-0.6c0-0.3,0-0.5-0.1-0.7c-0.1-0.2-0.2-0.3-0.4-0.5
		c-0.2-0.1-0.4-0.2-0.6-0.3c-0.2,0-0.5-0.1-0.7-0.1c-0.5,0-0.9,0-1.2,0.1c-0.3,0.1-0.6,0.1-0.8,0.2l-0.3-0.9
		c0.2-0.1,0.5-0.2,0.9-0.3c0.5-0.1,1-0.2,1.5-0.2c0.4,0,0.7,0,1,0.1c0.3,0.1,0.6,0.2,0.9,0.4c0.3,0.2,0.5,0.4,0.6,0.7
		c0.2,0.3,0.2,0.7,0.2,1.1c0,0.4-0.1,0.9-0.4,1.3c-0.3,0.4-0.7,0.7-1.3,0.9v0.1c0.6,0.1,1.1,0.3,1.5,0.7c0.4,0.4,0.5,0.9,0.5,1.5
		c0,0.5-0.1,0.9-0.3,1.3c-0.2,0.4-0.5,0.7-0.8,0.9c-0.3,0.2-0.7,0.4-1.1,0.5c-0.4,0.1-0.8,0.2-1.3,0.2c-0.6,0-1.1,0-1.4-0.1
		c-0.4-0.1-0.7-0.1-0.9-0.2l0.3-1c0.2,0.1,0.5,0.2,0.9,0.2c0.4,0.1,0.8,0.1,1.3,0.1c0.3,0,0.5,0,0.8-0.1c0.3-0.1,0.5-0.2,0.7-0.3
		c0.2-0.2,0.4-0.3,0.5-0.6c0.1-0.2,0.2-0.5,0.2-0.8c0-0.6-0.2-1-0.6-1.2c-0.4-0.3-0.9-0.4-1.5-0.5c-0.1,0-0.2,0-0.3,0
		c-0.1,0-0.2,0-0.3,0H62.9z"/>
	<path fill="#221F1F" d="M76.7,56.5h-0.8l-0.2-1.7h-6.5L69,56.5h-0.8v-2.7h0.9c0.1-0.1,0.2-0.3,0.3-0.7c0.1-0.4,0.3-0.9,0.4-1.5
		c0.1-0.7,0.3-1.5,0.4-2.5c0.1-1,0.2-2.2,0.2-3.6h4.9v8.3h1.2V56.5z M74.4,53.8v-7.3h-2.8c0,1-0.1,1.8-0.2,2.6
		c-0.1,0.8-0.2,1.5-0.3,2.1c-0.1,0.6-0.2,1.1-0.4,1.5c-0.1,0.4-0.3,0.8-0.4,1.1H74.4z"/>
	<path fill="#221F1F" d="M78.1,45.6c0.3-0.1,0.7-0.1,1.1-0.2c0.4,0,0.8,0,1.1,0c0.4,0,0.8,0,1.2,0.1c0.4,0.1,0.8,0.2,1.1,0.4
		c0.3,0.2,0.6,0.5,0.8,0.9c0.2,0.4,0.3,0.8,0.3,1.4c0,0.6-0.1,1-0.3,1.4c-0.2,0.4-0.5,0.7-0.8,0.9c-0.3,0.2-0.7,0.4-1.1,0.5
		c-0.4,0.1-0.9,0.2-1.3,0.2h-0.2c-0.1,0-0.2,0-0.3,0c-0.1,0-0.2,0-0.3,0c-0.1,0-0.2,0-0.2,0v3.5h-1.1V45.6z M80.4,46.4
		c-0.2,0-0.4,0-0.7,0c-0.2,0-0.4,0-0.5,0.1v3.8c0,0,0.1,0,0.2,0c0.1,0,0.2,0,0.3,0c0.1,0,0.2,0,0.3,0h0.2c0.3,0,0.6,0,0.9-0.1
		c0.3-0.1,0.6-0.2,0.8-0.3c0.2-0.1,0.4-0.4,0.6-0.6c0.1-0.3,0.2-0.6,0.2-1c0-0.4-0.1-0.7-0.2-0.9c-0.1-0.2-0.3-0.4-0.5-0.6
		c-0.2-0.1-0.5-0.2-0.8-0.3C81,46.4,80.7,46.4,80.4,46.4"/>
	<path fill="#221F1F" d="M89.1,52.2h-3.4l-0.9,2.6h-1.1l3.5-9.4h0.5l3.5,9.4H90L89.1,52.2z M86,51.3h2.7l-1-2.8l-0.3-1.4h0L87,48.5
		L86,51.3z"/>
	<path fill="#221F1F" d="M98,47.7c0,0.2,0,0.4-0.1,0.7s-0.2,0.4-0.3,0.6c-0.1,0.2-0.3,0.4-0.5,0.5c-0.2,0.1-0.5,0.3-0.8,0.3v0.1
		c0.3,0,0.5,0.1,0.8,0.2c0.2,0.1,0.5,0.3,0.6,0.4c0.2,0.2,0.3,0.4,0.4,0.7c0.1,0.3,0.2,0.6,0.2,0.9c0,0.5-0.1,0.9-0.3,1.2
		c-0.2,0.3-0.5,0.6-0.8,0.9c-0.3,0.2-0.7,0.4-1.1,0.5c-0.4,0.1-0.8,0.2-1.3,0.2h-0.5c-0.2,0-0.4,0-0.6,0c-0.2,0-0.4,0-0.7-0.1
		c-0.2,0-0.4-0.1-0.6-0.1v-9.1c0.3-0.1,0.7-0.1,1.1-0.1c0.4,0,0.9-0.1,1.4-0.1c0.3,0,0.7,0,1,0.1c0.4,0.1,0.7,0.2,1,0.3
		c0.3,0.2,0.5,0.4,0.7,0.7C97.9,46.8,98,47.2,98,47.7 M94.2,49.6c0.1,0,0.3,0,0.5,0c0.2,0,0.4,0,0.5,0c0.2-0.1,0.4-0.2,0.6-0.3
		c0.2-0.1,0.3-0.2,0.5-0.4c0.1-0.1,0.3-0.3,0.3-0.5c0.1-0.2,0.1-0.4,0.1-0.6c0-0.3-0.1-0.5-0.2-0.7c-0.1-0.2-0.3-0.3-0.4-0.5
		c-0.2-0.1-0.4-0.2-0.6-0.2c-0.2,0-0.5-0.1-0.7-0.1c-0.3,0-0.6,0-0.8,0c-0.2,0-0.4,0-0.5,0.1v3.1H94.2z M94.9,53.9
		c0.3,0,0.6,0,0.8-0.1c0.3-0.1,0.5-0.2,0.7-0.3c0.2-0.1,0.4-0.3,0.5-0.5c0.1-0.2,0.2-0.5,0.2-0.8c0-0.4-0.1-0.6-0.2-0.9
		c-0.1-0.2-0.3-0.4-0.6-0.5c-0.2-0.1-0.5-0.2-0.8-0.3c-0.3,0-0.6-0.1-0.9-0.1h-1.1v3.3c0.1,0,0.1,0,0.3,0c0.1,0,0.2,0,0.4,0
		c0.1,0,0.3,0,0.4,0C94.7,53.9,94.8,53.9,94.9,53.9"/>
	<path fill="#221F1F" d="M99.7,50.2c0-1.5,0.3-2.7,1-3.5c0.7-0.8,1.6-1.2,2.8-1.2c0.7,0,1.2,0.1,1.7,0.3s0.9,0.6,1.2,1
		c0.3,0.4,0.5,0.9,0.7,1.5c0.1,0.6,0.2,1.2,0.2,2c0,1.5-0.3,2.7-1,3.5c-0.7,0.8-1.6,1.2-2.8,1.2c-0.6,0-1.2-0.1-1.7-0.3
		c-0.5-0.2-0.9-0.6-1.2-1c-0.3-0.4-0.5-0.9-0.7-1.5C99.8,51.5,99.7,50.9,99.7,50.2 M100.9,50.2c0,0.5,0.1,1,0.2,1.5
		c0.1,0.5,0.3,0.9,0.5,1.2c0.2,0.3,0.5,0.6,0.8,0.8c0.3,0.2,0.7,0.3,1.2,0.3c0.8,0,1.5-0.3,1.9-0.9c0.5-0.6,0.7-1.6,0.7-2.9
		c0-0.5-0.1-1-0.2-1.4c-0.1-0.5-0.3-0.9-0.5-1.2c-0.2-0.3-0.5-0.6-0.8-0.8c-0.3-0.2-0.7-0.3-1.2-0.3c-0.8,0-1.4,0.3-1.9,0.9
		C101.1,47.9,100.9,48.9,100.9,50.2"/>
	<path fill="#221F1F" d="M108.7,50.2c0-1.5,0.3-2.7,1-3.5c0.7-0.8,1.6-1.2,2.8-1.2c0.7,0,1.2,0.1,1.7,0.3s0.9,0.6,1.2,1
		c0.3,0.4,0.5,0.9,0.7,1.5c0.1,0.6,0.2,1.2,0.2,2c0,1.5-0.3,2.7-1,3.5c-0.7,0.8-1.6,1.2-2.8,1.2c-0.6,0-1.2-0.1-1.7-0.3
		c-0.5-0.2-0.9-0.6-1.2-1c-0.3-0.4-0.5-0.9-0.7-1.5C108.8,51.5,108.7,50.9,108.7,50.2 M109.9,50.2c0,0.5,0.1,1,0.2,1.5
		c0.1,0.5,0.3,0.9,0.5,1.2c0.2,0.3,0.5,0.6,0.8,0.8c0.3,0.2,0.7,0.3,1.2,0.3c0.8,0,1.5-0.3,1.9-0.9c0.5-0.6,0.7-1.6,0.7-2.9
		c0-0.5-0.1-1-0.2-1.4c-0.1-0.5-0.3-0.9-0.5-1.2c-0.2-0.3-0.5-0.6-0.8-0.8c-0.3-0.2-0.7-0.3-1.2-0.3c-0.8,0-1.4,0.3-1.9,0.9
		C110.1,47.9,109.9,48.9,109.9,50.2"/>
	<polygon fill="#221F1F" points="120.1,50.1 117.3,45.6 118.6,45.6 120.5,48.7 120.8,49.4 121.1,48.7 123.1,45.6 124.3,45.6 
		121.4,50 124.4,54.8 123.1,54.8 121.1,51.5 120.7,50.7 120.4,51.5 118.2,54.8 117,54.8 	"/>
	<path fill="#221F1F" d="M125.9,45.6c0.3-0.1,0.7-0.1,1.1-0.2c0.4,0,0.8,0,1.1,0c0.4,0,0.8,0,1.2,0.1c0.4,0.1,0.8,0.2,1.1,0.4
		c0.3,0.2,0.6,0.5,0.8,0.9c0.2,0.4,0.3,0.8,0.3,1.4c0,0.6-0.1,1-0.3,1.4c-0.2,0.4-0.5,0.7-0.8,0.9c-0.3,0.2-0.7,0.4-1.1,0.5
		c-0.4,0.1-0.9,0.2-1.3,0.2h-0.2c-0.1,0-0.2,0-0.3,0c-0.1,0-0.2,0-0.3,0c-0.1,0-0.2,0-0.2,0v3.5h-1.1V45.6z M128.2,46.4
		c-0.2,0-0.4,0-0.7,0c-0.2,0-0.4,0-0.5,0.1v3.8c0,0,0.1,0,0.2,0c0.1,0,0.2,0,0.3,0c0.1,0,0.2,0,0.3,0h0.2c0.3,0,0.6,0,0.9-0.1
		c0.3-0.1,0.6-0.2,0.8-0.3c0.2-0.1,0.4-0.4,0.6-0.6c0.1-0.3,0.2-0.6,0.2-1c0-0.4-0.1-0.7-0.2-0.9c-0.1-0.2-0.3-0.4-0.5-0.6
		c-0.2-0.1-0.5-0.2-0.8-0.3C128.7,46.4,128.5,46.4,128.2,46.4"/>
	<path fill="#221F1F" d="M136.8,52.2h-3.4l-0.9,2.6h-1.1l3.5-9.4h0.5l3.5,9.4h-1.2L136.8,52.2z M133.8,51.3h2.7l-1-2.8l-0.3-1.4h0
		l-0.3,1.4L133.8,51.3z"/>
	<polygon fill="#221F1F" points="145.7,50.6 141.3,50.6 141.3,54.8 140.2,54.8 140.2,45.6 141.3,45.6 141.3,49.6 145.7,49.6 
		145.7,45.6 146.8,45.6 146.8,54.8 145.7,54.8 	"/>
	<polygon fill="#221F1F" points="149,45.6 154.1,45.6 154.1,46.5 150.1,46.5 150.1,49.5 153.7,49.5 153.7,50.5 150.1,50.5 
		150.1,53.8 154.1,53.8 154.1,54.8 149,54.8 	"/>
	<polygon fill="#221F1F" points="161.6,50.6 157.2,50.6 157.2,54.8 156.1,54.8 156.1,45.6 157.2,45.6 157.2,49.6 161.6,49.6 
		161.6,45.6 162.7,45.6 162.7,54.8 161.6,54.8 	"/>
	<polygon fill="#221F1F" points="170.6,48.5 170.7,47.5 170.6,47.5 170.1,48.6 165.6,54.8 165,54.8 165,45.6 166.1,45.6 166.1,51.9 
		166,52.9 166,52.9 166.6,51.8 171.1,45.6 171.7,45.6 171.7,54.8 170.6,54.8 	"/>
	<path fill="#221F1F" d="M179.2,54.8h-1.1v-4l-1.4,0.3l-2.3,3.7h-1.3l2.1-3.3l0.8-0.6c-0.3-0.1-0.6-0.2-0.9-0.3
		c-0.3-0.1-0.5-0.3-0.7-0.6c-0.2-0.2-0.4-0.5-0.5-0.8c-0.1-0.3-0.2-0.6-0.2-1c0-0.5,0.1-1,0.3-1.3c0.2-0.4,0.4-0.6,0.7-0.9
		c0.3-0.2,0.7-0.4,1.1-0.5c0.4-0.1,0.9-0.1,1.3-0.1c0.3,0,0.6,0,1,0c0.3,0,0.7,0.1,1,0.2V54.8z M177.2,46.4c-0.3,0-0.6,0-0.8,0.1
		c-0.3,0.1-0.5,0.2-0.7,0.3c-0.2,0.1-0.4,0.3-0.5,0.6c-0.1,0.2-0.2,0.5-0.2,0.9c0,0.3,0.1,0.6,0.2,0.9c0.1,0.2,0.3,0.4,0.5,0.6
		c0.2,0.2,0.4,0.3,0.7,0.3c0.3,0.1,0.6,0.1,0.9,0.1h0.9v-3.7c-0.1,0-0.3,0-0.4-0.1C177.6,46.4,177.4,46.4,177.2,46.4"/>
	<polygon fill="#221F1F" points="67.8,62 67.9,60.9 67.9,60.9 67.3,62 62.8,68.2 62.2,68.2 62.2,59 63.3,59 63.3,65.3 63.2,66.4 
		63.2,66.4 63.8,65.3 68.3,59 68.9,59 68.9,68.2 67.8,68.2 	"/>
	<polygon fill="#221F1F" points="81.8,62 81.9,60.7 81.9,60.7 81.4,61.9 79,66.1 78.6,66.1 76.1,61.9 75.6,60.7 75.5,60.7 75.7,62 
		75.7,68.2 74.7,68.2 74.7,59 75.5,59 78.4,63.7 78.8,64.8 78.9,64.8 79.3,63.7 82,59 82.9,59 82.9,68.2 81.8,68.2 	"/>
	<polygon fill="#221F1F" points="85.1,59 90.1,59 90.1,60 86.2,60 86.2,63 89.8,63 89.8,64 86.2,64 86.2,67.3 90.2,67.3 90.2,68.2 
		85.1,68.2 	"/>
	<path fill="#221F1F" d="M99.5,69.9h-0.8l-0.2-1.7h-6.5l-0.2,1.7h-0.8v-2.7h0.9c0.1-0.1,0.2-0.3,0.3-0.7c0.1-0.4,0.3-0.9,0.4-1.5
		c0.1-0.7,0.3-1.5,0.4-2.5c0.1-1,0.2-2.2,0.2-3.6h4.9v8.3h1.2V69.9z M97.2,67.3V60h-2.8c0,1-0.1,1.8-0.2,2.6
		c-0.1,0.8-0.2,1.5-0.3,2.1c-0.1,0.6-0.2,1.1-0.4,1.5c-0.1,0.4-0.3,0.8-0.4,1.1H97.2z"/>
	<polygon fill="#221F1F" points="106.6,62 106.7,60.9 106.7,60.9 106.1,62 101.7,68.2 101,68.2 101,59 102.1,59 102.1,65.3 
		102,66.4 102.1,66.4 102.6,65.3 107.1,59 107.7,59 107.7,68.2 106.6,68.2 	"/>
	<polygon fill="#221F1F" points="117.6,69.9 116.8,69.9 116.6,68.2 110,68.2 110,59 111.1,59 111.1,67.3 115.2,67.3 115.2,59 
		116.3,59 116.3,67.3 117.6,67.3 	"/>
	<polygon fill="#221F1F" points="124.7,62 124.8,60.9 124.7,60.9 124.1,62 119.7,68.2 119,68.2 119,59 120.1,59 120.1,65.3 
		120,66.4 120.1,66.4 120.7,65.3 125.1,59 125.8,59 125.8,68.2 124.7,68.2 	"/>
	<polygon fill="#221F1F" points="133.5,64 129.1,64 129.1,68.2 128,68.2 128,59 129.1,59 129.1,63 133.5,63 133.5,59 134.6,59 
		134.6,68.2 133.5,68.2 	"/>
	<path fill="#221F1F" d="M142.8,67.9c-0.3,0.2-0.6,0.3-1,0.4c-0.4,0.1-0.8,0.1-1.3,0.1c-0.6,0-1.1-0.1-1.6-0.3
		c-0.5-0.2-0.9-0.5-1.3-0.9c-0.4-0.4-0.6-0.9-0.9-1.5c-0.2-0.6-0.3-1.3-0.3-2.1c0-0.9,0.1-1.6,0.3-2.2c0.2-0.6,0.5-1.1,0.9-1.5
		c0.4-0.4,0.8-0.7,1.3-0.8c0.5-0.2,1-0.3,1.5-0.3c0.5,0,1,0,1.3,0.1c0.3,0.1,0.6,0.1,0.9,0.2l-0.3,1c-0.4-0.2-1-0.3-1.8-0.3
		c-0.4,0-0.7,0.1-1.1,0.2c-0.4,0.1-0.7,0.3-0.9,0.6c-0.3,0.3-0.5,0.7-0.7,1.2c-0.2,0.5-0.3,1.1-0.3,1.8c0,0.6,0.1,1.2,0.2,1.7
		c0.2,0.5,0.4,0.9,0.7,1.2c0.3,0.3,0.6,0.6,1,0.7c0.4,0.2,0.8,0.2,1.2,0.2c0.4,0,0.7,0,1-0.1c0.3-0.1,0.5-0.2,0.7-0.3L142.8,67.9z"
		/>
	<polygon fill="#221F1F" points="146.1,64 145.5,64 145.5,68.2 144.4,68.2 144.4,59 145.5,59 145.5,63.3 146.1,63.1 149.2,59 
		150.5,59 147.4,63 146.8,63.4 147.5,63.9 150.9,68.2 149.5,68.2 	"/>
	<path fill="#221F1F" d="M151.9,63.6c0-1.5,0.3-2.7,1-3.5c0.7-0.8,1.6-1.2,2.8-1.2c0.7,0,1.2,0.1,1.7,0.3c0.5,0.2,0.9,0.6,1.2,1
		c0.3,0.4,0.5,0.9,0.7,1.5c0.1,0.6,0.2,1.2,0.2,2c0,1.5-0.3,2.7-1,3.5c-0.7,0.8-1.6,1.2-2.8,1.2c-0.6,0-1.2-0.1-1.7-0.3
		c-0.5-0.2-0.9-0.6-1.2-1c-0.3-0.4-0.5-0.9-0.7-1.5S151.9,64.3,151.9,63.6 M153.1,63.6c0,0.5,0.1,1,0.2,1.5c0.1,0.5,0.3,0.9,0.5,1.2
		c0.2,0.3,0.5,0.6,0.8,0.8c0.3,0.2,0.7,0.3,1.2,0.3c0.8,0,1.5-0.3,1.9-0.9c0.5-0.6,0.7-1.6,0.7-2.9c0-0.5-0.1-1-0.2-1.4
		c-0.1-0.5-0.3-0.9-0.5-1.2c-0.2-0.3-0.5-0.6-0.8-0.8c-0.3-0.2-0.7-0.3-1.2-0.3c-0.8,0-1.4,0.3-1.9,0.9
		C153.3,61.4,153.1,62.3,153.1,63.6"/>
	<polygon fill="#221F1F" points="166.3,60 162.4,60 162.4,68.2 161.3,68.2 161.3,59 166.3,59 	"/>
	<path fill="#221F1F" d="M166.5,63.6c0-1.5,0.3-2.7,1-3.5c0.7-0.8,1.6-1.2,2.8-1.2c0.7,0,1.2,0.1,1.7,0.3c0.5,0.2,0.9,0.6,1.2,1
		c0.3,0.4,0.5,0.9,0.7,1.5c0.1,0.6,0.2,1.2,0.2,2c0,1.5-0.3,2.7-1,3.5c-0.7,0.8-1.6,1.2-2.8,1.2c-0.6,0-1.2-0.1-1.7-0.3
		c-0.5-0.2-0.9-0.6-1.2-1c-0.3-0.4-0.5-0.9-0.7-1.5C166.6,65,166.5,64.3,166.5,63.6 M167.6,63.6c0,0.5,0.1,1,0.2,1.5
		c0.1,0.5,0.3,0.9,0.5,1.2c0.2,0.3,0.5,0.6,0.8,0.8c0.3,0.2,0.7,0.3,1.2,0.3c0.8,0,1.5-0.3,1.9-0.9c0.5-0.6,0.7-1.6,0.7-2.9
		c0-0.5-0.1-1-0.2-1.4c-0.1-0.5-0.3-0.9-0.5-1.2c-0.2-0.3-0.5-0.6-0.8-0.8c-0.3-0.2-0.7-0.3-1.2-0.3c-0.8,0-1.4,0.3-1.9,0.9
		C167.9,61.4,167.6,62.3,167.6,63.6"/>
	<polygon fill="#221F1F" points="69.3,75.5 69.4,74.1 69.4,74.1 68.9,75.4 66.5,79.5 66.1,79.5 63.6,75.4 63.1,74.1 63,74.1 
		63.2,75.5 63.2,81.7 62.2,81.7 62.2,72.5 63,72.5 65.9,77.2 66.3,78.2 66.4,78.2 66.8,77.2 69.5,72.5 70.4,72.5 70.4,81.7 
		69.3,81.7 	"/>
	<polygon fill="#221F1F" points="72.6,72.5 77.6,72.5 77.6,73.4 73.7,73.4 73.7,76.5 77.3,76.5 77.3,77.4 73.7,77.4 73.7,80.7 
		77.7,80.7 77.7,81.7 72.6,81.7 	"/>
	<polygon fill="#221F1F" points="85.2,77.5 80.8,77.5 80.8,81.7 79.7,81.7 79.7,72.5 80.8,72.5 80.8,76.5 85.2,76.5 85.2,72.5 
		86.3,72.5 86.3,81.7 85.2,81.7 	"/>
	<polygon fill="#221F1F" points="88.5,72.5 93.6,72.5 93.6,73.4 89.6,73.4 89.6,76.5 93.2,76.5 93.2,77.4 89.6,77.4 89.6,80.7 
		93.6,80.7 93.6,81.7 88.5,81.7 	"/>
	<path fill="#221F1F" d="M102.9,83.4h-0.8l-0.2-1.7h-6.5l-0.2,1.7h-0.8v-2.7h0.9c0.1-0.1,0.2-0.3,0.3-0.7c0.1-0.4,0.3-0.9,0.4-1.5
		c0.1-0.7,0.3-1.5,0.4-2.5c0.1-1,0.2-2.2,0.2-3.6h4.9v8.3h1.2V83.4z M100.7,80.7v-7.3h-2.8c0,1-0.1,1.8-0.2,2.6
		c-0.1,0.8-0.2,1.5-0.3,2.1c-0.1,0.6-0.2,1.1-0.4,1.5c-0.1,0.4-0.3,0.8-0.4,1.1H100.7z"/>
	<polygon fill="#221F1F" points="108,72.5 109.1,72.5 109.1,76.8 109.7,76.6 112.3,72.5 113.5,72.5 110.9,76.5 110.4,76.9 111,77.4 
		114,81.7 112.6,81.7 109.7,77.4 109.1,77.4 109.1,81.7 108,81.7 108,77.3 107.5,77.4 104.6,81.7 103.3,81.7 106.2,77.6 106.8,77.1 
		106.2,76.6 103.5,72.5 104.8,72.5 107.4,76.6 108,76.6 	"/>
	<polygon fill="#221F1F" points="122.2,75.5 122.3,74.1 122.2,74.1 121.7,75.4 119.3,79.5 119,79.5 116.4,75.4 116,74.1 115.9,74.1 
		116.1,75.5 116.1,81.7 115.1,81.7 115.1,72.5 115.9,72.5 118.8,77.2 119.2,78.2 119.2,78.2 119.6,77.2 122.4,72.5 123.2,72.5 
		123.2,81.7 122.2,81.7 	"/>
	<polygon fill="#221F1F" points="125.5,72.5 130.5,72.5 130.5,73.4 126.6,73.4 126.6,76.5 130.2,76.5 130.2,77.4 126.6,77.4 
		126.6,80.7 130.6,80.7 130.6,81.7 125.5,81.7 	"/>
	<polygon fill="#221F1F" points="138.1,77.5 133.7,77.5 133.7,81.7 132.6,81.7 132.6,72.5 133.7,72.5 133.7,76.5 138.1,76.5 
		138.1,72.5 139.2,72.5 139.2,81.7 138.1,81.7 	"/>
	<polygon fill="#221F1F" points="147.4,73.4 144.5,73.4 144.5,81.7 143.4,81.7 143.4,73.4 140.5,73.4 140.5,72.5 147.4,72.5 	"/>
	<path fill="#221F1F" d="M152.2,79.1h-3.4l-0.9,2.6h-1.1l3.5-9.4h0.5l3.5,9.4h-1.2L152.2,79.1z M149.2,78.2h2.7l-1-2.8l-0.3-1.4h0
		l-0.3,1.4L149.2,78.2z"/>
</g>
</svg>
