<?xml version="1.0" encoding="utf-8"?>
<!-- Generator: Adobe Illustrator 21.1.0, SVG Export Plug-In . SVG Version: 6.00 Build 0)  -->
<svg version="1.1" baseProfile="basic" id="Layer_1"
	 xmlns="http://www.w3.org/2000/svg" xmlns:xlink="http://www.w3.org/1999/xlink" x="0px" y="0px" viewBox="0 0 200 100"
	 xml:space="preserve">
<g>
	<path fill="#93C149" d="M161.8,66.8h1.9v-7.3h-1.9V66.8z M157,59.6h-1.9v7.3c0.3,0,0.7,0.1,1.1,0.1c0.4,0,0.9,0,1.4,0
		c0.6,0,1.1-0.1,1.5-0.2c0.4-0.1,0.8-0.3,1-0.5c0.3-0.2,0.4-0.5,0.6-0.8c0.1-0.3,0.2-0.7,0.2-1.1c0-0.3,0-0.6-0.1-0.9
		c-0.1-0.3-0.2-0.5-0.4-0.7c-0.2-0.2-0.5-0.4-0.8-0.5c-0.3-0.1-0.7-0.2-1.2-0.2c-0.2,0-0.4,0-0.6,0c-0.2,0-0.5,0-0.7,0.1V59.6z
		 M157,63.5c0.3-0.1,0.6-0.1,0.9-0.1c0.4,0,0.7,0.1,0.9,0.2c0.2,0.2,0.3,0.4,0.3,0.7c0,0.3-0.1,0.6-0.3,0.7
		c-0.2,0.2-0.5,0.2-0.9,0.2c-0.3,0-0.5,0-0.8-0.1V63.5z M149.7,62.5V61c0.1,0,0.2,0,0.4,0c0.1,0,0.3,0,0.5,0c0.4,0,0.8,0.1,0.9,0.2
		c0.2,0.1,0.3,0.3,0.3,0.6c0,0.2-0.1,0.4-0.3,0.6c-0.2,0.2-0.5,0.2-0.8,0.2H149.7z M149.7,63.7h1c0.5,0,0.8,0.1,1,0.2
		c0.2,0.2,0.3,0.4,0.3,0.6c0,0.3-0.1,0.5-0.3,0.7s-0.6,0.2-1.1,0.2c-0.2,0-0.3,0-0.4,0c-0.1,0-0.2,0-0.4,0V63.7z M147.8,66.8
		c0.3,0,0.7,0.1,1.2,0.1c0.5,0,0.9,0,1.3,0c1.2,0,2.1-0.2,2.7-0.5c0.6-0.4,0.8-0.9,0.8-1.6c0-0.5-0.1-0.8-0.3-1.1
		c-0.2-0.3-0.6-0.5-1.1-0.6v-0.1c0.4-0.1,0.7-0.4,0.9-0.7c0.2-0.3,0.3-0.6,0.3-1c0-0.6-0.2-1.1-0.7-1.4c-0.4-0.3-1.2-0.5-2.3-0.5
		c-0.6,0-1.1,0-1.5,0c-0.5,0-0.9,0.1-1.2,0.1V66.8z M144.9,66.8h2.2l-2-3.4l-0.8-0.6l0.7-0.6l1.8-2.8h-2l-1.7,2.9l-0.4,0.2v-3.1
		h-1.9v7.3h1.9v-3h0.5L144.9,66.8z M139.2,64.9c-0.2,0.1-0.4,0.2-0.6,0.3c-0.2,0.1-0.5,0.1-0.8,0.1c-0.3,0-0.5-0.1-0.8-0.2
		c-0.2-0.1-0.4-0.3-0.5-0.5c-0.1-0.2-0.2-0.4-0.3-0.7c-0.1-0.3-0.1-0.5-0.1-0.9c0-0.8,0.1-1.3,0.4-1.6c0.3-0.3,0.7-0.5,1.2-0.5
		c0.3,0,0.5,0,0.7,0.1c0.2,0.1,0.4,0.1,0.7,0.2l0.4-1.5c-0.3-0.1-0.6-0.2-0.9-0.3c-0.3-0.1-0.8-0.1-1.3-0.1c-1.1,0-1.9,0.3-2.4,1
		c-0.6,0.7-0.8,1.6-0.8,2.8c0,0.6,0.1,1.1,0.2,1.6c0.1,0.5,0.3,0.9,0.5,1.2s0.6,0.6,1,0.8c0.4,0.2,0.9,0.3,1.5,0.3
		c0.4,0,0.9-0.1,1.3-0.2c0.4-0.1,0.8-0.3,1.1-0.5L139.2,64.9z M128.7,61.5c0.3-0.3,0.6-0.5,1.1-0.5c0.5,0,0.9,0.2,1.1,0.6
		c0.2,0.4,0.3,0.9,0.3,1.6c0,0.8-0.1,1.3-0.4,1.7c-0.2,0.4-0.6,0.5-1.1,0.5c-0.3,0-0.5-0.1-0.7-0.2c-0.2-0.1-0.3-0.3-0.5-0.5
		c-0.1-0.2-0.2-0.4-0.3-0.7c-0.1-0.3-0.1-0.6-0.1-0.9C128.3,62.4,128.4,61.8,128.7,61.5 M126.5,64.7c0.1,0.5,0.4,0.9,0.6,1.2
		c0.3,0.3,0.6,0.6,1.1,0.8c0.4,0.2,0.9,0.3,1.5,0.3c1.1,0,1.9-0.3,2.5-1c0.6-0.7,0.9-1.6,0.9-2.8c0-0.6-0.1-1.1-0.2-1.6
		c-0.1-0.5-0.4-0.9-0.6-1.2c-0.3-0.3-0.6-0.6-1.1-0.8c-0.4-0.2-0.9-0.3-1.5-0.3c-1.1,0-1.9,0.3-2.5,1c-0.6,0.7-0.9,1.6-0.9,2.8
		C126.3,63.7,126.4,64.3,126.5,64.7 M123,66.8h2V56.7h-1.8l-2.6,4.6l-0.4,1.2h-0.1l-0.5-1.2l-2.7-4.6h-1.8v10.2h1.9v-5.3l-0.3-2h0.1
		l0.6,1.6l2.3,3.8h0.6l2.2-3.8l0.6-1.6h0.1l-0.2,2V66.8z M105.9,65.1c-0.2-0.1-0.2-0.4-0.2-0.6c0-0.2,0.1-0.4,0.2-0.5
		c0.1-0.1,0.3-0.2,0.5-0.3c0.2-0.1,0.5-0.1,0.7-0.1c0.3,0,0.6,0,0.9,0v0.9c-0.1,0.2-0.3,0.4-0.5,0.5c-0.2,0.2-0.5,0.3-0.9,0.3
		C106.3,65.4,106.1,65.3,105.9,65.1 M104.6,61.4c0.3-0.1,0.6-0.2,1-0.3c0.4-0.1,0.8-0.1,1.2-0.1c0.5,0,0.8,0.1,1,0.4
		s0.2,0.6,0.1,1.2c-0.6,0-1.2,0-1.7,0.1c-0.5,0.1-1,0.2-1.3,0.4c-0.4,0.2-0.7,0.4-0.9,0.7c-0.2,0.3-0.3,0.7-0.3,1.1
		c0,0.3,0.1,0.6,0.2,0.9c0.1,0.3,0.3,0.5,0.4,0.7c0.2,0.2,0.4,0.3,0.7,0.4c0.3,0.1,0.6,0.2,0.9,0.2c0.5,0,1-0.1,1.3-0.3
		c0.3-0.2,0.6-0.5,0.8-0.8h0.1l0.3,1h1.5c-0.1-0.3-0.2-0.7-0.2-1.1c0-0.4,0-0.8,0-1.2c0-0.4,0-0.8,0.1-1.3c0-0.4,0-0.9,0-1.3
		c0-0.4,0-0.7-0.1-1c-0.1-0.3-0.2-0.6-0.4-0.8c-0.2-0.2-0.5-0.4-0.8-0.5c-0.3-0.1-0.8-0.2-1.3-0.2c-0.6,0-1.1,0.1-1.7,0.2
		c-0.5,0.1-1,0.2-1.4,0.4L104.6,61.4z M97.9,65.2c0.1-0.2,0.2-0.5,0.3-0.8c0.1-0.3,0.2-0.7,0.3-1c0.1-0.4,0.1-0.7,0.2-1.1
		c0-0.4,0.1-0.8,0.1-1.1h1.5v4.1H97.9z M103.2,65.1h-1.1v-5.6h-5c0,0.9,0,1.7-0.1,2.3c-0.1,0.7-0.2,1.2-0.3,1.7
		c-0.1,0.4-0.2,0.8-0.4,1.1C96.1,64.8,96,65,96,65.1h-0.9v3.3h1.4l0.2-1.7h4.9l0.2,1.7h1.4V65.1z M90.2,61.5
		c0.3-0.3,0.6-0.5,1.1-0.5c0.5,0,0.9,0.2,1.1,0.6c0.2,0.4,0.3,0.9,0.3,1.6c0,0.8-0.1,1.3-0.4,1.7c-0.2,0.4-0.6,0.5-1.1,0.5
		c-0.3,0-0.5-0.1-0.7-0.2s-0.3-0.3-0.5-0.5c-0.1-0.2-0.2-0.4-0.3-0.7c-0.1-0.3-0.1-0.6-0.1-0.9C89.8,62.4,89.9,61.8,90.2,61.5
		 M88,64.7c0.1,0.5,0.4,0.9,0.6,1.2c0.3,0.3,0.6,0.6,1.1,0.8c0.4,0.2,0.9,0.3,1.5,0.3c1.1,0,1.9-0.3,2.5-1c0.6-0.7,0.9-1.6,0.9-2.8
		c0-0.6-0.1-1.1-0.2-1.6c-0.1-0.5-0.4-0.9-0.6-1.2c-0.3-0.3-0.6-0.6-1.1-0.8c-0.4-0.2-0.9-0.3-1.5-0.3c-1.1,0-1.9,0.3-2.5,1
		c-0.6,0.7-0.9,1.6-0.9,2.8C87.8,63.7,87.9,64.3,88,64.7 M84.6,61.5c0.2,0.3,0.3,0.8,0.3,1.5c0,0.9-0.1,1.5-0.4,1.9
		c-0.3,0.4-0.7,0.6-1.2,0.6c-0.3,0-0.5,0-0.6-0.1c-0.2-0.1-0.3-0.1-0.4-0.3v-3c0.1-0.4,0.3-0.6,0.5-0.8c0.2-0.2,0.5-0.3,0.9-0.3
		C84.1,60.9,84.4,61.1,84.6,61.5 M80.4,69.7h1.9v-3c0.2,0.1,0.4,0.2,0.6,0.2c0.2,0,0.4,0.1,0.7,0.1c0.5,0,1-0.1,1.4-0.3
		c0.4-0.2,0.8-0.4,1-0.8c0.3-0.3,0.5-0.8,0.6-1.3c0.1-0.5,0.2-1.1,0.2-1.7c0-1.3-0.2-2.2-0.7-2.8c-0.5-0.6-1.1-0.9-2-0.9
		c-0.5,0-0.9,0.1-1.3,0.3c-0.3,0.2-0.6,0.4-0.9,0.8h-0.1l-0.2-0.9h-1.4V69.7z M74.6,61.5c0.3-0.3,0.6-0.5,1.1-0.5
		c0.5,0,0.9,0.2,1.1,0.6c0.2,0.4,0.3,0.9,0.3,1.6c0,0.8-0.1,1.3-0.4,1.7c-0.2,0.4-0.6,0.5-1.1,0.5c-0.3,0-0.5-0.1-0.7-0.2
		s-0.3-0.3-0.5-0.5c-0.1-0.2-0.2-0.4-0.3-0.7c-0.1-0.3-0.1-0.6-0.1-0.9C74.2,62.4,74.3,61.8,74.6,61.5 M72.4,64.7
		c0.1,0.5,0.4,0.9,0.6,1.2c0.3,0.3,0.6,0.6,1.1,0.8c0.4,0.2,0.9,0.3,1.5,0.3c1.1,0,1.9-0.3,2.5-1c0.6-0.7,0.9-1.6,0.9-2.8
		c0-0.6-0.1-1.1-0.2-1.6c-0.1-0.5-0.4-0.9-0.6-1.2c-0.3-0.3-0.6-0.6-1.1-0.8c-0.4-0.2-0.9-0.3-1.5-0.3c-1.1,0-1.9,0.3-2.5,1
		c-0.6,0.7-0.9,1.6-0.9,2.8C72.2,63.7,72.3,64.3,72.4,64.7 M71.9,59.6h-4.7v7.3h1.9v-5.6h2.7V59.6z"/>
	<path fill="#93C149" d="M176.2,49.5c-0.5,0-0.9-0.1-1.2-0.2c-0.3-0.2-0.4-0.4-0.4-0.8c0-0.4,0.1-0.6,0.4-0.8c0.2-0.2,0.6-0.3,1-0.3
		c0.1,0,0.2,0,0.4,0c0.1,0,0.2,0.1,0.3,0.1v2L176.2,49.5z M176.7,53.2h1.9V46c-0.3-0.1-0.7-0.1-1.1-0.2c-0.4,0-0.8-0.1-1.3-0.1
		c-1.2,0-2.1,0.2-2.7,0.6c-0.6,0.4-0.9,1.1-0.9,1.9c0,0.6,0.2,1,0.5,1.4c0.3,0.4,0.7,0.6,1.2,0.7l-0.7,0.5l-1.4,2.3h2.2l1.4-2.6
		l0.9-0.2V53.2z M169.3,53.2h1.9V46H170l-2.6,3.4l-0.6,1h-0.1l0.1-1V46h-1.9v7.3h1.2l2.6-3.3l0.6-1.1h0l-0.1,1V53.2z M161.4,53.2
		h1.9V46h-1.9v2.7H159V46h-1.9v7.3h1.9v-2.9h2.4V53.2z M153.8,47.7c0.2,0.3,0.3,0.7,0.2,1.2h-2.7c0-0.5,0.2-0.9,0.4-1.2
		c0.2-0.3,0.6-0.4,1.1-0.4C153.3,47.3,153.6,47.4,153.8,47.7 M155,51.4c-0.2,0.1-0.4,0.2-0.7,0.4c-0.3,0.1-0.7,0.2-1.1,0.2
		c-0.6,0-1.1-0.2-1.4-0.5c-0.3-0.3-0.4-0.8-0.5-1.4h4.3c0-0.3,0.1-0.5,0.1-0.7c0-0.2,0-0.4,0-0.7c0-0.6-0.1-1-0.2-1.4
		c-0.2-0.4-0.4-0.7-0.7-0.9c-0.3-0.2-0.6-0.4-0.9-0.5c-0.3-0.1-0.7-0.1-1.1-0.1c-1.1,0-2,0.3-2.6,1c-0.6,0.6-0.9,1.6-0.9,2.9
		c0,1.2,0.3,2.1,0.8,2.8c0.5,0.7,1.4,1,2.6,1c0.6,0,1.1-0.1,1.6-0.2c0.5-0.2,0.9-0.4,1.2-0.6L155,51.4z M146.2,53.2h1.9V46h-1.9v2.7
		h-2.4V46H142v7.3h1.9v-2.9h2.4V53.2z M136.5,51.5c-0.2-0.2-0.2-0.4-0.2-0.6c0-0.2,0.1-0.4,0.2-0.5c0.1-0.1,0.3-0.2,0.5-0.3
		c0.2-0.1,0.5-0.1,0.7-0.1c0.3,0,0.6,0,0.9,0V51c-0.1,0.2-0.3,0.4-0.5,0.5c-0.2,0.2-0.5,0.3-0.9,0.3
		C136.9,51.8,136.7,51.7,136.5,51.5 M135.2,47.8c0.3-0.1,0.6-0.2,1-0.3c0.4-0.1,0.8-0.1,1.2-0.1c0.5,0,0.8,0.1,1,0.4
		c0.1,0.2,0.2,0.6,0.1,1.2c-0.6,0-1.2,0-1.7,0.1c-0.5,0.1-1,0.2-1.3,0.4c-0.4,0.2-0.7,0.4-0.9,0.7c-0.2,0.3-0.3,0.7-0.3,1.1
		c0,0.3,0.1,0.6,0.2,0.9c0.1,0.3,0.3,0.5,0.4,0.7c0.2,0.2,0.4,0.3,0.7,0.4c0.3,0.1,0.6,0.2,0.9,0.2c0.5,0,1-0.1,1.3-0.3
		c0.3-0.2,0.6-0.5,0.8-0.8h0.1l0.3,1h1.5c-0.1-0.3-0.2-0.7-0.2-1.1c0-0.4,0-0.8,0-1.2c0-0.4,0-0.8,0.1-1.3c0-0.4,0-0.9,0-1.3
		c0-0.4,0-0.7-0.1-1c-0.1-0.3-0.2-0.6-0.4-0.8c-0.2-0.2-0.5-0.4-0.8-0.5c-0.3-0.1-0.8-0.2-1.3-0.2c-0.6,0-1.1,0-1.7,0.2
		c-0.5,0.1-1,0.2-1.4,0.4L135.2,47.8z M131.2,47.9c0.2,0.3,0.3,0.8,0.3,1.5c0,0.9-0.1,1.5-0.4,1.9c-0.3,0.4-0.7,0.6-1.2,0.6
		c-0.3,0-0.5,0-0.6-0.1c-0.2-0.1-0.3-0.1-0.4-0.3v-3c0.1-0.4,0.3-0.6,0.5-0.8c0.2-0.2,0.5-0.3,0.9-0.3
		C130.7,47.4,131,47.5,131.2,47.9 M127,56.1h1.9v-3c0.2,0.1,0.4,0.2,0.6,0.2s0.4,0.1,0.7,0.1c0.5,0,1-0.1,1.4-0.3
		c0.4-0.2,0.8-0.4,1-0.8c0.3-0.3,0.5-0.8,0.6-1.3c0.1-0.5,0.2-1.1,0.2-1.7c0-1.3-0.2-2.2-0.7-2.8c-0.5-0.6-1.1-0.9-2-0.9
		c-0.5,0-0.9,0.1-1.3,0.3c-0.3,0.2-0.6,0.4-0.9,0.8h-0.1l-0.2-0.9H127V56.1z M118.7,53.2h2.1l1.1-1.7l0.5-1.1l0.4,1.1l1.1,1.7h2.2
		l-2.3-3.8l2.2-3.5h-2l-1,1.6l-0.4,1l-0.4-1l-0.9-1.6h-2.2l2.2,3.5L118.7,53.2z M113.9,47.9c0.3-0.3,0.6-0.5,1.1-0.5
		c0.5,0,0.9,0.2,1.1,0.6c0.2,0.4,0.3,0.9,0.3,1.6c0,0.8-0.1,1.3-0.4,1.7c-0.2,0.4-0.6,0.5-1.1,0.5c-0.3,0-0.5-0.1-0.7-0.2
		c-0.2-0.1-0.3-0.3-0.5-0.5c-0.1-0.2-0.2-0.4-0.3-0.7c-0.1-0.3-0.1-0.6-0.1-0.9C113.5,48.8,113.6,48.2,113.9,47.9 M111.7,51.1
		c0.1,0.5,0.4,0.9,0.6,1.2c0.3,0.3,0.6,0.6,1.1,0.8c0.4,0.2,0.9,0.3,1.5,0.3c1.1,0,1.9-0.3,2.5-1c0.6-0.7,0.9-1.6,0.9-2.8
		c0-0.6-0.1-1.1-0.2-1.6c-0.1-0.5-0.4-0.9-0.6-1.2c-0.3-0.3-0.6-0.6-1.1-0.8c-0.4-0.2-0.9-0.3-1.5-0.3c-1.1,0-1.9,0.3-2.5,1
		c-0.6,0.7-0.9,1.6-0.9,2.8C111.5,50.2,111.6,50.7,111.7,51.1 M106.1,47.9c0.3-0.3,0.6-0.5,1.1-0.5c0.5,0,0.9,0.2,1.1,0.6
		c0.2,0.4,0.3,0.9,0.3,1.6c0,0.8-0.1,1.3-0.4,1.7c-0.2,0.4-0.6,0.5-1.1,0.5c-0.3,0-0.5-0.1-0.7-0.2c-0.2-0.1-0.3-0.3-0.5-0.5
		c-0.1-0.2-0.2-0.4-0.3-0.7c-0.1-0.3-0.1-0.6-0.1-0.9C105.7,48.8,105.8,48.2,106.1,47.9 M103.9,51.1c0.1,0.5,0.4,0.9,0.6,1.2
		c0.3,0.3,0.6,0.6,1.1,0.8c0.4,0.2,0.9,0.3,1.5,0.3c1.1,0,1.9-0.3,2.5-1c0.6-0.7,0.9-1.6,0.9-2.8c0-0.6-0.1-1.1-0.2-1.6
		c-0.1-0.5-0.4-0.9-0.6-1.2c-0.3-0.3-0.6-0.6-1.1-0.8c-0.4-0.2-0.9-0.3-1.5-0.3c-1.1,0-1.9,0.3-2.5,1c-0.6,0.7-0.9,1.6-0.9,2.8
		C103.7,50.2,103.8,50.7,103.9,51.1 M98.6,48.9v-1.5c0.1,0,0.2,0,0.4,0c0.1,0,0.3,0,0.5,0c0.4,0,0.8,0.1,0.9,0.2
		c0.2,0.1,0.3,0.3,0.3,0.6c0,0.2-0.1,0.4-0.3,0.6c-0.2,0.2-0.5,0.2-0.8,0.2H98.6z M98.6,50.1h1c0.5,0,0.8,0.1,1,0.2
		c0.2,0.2,0.3,0.4,0.3,0.6c0,0.3-0.1,0.5-0.3,0.7c-0.2,0.1-0.6,0.2-1.1,0.2c-0.2,0-0.3,0-0.4,0c-0.1,0-0.2,0-0.4,0V50.1z M96.8,53.2
		c0.3,0,0.7,0.1,1.2,0.1s0.9,0,1.3,0c1.2,0,2.1-0.2,2.7-0.5s0.8-0.9,0.8-1.6c0-0.5-0.1-0.8-0.3-1.1c-0.2-0.3-0.6-0.5-1.1-0.6v-0.1
		c0.4-0.1,0.7-0.4,0.9-0.7c0.2-0.3,0.3-0.6,0.3-1c0-0.6-0.2-1.1-0.7-1.4c-0.4-0.3-1.2-0.5-2.3-0.5c-0.6,0-1.1,0-1.5,0
		c-0.5,0-0.9,0.1-1.2,0.1V53.2z M91.3,51.5c-0.2-0.2-0.2-0.4-0.2-0.6c0-0.2,0.1-0.4,0.2-0.5c0.1-0.1,0.3-0.2,0.5-0.3
		c0.2-0.1,0.5-0.1,0.7-0.1c0.3,0,0.6,0,0.9,0V51c-0.1,0.2-0.3,0.4-0.5,0.5c-0.2,0.2-0.5,0.3-0.9,0.3C91.6,51.8,91.4,51.7,91.3,51.5
		 M90,47.8c0.3-0.1,0.6-0.2,1-0.3c0.4-0.1,0.8-0.1,1.2-0.1c0.5,0,0.8,0.1,1,0.4c0.1,0.2,0.2,0.6,0.1,1.2c-0.6,0-1.2,0-1.7,0.1
		c-0.5,0.1-1,0.2-1.3,0.4c-0.4,0.2-0.7,0.4-0.9,0.7c-0.2,0.3-0.3,0.7-0.3,1.1c0,0.3,0.1,0.6,0.2,0.9c0.1,0.3,0.3,0.5,0.4,0.7
		c0.2,0.2,0.4,0.3,0.7,0.4c0.3,0.1,0.6,0.2,0.9,0.2c0.5,0,1-0.1,1.3-0.3c0.3-0.2,0.6-0.5,0.8-0.8h0.1l0.3,1h1.5
		c-0.1-0.3-0.2-0.7-0.2-1.1c0-0.4,0-0.8,0-1.2c0-0.4,0-0.8,0.1-1.3c0-0.4,0-0.9,0-1.3c0-0.4,0-0.7-0.1-1c-0.1-0.3-0.2-0.6-0.4-0.8
		c-0.2-0.2-0.5-0.4-0.8-0.5c-0.3-0.1-0.8-0.2-1.3-0.2c-0.6,0-1.1,0-1.7,0.2c-0.5,0.1-1,0.2-1.4,0.4L90,47.8z M86,47.9
		c0.2,0.3,0.3,0.8,0.3,1.5c0,0.9-0.1,1.5-0.4,1.9c-0.3,0.4-0.7,0.6-1.2,0.6c-0.3,0-0.5,0-0.6-0.1c-0.2-0.1-0.3-0.1-0.4-0.3v-3
		c0.1-0.4,0.3-0.6,0.5-0.8c0.2-0.2,0.5-0.3,0.9-0.3C85.4,47.4,85.8,47.5,86,47.9 M81.7,56.1h1.9v-3c0.2,0.1,0.4,0.2,0.6,0.2
		c0.2,0,0.4,0.1,0.7,0.1c0.5,0,1-0.1,1.4-0.3c0.4-0.2,0.8-0.4,1-0.8c0.3-0.3,0.5-0.8,0.6-1.3c0.1-0.5,0.2-1.1,0.2-1.7
		c0-1.3-0.2-2.2-0.7-2.8c-0.5-0.6-1.1-0.9-2-0.9c-0.5,0-0.9,0.1-1.3,0.3c-0.3,0.2-0.6,0.4-0.9,0.8h-0.1L83.1,46h-1.4V56.1z
		 M75.4,51.6c0.1-0.2,0.2-0.5,0.3-0.8s0.2-0.7,0.3-1c0.1-0.4,0.1-0.7,0.2-1.1c0-0.4,0.1-0.8,0.1-1.1h1.5v4.1H75.4z M80.7,51.5h-1.1
		V46h-5c0,0.9,0,1.7-0.1,2.3c-0.1,0.7-0.2,1.2-0.3,1.7c-0.1,0.4-0.2,0.8-0.4,1.1c-0.1,0.3-0.2,0.4-0.3,0.5h-0.9v3.3H74l0.2-1.7h4.9
		l0.2,1.7h1.4V51.5z M68.7,50.2c0.6,0,1,0.1,1.3,0.2c0.2,0.1,0.3,0.3,0.3,0.6c0,0.6-0.4,0.8-1.3,0.8c-0.4,0-0.7,0-1.1-0.1
		c-0.3-0.1-0.6-0.2-0.8-0.3l-0.4,1.5c0.3,0.1,0.6,0.3,1,0.4c0.4,0.1,0.9,0.2,1.4,0.2c0.5,0,1-0.1,1.4-0.2c0.4-0.1,0.7-0.3,1-0.5
		c0.3-0.2,0.4-0.4,0.6-0.7c0.1-0.3,0.2-0.6,0.2-0.9c0-0.5-0.1-0.9-0.3-1.2c-0.2-0.3-0.6-0.5-1.1-0.6v-0.1c0.2-0.1,0.4-0.2,0.5-0.3
		s0.3-0.3,0.4-0.4c0.1-0.2,0.2-0.3,0.2-0.5c0-0.2,0.1-0.3,0.1-0.5c0-0.6-0.2-1-0.6-1.3c-0.4-0.3-1-0.5-1.9-0.5
		c-0.5,0-1.1,0.1-1.5,0.2c-0.5,0.1-0.9,0.3-1.2,0.4l0.4,1.4c0.2-0.1,0.4-0.2,0.7-0.3c0.3-0.1,0.6-0.1,1-0.1c0.4,0,0.7,0.1,0.9,0.2
		c0.2,0.1,0.3,0.3,0.3,0.6c0,0.2-0.1,0.4-0.3,0.5c-0.2,0.1-0.5,0.2-0.8,0.2H68v1.3H68.7z"/>
	<path fill="#93C149" d="M150.3,32.4h-6V34h2v5.6h1.9V34h2V32.4z M141.5,39.6h1.9v-7.3h-1.9v2.7h-2.4v-2.7h-1.9v7.3h1.9v-2.9h2.4
		V39.6z M133.9,34.1c0.2,0.3,0.3,0.7,0.2,1.2h-2.7c0-0.5,0.2-0.9,0.4-1.2c0.2-0.3,0.6-0.4,1.1-0.4C133.4,33.7,133.7,33.8,133.9,34.1
		 M135.1,37.8c-0.2,0.1-0.4,0.2-0.7,0.4c-0.3,0.1-0.7,0.2-1.1,0.2c-0.6,0-1.1-0.2-1.4-0.5c-0.3-0.3-0.4-0.8-0.5-1.4h4.3
		c0-0.3,0.1-0.5,0.1-0.7c0-0.2,0-0.4,0-0.7c0-0.6-0.1-1-0.2-1.4c-0.2-0.4-0.4-0.7-0.7-0.9c-0.3-0.2-0.6-0.4-0.9-0.5
		c-0.3-0.1-0.7-0.1-1.1-0.1c-1.1,0-2,0.3-2.6,1c-0.6,0.6-0.9,1.6-0.9,2.9c0,1.2,0.3,2.1,0.8,2.8c0.5,0.7,1.4,1,2.6,1
		c0.6,0,1.1-0.1,1.6-0.2c0.5-0.2,0.9-0.4,1.2-0.6L135.1,37.8z M126.5,39.6h1.8v-7.3h-2l-1.5,2.7l-0.4,0.9h-0.1l-0.4-0.9l-1.7-2.7h-2
		v7.3h1.7v-3.3l-0.2-1.5h0.1l0.6,1.2l1.5,2.2h0.7l1.4-2.2l0.6-1.2h0.1l-0.1,1.5V39.6z M114.7,38c-0.2-0.2-0.2-0.4-0.2-0.6
		c0-0.2,0.1-0.4,0.2-0.5c0.1-0.1,0.3-0.2,0.5-0.3c0.2-0.1,0.5-0.1,0.7-0.1c0.3,0,0.6,0,0.9,0v0.9c-0.1,0.2-0.3,0.4-0.5,0.5
		c-0.2,0.2-0.5,0.3-0.9,0.3C115.1,38.2,114.9,38.1,114.7,38 M113.5,34.2c0.3-0.1,0.6-0.2,1-0.3c0.4-0.1,0.8-0.1,1.2-0.1
		c0.5,0,0.8,0.1,1,0.4c0.1,0.2,0.2,0.6,0.1,1.2c-0.6,0-1.2,0-1.7,0.1c-0.5,0.1-1,0.2-1.3,0.4c-0.4,0.2-0.7,0.4-0.9,0.7
		c-0.2,0.3-0.3,0.7-0.3,1.1c0,0.3,0.1,0.6,0.2,0.9c0.1,0.3,0.3,0.5,0.4,0.7c0.2,0.2,0.4,0.3,0.7,0.4c0.3,0.1,0.6,0.2,0.9,0.2
		c0.5,0,1-0.1,1.3-0.3c0.3-0.2,0.6-0.5,0.8-0.8h0.1l0.3,1h1.5c-0.1-0.3-0.2-0.7-0.2-1.1c0-0.4,0-0.8,0-1.2c0-0.4,0-0.8,0-1.3
		c0-0.4,0-0.9,0-1.3c0-0.4,0-0.7-0.1-1c-0.1-0.3-0.2-0.6-0.4-0.8c-0.2-0.2-0.5-0.4-0.8-0.5c-0.3-0.1-0.8-0.2-1.3-0.2
		c-0.6,0-1.1,0-1.7,0.2c-0.5,0.1-1,0.2-1.4,0.4L113.5,34.2z M112.2,32.4h-6V34h2v5.6h1.9V34h2V32.4z M103.5,34.3
		c0.2,0.3,0.3,0.8,0.3,1.5c0,0.9-0.1,1.5-0.4,1.9c-0.3,0.4-0.7,0.6-1.2,0.6c-0.3,0-0.5,0-0.6-0.1c-0.2-0.1-0.3-0.1-0.4-0.3v-3
		c0.1-0.4,0.3-0.6,0.5-0.8c0.2-0.2,0.5-0.3,0.9-0.3C103,33.8,103.3,33.9,103.5,34.3 M99.3,42.5h1.9v-3c0.2,0.1,0.4,0.2,0.6,0.2
		c0.2,0,0.4,0.1,0.7,0.1c0.5,0,1-0.1,1.4-0.3c0.4-0.2,0.8-0.4,1-0.8c0.3-0.3,0.5-0.8,0.6-1.3c0.1-0.5,0.2-1.1,0.2-1.7
		c0-1.3-0.2-2.2-0.7-2.8c-0.5-0.6-1.1-0.9-2-0.9c-0.5,0-0.9,0.1-1.3,0.3c-0.3,0.2-0.6,0.4-0.9,0.8h-0.1l-0.2-0.9h-1.4V42.5z
		 M93.8,38c-0.2-0.2-0.2-0.4-0.2-0.6c0-0.2,0.1-0.4,0.2-0.5c0.1-0.1,0.3-0.2,0.5-0.3c0.2-0.1,0.5-0.1,0.7-0.1c0.3,0,0.6,0,0.9,0v0.9
		c-0.1,0.2-0.3,0.4-0.5,0.5c-0.2,0.2-0.5,0.3-0.9,0.3C94.2,38.2,93.9,38.1,93.8,38 M92.5,34.2c0.3-0.1,0.6-0.2,1-0.3
		c0.4-0.1,0.8-0.1,1.2-0.1c0.5,0,0.8,0.1,1,0.4c0.1,0.2,0.2,0.6,0.1,1.2c-0.6,0-1.2,0-1.7,0.1c-0.5,0.1-1,0.2-1.3,0.4
		c-0.4,0.2-0.7,0.4-0.9,0.7c-0.2,0.3-0.3,0.7-0.3,1.1c0,0.3,0.1,0.6,0.2,0.9c0.1,0.3,0.3,0.5,0.4,0.7c0.2,0.2,0.4,0.3,0.7,0.4
		c0.3,0.1,0.6,0.2,0.9,0.2c0.5,0,1-0.1,1.3-0.3c0.3-0.2,0.6-0.5,0.8-0.8H96l0.3,1h1.5c-0.1-0.3-0.2-0.7-0.2-1.1c0-0.4,0-0.8,0-1.2
		c0-0.4,0-0.8,0.1-1.3c0-0.4,0-0.9,0-1.3c0-0.4,0-0.7-0.1-1c-0.1-0.3-0.2-0.6-0.4-0.8c-0.2-0.2-0.5-0.4-0.8-0.5
		c-0.3-0.1-0.8-0.2-1.3-0.2c-0.6,0-1.1,0-1.7,0.2c-0.5,0.1-1,0.2-1.4,0.4L92.5,34.2z M88.5,39.6h1.9v-7.3h-6.1v7.3h1.9V34h2.3V39.6z
		 M81,34.1c0.2,0.3,0.3,0.7,0.2,1.2h-2.7c0-0.5,0.2-0.9,0.4-1.2s0.6-0.4,1.1-0.4C80.5,33.7,80.8,33.8,81,34.1 M82.2,37.8
		c-0.2,0.1-0.4,0.2-0.7,0.4c-0.3,0.1-0.7,0.2-1.1,0.2c-0.6,0-1.1-0.2-1.4-0.5c-0.3-0.3-0.4-0.8-0.5-1.4h4.3c0-0.3,0.1-0.5,0.1-0.7
		c0-0.2,0-0.4,0-0.7c0-0.6-0.1-1-0.2-1.4c-0.2-0.4-0.4-0.7-0.7-0.9c-0.3-0.2-0.6-0.4-0.9-0.5c-0.3-0.1-0.7-0.1-1.1-0.1
		c-1.1,0-2,0.3-2.6,1c-0.6,0.6-0.9,1.6-0.9,2.9c0,1.2,0.3,2.1,0.8,2.8c0.5,0.7,1.4,1,2.6,1c0.6,0,1.1-0.1,1.6-0.2
		c0.5-0.2,0.9-0.4,1.2-0.6L82.2,37.8z M69.6,37.8c0.2-0.5,0.4-1.3,0.7-2.4c0.2-1.1,0.4-2.5,0.4-4.2h2.2v6.6H69.6z M76.2,37.8h-1.3
		v-8.4h-6.1c0,1.4,0,2.6-0.1,3.6c-0.1,1-0.2,1.9-0.4,2.5c-0.2,0.7-0.3,1.2-0.5,1.6c-0.2,0.4-0.3,0.6-0.3,0.7h-1.1v3.6h1.4l0.2-1.8
		h6.5l0.2,1.8h1.4V37.8z"/>
	<path fill="#93C149" d="M41,73.2l-0.6-0.5c-1-0.9-3.2-2.4-5.6-2.4h-6.1c-3.6,0-7.3-2.2-7.3-6.4V26.8h39.1v37.2
		c0,4.2-3.7,6.4-7.3,6.4h-6.1c-2.4,0-4.5,1.5-5.6,2.4L41,73.2z M23.2,28.6v35.4c0,3.1,2.8,4.7,5.5,4.7h6.1c2.6,0,4.8,1.3,6.1,2.3
		c1.3-1,3.6-2.3,6.1-2.3h6.1c2.7,0,5.5-1.6,5.5-4.7V28.6H23.2z"/>
	<g>
		<path fill="#75B8E5" d="M25,49.7c1.6,0,1.5,0.8,1.8,1.6c0-0.5,0.2-0.8,0.5-1.1l0-0.2c0.2-7.8,9.9-17.4,21.1-19.8H25V49.7z"/>
		<path fill="#75B8E5" d="M55.4,30.3c0.4,0.3,0.3,0.7-0.1,1c-0.8,0.6-7.8,5.5-1.7,16.9c0.1,0.2,0.2,0.3,0.3,0.5
			c1.4-0.6,3.1,0.3,3.1,1V30.3H55.4z"/>
	</g>
	<path fill="#93C149" d="M50.1,38.2c0.4-2.7,1.4-4.5,2.3-5.7c1-1.3,1.7-1.2,1.5-1.6c-0.1-0.2-1.3-0.3-2.6-0.1
		c-3.1,0.5-8,1.9-12.7,4.9c-7.8,4.9-12.8,13.8-9.8,19.6c1.8,3.5,4.6,3.9,6.7,3.6c0,0,1.4,4.2,6.3,8C41.9,67,42,67,42,67
		c0.2-0.1-0.3-0.5-0.6-0.9c-1.1-1.2-2.4-2.8-3.2-4.6c-1-2.2-2.7-6.1-1.1-13c0.8-3.4,2.3-6.1,3.6-8c0.2-0.2,0.4-0.5,0.5-0.7
		c0.8-1,0.7-0.5,0.6-0.4c-0.1,0.2-0.3,0.6-0.5,0.9C41,41.2,40.5,42.4,40,44c-1.8,5.6-0.2,9.4-0.2,9.4l1.8-3.1
		c0.9-1.6,2.3-3.1,3.6-4.2c0.3-0.2,1.1-0.9,1.2-0.9c0.1,0,0.2,0-0.1,0.4c-1.1,1.3-2.7,3.7-3.6,6.3c-0.3,0.9-0.4,1.7-0.5,2.6
		c1.5-0.2,1,1.6,0,2.6c0.3,2.5,1.5,4.5,3.9,5.1c4.6,1.1,7.8-2.2,7.9-7.4C54.1,48.6,49.2,44.2,50.1,38.2z M42.7,47
		c-0.4,1-1.1,1.3-1.5,1.1c-0.3-0.1-1-0.5-0.6-1.7c0.4-1.2,1.4-1.5,1.8-1.3C42.8,45.3,43,46,42.7,47z"/>
	<path fill="#E11F26" d="M41.3,55c2-0.9,1,1.8,0,2C40.5,56.7,39.6,53.8,41.3,55"/>
	<g>
		<path fill="#DEB408" d="M38.7,65.4c-2-1.1-3.2-3.6-3.8-4.9c-0.5,0-1.5,0.2-2.6,0.6c-0.4-0.5-0.7-1.1-0.9-1.5c-0.7,0-4.5,1-5.4,2.1
			c0.4,0.6,0.6,0.7,0.9,1c0.3-0.1,0.9-0.2,1.6-0.3c-1.4,0.6-2.6,1.4-3.2,2.2c0.8,1.2,0.8,1.3,1.5,2c1.1-0.3,3.7-0.6,6.4-0.9
			c-0.6,0.4-1.2,0.8-1.4,1.2c0.5,0.5,0.7,0.6,1.1,0.9c0.9-0.4,4.6-1.4,6.2-1.6c-0.5-0.2-0.9-0.5-1.2-0.8
			C38.1,65.4,38.4,65.4,38.7,65.4z"/>
		<path fill="#DEB408" d="M57.1,61.6c-1.5,0-12.9,2.4-14.8,4c0.8,0.8,1.2,1,1.9,1.4c0.9-0.2,2.9-0.4,5.1-0.6c-0.5,0.3-0.8,0.7-1,1
			c0.5,0.5,0.7,0.6,1.1,0.9c0.9-0.4,4.6-1.4,6.2-1.6c-0.4-0.1-0.7-0.4-1-0.6c0.6,0,1.1,0,1.5-0.1C56.7,65.5,57.1,62.9,57.1,61.6z"/>
	</g>
</g>
</svg>
