<svg id="Layer_1" data-name="Layer 1" xmlns="http://www.w3.org/2000/svg" viewBox="0 0 395.2 166.63"><defs><style>.cls-1{fill:#358e43;}.cls-2{fill:#e34d25;}.cls-3{fill:#231f20;}</style></defs><title>Логотип НИИ</title><polygon class="cls-1" points="83.32 101.72 66.48 118.56 26.68 130.68 0 157.36 0 166.63 83.32 166.63 83.32 121.39 74.04 130.66 74.04 157.36 13.11 157.36 31.6 138.88 71.4 126.75 83.32 114.83 83.32 101.72"/><path class="cls-2" d="M111.5,148,71.7,160.07l-10,10V51.23A38.38,38.38,0,0,1,90.09,69.57l4,6.52,4-6.52a38.37,38.37,0,0,1,28.42-18.34v75.22l9.28-9.28V41.68h-4.64a47.56,47.56,0,0,0-37,17.47A47.56,47.56,0,0,0,57,41.68H52.4v150.8l24.22-24.21,39.8-12.13,19.3-19.3V123.73Z" transform="translate(-52.4 -41.68)"/><polygon class="cls-3" points="117.06 16.82 106.01 16.82 106.01 27.38 103.28 27.38 103.28 4.36 106.01 4.36 106.01 14.39 117.06 14.39 117.06 4.36 119.79 4.36 119.79 27.38 117.06 27.38 117.06 16.82"/><polygon class="cls-3" points="139.46 11.79 139.66 9.16 139.53 9.16 138.11 11.86 126.99 27.38 125.38 27.38 125.38 4.36 128.11 4.36 128.11 20.15 127.88 22.75 128.01 22.75 129.46 20.05 140.58 4.36 142.19 4.36 142.19 27.38 139.46 27.38 139.46 11.79"/><polygon class="cls-3" points="161.86 11.79 162.06 9.16 161.93 9.16 160.51 11.86 149.39 27.38 147.78 27.38 147.78 4.36 150.51 4.36 150.51 20.15 150.28 22.75 150.41 22.75 151.86 20.05 162.98 4.36 164.59 4.36 164.59 27.38 161.86 27.38 161.86 11.79"/><path class="cls-3" d="M154.72,91.49q0-5.76,2.44-8.84a8.32,8.32,0,0,1,6.94-3.07,9.64,9.64,0,0,1,4.21.85,8,8,0,0,1,2.94,2.42A10.63,10.63,0,0,1,173,86.6a19.91,19.91,0,0,1,.56,4.89c0,3.83-.82,6.78-2.45,8.83a8.43,8.43,0,0,1-7,3.07,9.42,9.42,0,0,1-4.16-.85,7.92,7.92,0,0,1-2.93-2.42,10.46,10.46,0,0,1-1.73-3.75,19.89,19.89,0,0,1-.56-4.88m2.9,0A16.18,16.18,0,0,0,158,95.1a9.79,9.79,0,0,0,1.16,3,6.22,6.22,0,0,0,2,2.08,5.4,5.4,0,0,0,2.91.77,5.66,5.66,0,0,0,4.8-2.32q1.74-2.33,1.74-7.15a16.37,16.37,0,0,0-.38-3.61,9.39,9.39,0,0,0-1.18-3,6.31,6.31,0,0,0-2-2.07A5.37,5.37,0,0,0,164.1,82a5.64,5.64,0,0,0-4.76,2.32c-1.15,1.55-1.72,3.93-1.72,7.16" transform="translate(-52.4 -41.68)"/><path class="cls-3" d="M178.17,80.2a17,17,0,0,1,2.7-.39c1-.07,1.92-.1,2.86-.1a16.31,16.31,0,0,1,3.08.3,8.06,8.06,0,0,1,2.84,1.08,6,6,0,0,1,2.09,2.17,6.89,6.89,0,0,1,.81,3.52,7.49,7.49,0,0,1-.76,3.55,6.67,6.67,0,0,1-2,2.36,8.35,8.35,0,0,1-2.87,1.3,14,14,0,0,1-3.32.39h-.54c-.25,0-.52,0-.79,0s-.54,0-.81,0l-.55-.06V103h-2.74Zm5.63,1.88q-.86,0-1.65,0a5.2,5.2,0,0,0-1.24.17v9.53a1.43,1.43,0,0,0,.52.09l.76,0,.75,0h.53a11,11,0,0,0,2.22-.22,5.7,5.7,0,0,0,2-.77,4.07,4.07,0,0,0,1.43-1.58,5.54,5.54,0,0,0,.54-2.6,4.51,4.51,0,0,0-.51-2.25,4.16,4.16,0,0,0-1.34-1.45,5.66,5.66,0,0,0-1.89-.77,10.17,10.17,0,0,0-2.11-.23" transform="translate(-52.4 -41.68)"/><polygon class="cls-3" points="156.5 40.72 146.89 40.72 146.89 61.31 144.16 61.31 144.16 38.29 156.5 38.29 156.5 40.72"/><path class="cls-3" d="M219.8,96.62h-8.45L209.06,103h-2.73l8.72-23.39h1.25L225.05,103h-2.9Zm-7.56-2.37H219l-2.56-7-.81-3.48h0l-.81,3.55Z" transform="translate(-52.4 -41.68)"/><polygon class="cls-3" points="189.49 50.76 178.44 50.76 178.44 61.31 175.71 61.31 175.71 38.29 178.44 38.29 178.44 48.32 189.49 48.32 189.49 38.29 192.22 38.29 192.22 61.31 189.49 61.31 189.49 50.76"/><polygon class="cls-3" points="211.89 45.72 212.09 43.09 211.96 43.09 210.54 45.79 199.42 61.31 197.81 61.31 197.81 38.29 200.54 38.29 200.54 54.08 200.31 56.68 200.44 56.68 201.89 53.98 213.01 38.29 214.62 38.29 214.62 61.31 211.89 61.31 211.89 45.72"/><path class="cls-3" d="M274.39,92.11v-2.3h1.25l.87,0c.3,0,.58,0,.85,0a3,3,0,0,0,.68-.09,6.6,6.6,0,0,0,1.61-.44,4.87,4.87,0,0,0,1.32-.81,3.68,3.68,0,0,0,.88-1.15,3.17,3.17,0,0,0,.33-1.44,4,4,0,0,0-.36-1.81,2.93,2.93,0,0,0-1-1.17,4,4,0,0,0-1.48-.63,8.55,8.55,0,0,0-1.79-.18,15.41,15.41,0,0,0-3,.25,8.47,8.47,0,0,0-2,.61l-.72-2.17a9.94,9.94,0,0,1,2.37-.74,18,18,0,0,1,3.85-.38,11.79,11.79,0,0,1,2.58.28,6.82,6.82,0,0,1,2.27.92,4.82,4.82,0,0,1,1.61,1.74,5.64,5.64,0,0,1,.61,2.72A5.25,5.25,0,0,1,284,88.38a6,6,0,0,1-3.25,2.15v.13a6.06,6.06,0,0,1,3.68,1.75,5.24,5.24,0,0,1,1.35,3.78,6.74,6.74,0,0,1-.74,3.24,6.83,6.83,0,0,1-1.94,2.25,8,8,0,0,1-2.77,1.3,12.15,12.15,0,0,1-3.17.41,21.73,21.73,0,0,1-3.57-.24,13,13,0,0,1-2.32-.61l.69-2.44a9,9,0,0,0,2.12.61,19.42,19.42,0,0,0,3.31.25,7.23,7.23,0,0,0,2-.28,5.45,5.45,0,0,0,1.76-.86,4.54,4.54,0,0,0,1.25-1.43,4.21,4.21,0,0,0,.47-2,3.41,3.41,0,0,0-1.44-3,7.68,7.68,0,0,0-3.79-1.13c-.26,0-.51,0-.74-.05l-.7,0Z" transform="translate(-52.4 -41.68)"/><path class="cls-3" d="M301.34,96.62h-8.45L290.6,103h-2.73l8.72-23.39h1.25L306.59,103h-2.9Zm-7.56-2.37h6.74l-2.55-7-.82-3.48h0l-.82,3.55Z" transform="translate(-52.4 -41.68)"/><polygon class="cls-3" points="276.13 65.56 274.25 65.56 273.76 61.31 257.25 61.31 257.25 38.29 259.98 38.29 259.98 58.88 270.34 58.88 270.34 38.29 273.07 38.29 273.07 58.88 276.13 58.88 276.13 65.56"/><polygon class="cls-3" points="293.92 45.72 294.12 43.09 293.99 43.09 292.57 45.79 281.46 61.31 279.85 61.31 279.85 38.29 282.58 38.29 282.58 54.08 282.35 56.68 282.48 56.68 283.92 53.98 295.04 38.29 296.65 38.29 296.65 61.31 293.92 61.31 293.92 45.72"/><polygon class="cls-3" points="316.32 45.72 316.52 43.09 316.39 43.09 314.98 45.79 303.86 61.31 302.25 61.31 302.25 38.29 304.98 38.29 304.98 54.08 304.75 56.68 304.88 56.68 306.32 53.98 317.44 38.29 319.06 38.29 319.06 61.31 316.32 61.31 316.32 45.72"/><path class="cls-3" d="M157.45,126v-2.3h1.25q.44,0,.87,0l.86,0a3.61,3.61,0,0,0,.67-.08,7.18,7.18,0,0,0,1.62-.45,4.89,4.89,0,0,0,1.31-.8,4,4,0,0,0,.89-1.15,3.22,3.22,0,0,0,.33-1.45,4,4,0,0,0-.36-1.81,3.18,3.18,0,0,0-1-1.17,3.94,3.94,0,0,0-1.48-.62,7.87,7.87,0,0,0-1.79-.18,16.45,16.45,0,0,0-3,.24,8.86,8.86,0,0,0-2,.61l-.73-2.17a9.94,9.94,0,0,1,2.37-.74,18,18,0,0,1,3.85-.38,11.66,11.66,0,0,1,2.58.28,7,7,0,0,1,2.27.92,4.74,4.74,0,0,1,1.61,1.74,5.53,5.53,0,0,1,.61,2.72,5.28,5.28,0,0,1-1.08,3.14,6,6,0,0,1-3.26,2.15v.14a6.11,6.11,0,0,1,3.69,1.74,5.27,5.27,0,0,1,1.34,3.78,6.63,6.63,0,0,1-.74,3.24,6.85,6.85,0,0,1-1.94,2.26,8,8,0,0,1-2.76,1.29,12.16,12.16,0,0,1-3.17.42,21.58,21.58,0,0,1-3.57-.25,12.57,12.57,0,0,1-2.32-.61L155,134a9.43,9.43,0,0,0,2.12.6,18.37,18.37,0,0,0,3.31.25,7.16,7.16,0,0,0,2-.28,5.23,5.23,0,0,0,1.76-.85,4.52,4.52,0,0,0,1.25-1.43,4.13,4.13,0,0,0,.48-2,3.41,3.41,0,0,0-1.45-3,7.71,7.71,0,0,0-3.78-1.13l-.74,0-.71,0Z" transform="translate(-52.4 -41.68)"/><path class="cls-3" d="M191.76,141.17h-1.88l-.49-4.24H173.24l-.49,4.24h-1.91V134.5h2.33a9.41,9.41,0,0,0,.81-1.7,25.78,25.78,0,0,0,1.09-3.81q.54-2.49,1-6.22a80.59,80.59,0,0,0,.42-8.86h12.31V134.5h3ZM186,134.5V116.34h-7c-.07,2.41-.19,4.58-.38,6.51s-.41,3.64-.67,5.12a33.92,33.92,0,0,1-.89,3.83,19.89,19.89,0,0,1-1,2.7Z" transform="translate(-52.4 -41.68)"/><path class="cls-3" d="M195.48,114.14a16.7,16.7,0,0,1,2.69-.4c1-.06,1.92-.1,2.87-.1a16.28,16.28,0,0,1,3.07.3A8.6,8.6,0,0,1,207,115,6.05,6.05,0,0,1,209,117.2a6.86,6.86,0,0,1,.81,3.51,7.56,7.56,0,0,1-.76,3.56,6.64,6.64,0,0,1-2,2.35,8.39,8.39,0,0,1-2.86,1.3,14.18,14.18,0,0,1-3.33.39h-1.33l-.8-.05a4.79,4.79,0,0,1-.56-.07v8.75h-2.73ZM201.1,116c-.57,0-1.12,0-1.64,0a5.78,5.78,0,0,0-1.25.17v9.54a1.76,1.76,0,0,0,.52.08l.76,0,.76,0h.52a11,11,0,0,0,2.22-.22,5.7,5.7,0,0,0,2-.77,4.07,4.07,0,0,0,1.43-1.58,5.51,5.51,0,0,0,.55-2.6,4.54,4.54,0,0,0-.51-2.25A4.18,4.18,0,0,0,205.1,117a5.87,5.87,0,0,0-1.89-.77,10.17,10.17,0,0,0-2.11-.23" transform="translate(-52.4 -41.68)"/><path class="cls-3" d="M222.72,130.55h-8.44L212,136.93h-2.73L218,113.54h1.26L228,136.93h-2.9Zm-7.56-2.37h6.75l-2.56-7-.82-3.49h0l-.82,3.55Z" transform="translate(-52.4 -41.68)"/><path class="cls-3" d="M244.91,119.17a5.54,5.54,0,0,1-.26,1.68,5.38,5.38,0,0,1-.79,1.59,5.24,5.24,0,0,1-1.35,1.3,6.27,6.27,0,0,1-1.94.86v.13a7.63,7.63,0,0,1,1.89.56,5,5,0,0,1,1.6,1.08,5.43,5.43,0,0,1,1.12,1.68,5.94,5.94,0,0,1,.43,2.33,6.16,6.16,0,0,1-.74,3.08,6.4,6.4,0,0,1-2,2.12,8.43,8.43,0,0,1-2.74,1.22,12.84,12.84,0,0,1-3.16.39H235.7c-.5,0-1,0-1.57-.05s-1.1-.07-1.65-.13a8.94,8.94,0,0,1-1.45-.24V114.1c.81-.13,1.76-.24,2.83-.33s2.25-.13,3.52-.13a15.7,15.7,0,0,1,2.62.22,7.09,7.09,0,0,1,2.41.82,5,5,0,0,1,1.8,1.69,5.08,5.08,0,0,1,.7,2.8M235.47,124c.38,0,.83,0,1.35,0s1,0,1.32-.09a9,9,0,0,0,1.48-.65,5.83,5.83,0,0,0,1.23-.88,3.9,3.9,0,0,0,.86-1.19,3.42,3.42,0,0,0,.31-1.46,3.54,3.54,0,0,0-.41-1.79,3.25,3.25,0,0,0-1.1-1.14,4.91,4.91,0,0,0-1.58-.61,9.11,9.11,0,0,0-1.81-.18c-.73,0-1.39,0-2,0a8.68,8.68,0,0,0-1.37.15V124Zm1.81,10.79a8.57,8.57,0,0,0,2-.25,5.27,5.27,0,0,0,1.75-.79,4.23,4.23,0,0,0,1.2-1.33,3.84,3.84,0,0,0,.44-1.88,3.9,3.9,0,0,0-.54-2.17,3.8,3.8,0,0,0-1.42-1.28,6,6,0,0,0-1.95-.63,14.5,14.5,0,0,0-2.17-.16h-2.87v8.26a4,4,0,0,0,.66.09l.92.07,1,.05.92,0" transform="translate(-52.4 -41.68)"/><path class="cls-3" d="M249.29,125.42q0-5.76,2.43-8.83a8.35,8.35,0,0,1,6.94-3.08,9.58,9.58,0,0,1,4.21.86,7.88,7.88,0,0,1,2.95,2.41,10.71,10.71,0,0,1,1.73,3.75,19.93,19.93,0,0,1,.55,4.89c0,3.84-.81,6.78-2.45,8.83a8.41,8.41,0,0,1-7,3.08,9.45,9.45,0,0,1-4.16-.86,7.88,7.88,0,0,1-2.92-2.42,10.46,10.46,0,0,1-1.73-3.75,19.36,19.36,0,0,1-.56-4.88m2.89,0a16.88,16.88,0,0,0,.38,3.62,9.74,9.74,0,0,0,1.17,3,6.35,6.35,0,0,0,2,2.07,5.45,5.45,0,0,0,2.91.77,5.69,5.69,0,0,0,4.81-2.32c1.16-1.54,1.74-3.93,1.74-7.15a16.9,16.9,0,0,0-.38-3.6,9.78,9.78,0,0,0-1.18-3,6.31,6.31,0,0,0-2-2.07,5.41,5.41,0,0,0-2.95-.77,5.61,5.61,0,0,0-4.75,2.31q-1.72,2.33-1.73,7.16" transform="translate(-52.4 -41.68)"/><path class="cls-3" d="M271.79,125.42q0-5.76,2.43-8.83a8.34,8.34,0,0,1,6.94-3.08,9.58,9.58,0,0,1,4.21.86,7.88,7.88,0,0,1,2.95,2.41,10.53,10.53,0,0,1,1.72,3.75,19.44,19.44,0,0,1,.56,4.89c0,3.84-.81,6.78-2.45,8.83a8.41,8.41,0,0,1-7,3.08,9.45,9.45,0,0,1-4.16-.86,8,8,0,0,1-2.93-2.42,10.62,10.62,0,0,1-1.72-3.75,19.36,19.36,0,0,1-.56-4.88m2.89,0a16.88,16.88,0,0,0,.38,3.62,9.74,9.74,0,0,0,1.17,3,6.25,6.25,0,0,0,2,2.07,5.4,5.4,0,0,0,2.91.77,5.69,5.69,0,0,0,4.81-2.32c1.16-1.54,1.74-3.93,1.74-7.15a16.9,16.9,0,0,0-.38-3.6,9.78,9.78,0,0,0-1.18-3,6.31,6.31,0,0,0-2-2.07,5.43,5.43,0,0,0-2.95-.77,5.6,5.6,0,0,0-4.75,2.31q-1.73,2.33-1.73,7.16" transform="translate(-52.4 -41.68)"/><polygon class="cls-3" points="247.68 83.54 240.67 72.22 243.96 72.22 248.63 80.02 249.45 81.89 250.24 80.02 255.18 72.22 258.2 72.22 250.97 83.31 258.53 95.25 255.34 95.25 250.14 86.99 249.26 85.02 248.4 86.99 243.07 95.25 240.01 95.25 247.68 83.54"/><path class="cls-3" d="M314.68,114.14a16.66,16.66,0,0,1,2.7-.4c1-.06,1.92-.1,2.86-.1a16.39,16.39,0,0,1,3.08.3,8.46,8.46,0,0,1,2.84,1.08,6.16,6.16,0,0,1,2.09,2.18,6.86,6.86,0,0,1,.8,3.51,7.68,7.68,0,0,1-.75,3.56,6.77,6.77,0,0,1-2,2.35,8.3,8.3,0,0,1-2.86,1.3,14,14,0,0,1-3.32.39h-1.34l-.8-.05a5.49,5.49,0,0,1-.56-.07v8.75h-2.73ZM320.3,116c-.57,0-1.11,0-1.64,0a5.88,5.88,0,0,0-1.25.17v9.54a1.9,1.9,0,0,0,.53.08l.75,0,.76,0H320a11.14,11.14,0,0,0,2.22-.22,5.85,5.85,0,0,0,2-.77,4.15,4.15,0,0,0,1.43-1.58,5.51,5.51,0,0,0,.54-2.6,4.54,4.54,0,0,0-.51-2.25A4.18,4.18,0,0,0,324.3,117a5.87,5.87,0,0,0-1.89-.77,10,10,0,0,0-2.11-.23" transform="translate(-52.4 -41.68)"/><path class="cls-3" d="M341.93,130.55h-8.45l-2.29,6.38h-2.73l8.72-23.39h1.25l8.75,23.39h-2.9Zm-7.56-2.37h6.74l-2.55-7-.82-3.49h0l-.82,3.55Z" transform="translate(-52.4 -41.68)"/><polygon class="cls-3" points="311.62 84.69 300.57 84.69 300.57 95.25 297.84 95.25 297.84 72.22 300.57 72.22 300.57 82.25 311.62 82.25 311.62 72.22 314.35 72.22 314.35 95.25 311.62 95.25 311.62 84.69"/><polygon class="cls-3" points="319.94 72.22 332.48 72.22 332.48 74.66 322.67 74.66 322.67 82.19 331.65 82.19 331.65 84.62 322.67 84.62 322.67 92.81 332.64 92.81 332.64 95.25 319.94 95.25 319.94 72.22"/><polygon class="cls-3" points="351.36 84.69 340.3 84.69 340.3 95.25 337.57 95.25 337.57 72.22 340.3 72.22 340.3 82.25 351.36 82.25 351.36 72.22 354.08 72.22 354.08 95.25 351.36 95.25 351.36 84.69"/><polygon class="cls-3" points="373.76 79.66 373.95 77.02 373.82 77.02 372.41 79.72 361.29 95.25 359.68 95.25 359.68 72.22 362.41 72.22 362.41 88.01 362.18 90.61 362.31 90.61 363.76 87.91 374.87 72.22 376.49 72.22 376.49 95.25 373.76 95.25 373.76 79.66"/><path class="cls-3" d="M447.6,136.93h-2.73v-10l-3.39.72-5.72,9.31h-3.22l5.13-8.19,2-1.41a8.74,8.74,0,0,1-2.18-.81,6.36,6.36,0,0,1-1.75-1.38,6.26,6.26,0,0,1-1.15-2,7.47,7.47,0,0,1-.41-2.56,7.32,7.32,0,0,1,.68-3.34,5.55,5.55,0,0,1,1.84-2.14,7.63,7.63,0,0,1,2.73-1.15,15.25,15.25,0,0,1,3.3-.35c.75,0,1.54,0,2.39.1a15.83,15.83,0,0,1,2.48.4Zm-5-20.92a10,10,0,0,0-2.07.21,5.05,5.05,0,0,0-1.76.74,3.77,3.77,0,0,0-1.23,1.42,4.8,4.8,0,0,0-.46,2.24,4.65,4.65,0,0,0,.44,2.13,4.22,4.22,0,0,0,1.2,1.47,5,5,0,0,0,1.76.84,8.73,8.73,0,0,0,2.15.26h2.24v-9.11a7.24,7.24,0,0,0-.95-.15c-.33,0-.77,0-1.32,0" transform="translate(-52.4 -41.68)"/><polygon class="cls-3" points="117.36 113.23 117.55 110.59 117.42 110.59 116.01 113.29 104.89 128.82 103.28 128.82 103.28 105.79 106.01 105.79 106.01 121.58 105.78 124.18 105.91 124.18 107.36 121.48 118.47 105.79 120.08 105.79 120.08 128.82 117.36 128.82 117.36 113.23"/><polygon class="cls-3" points="152.16 113.36 152.49 109.9 152.32 109.9 151.07 113.06 145.08 123.46 144.26 123.46 137.91 113.03 136.73 109.9 136.56 109.9 137.02 113.33 137.02 128.82 134.46 128.82 134.46 105.79 136.5 105.79 143.7 117.57 144.79 120.13 144.85 120.13 145.87 117.5 152.75 105.79 154.89 105.79 154.89 128.82 152.16 128.82 152.16 113.36"/><polygon class="cls-3" points="160.48 105.79 173.01 105.79 173.01 108.23 163.21 108.23 163.21 115.76 172.19 115.76 172.19 118.19 163.21 118.19 163.21 126.38 173.18 126.38 173.18 128.82 160.48 128.82 160.48 105.79"/><path class="cls-3" d="M248.8,174.74h-1.88l-.49-4.24H230.28l-.5,4.24h-1.9v-6.67h2.33a9.41,9.41,0,0,0,.81-1.7,24.44,24.44,0,0,0,1.08-3.81c.36-1.66.69-3.73,1-6.22a78,78,0,0,0,.43-8.86h12.3v20.59h3Zm-5.73-6.67V149.91h-7q-.1,3.61-.38,6.51c-.19,1.93-.41,3.64-.68,5.12a34.1,34.1,0,0,1-.88,3.83,18.13,18.13,0,0,1-1,2.7Z" transform="translate(-52.4 -41.68)"/><polygon class="cls-3" points="214.19 113.23 214.39 110.59 214.26 110.59 212.84 113.29 201.72 128.82 200.11 128.82 200.11 105.79 202.84 105.79 202.84 121.58 202.61 124.18 202.75 124.18 204.19 121.48 215.31 105.79 216.92 105.79 216.92 128.82 214.19 128.82 214.19 113.23"/><polygon class="cls-3" points="241.4 133.06 239.52 133.06 239.03 128.82 222.51 128.82 222.51 105.79 225.24 105.79 225.24 126.38 235.61 126.38 235.61 105.79 238.34 105.79 238.34 126.38 241.4 126.38 241.4 133.06"/><polygon class="cls-3" points="259.19 113.23 259.39 110.59 259.26 110.59 257.84 113.29 246.72 128.82 245.11 128.82 245.11 105.79 247.84 105.79 247.84 121.58 247.61 124.18 247.74 124.18 249.19 121.48 260.31 105.79 261.92 105.79 261.92 128.82 259.19 128.82 259.19 113.23"/><polygon class="cls-3" points="281.29 118.26 270.24 118.26 270.24 128.82 267.51 128.82 267.51 105.79 270.24 105.79 270.24 115.83 281.29 115.83 281.29 105.79 284.02 105.79 284.02 128.82 281.29 128.82 281.29 118.26"/><path class="cls-3" d="M356.75,169.55a6,6,0,0,1-2.5,1,16.54,16.54,0,0,1-3.22.3,10.57,10.57,0,0,1-3.88-.71A8.42,8.42,0,0,1,344,168a10.31,10.31,0,0,1-2.14-3.7,16.07,16.07,0,0,1-.79-5.34,15.25,15.25,0,0,1,.87-5.48,10.34,10.34,0,0,1,2.31-3.68,8.78,8.78,0,0,1,3.2-2.09,10.34,10.34,0,0,1,3.62-.66,18.77,18.77,0,0,1,3.22.22,10.13,10.13,0,0,1,2.14.57l-.65,2.43a10.47,10.47,0,0,0-4.51-.78,7.55,7.55,0,0,0-2.67.49,6.23,6.23,0,0,0-2.35,1.61,8.25,8.25,0,0,0-1.66,2.93A13.62,13.62,0,0,0,344,159a12.92,12.92,0,0,0,.59,4.14,8.33,8.33,0,0,0,1.63,3,6.71,6.71,0,0,0,2.43,1.78,7.63,7.63,0,0,0,3,.59,10.31,10.31,0,0,0,2.58-.29,7,7,0,0,0,1.86-.76Z" transform="translate(-52.4 -41.68)"/><polygon class="cls-3" points="312.67 118.16 311.13 118.16 311.13 128.82 308.4 128.82 308.4 105.79 311.13 105.79 311.13 116.52 312.61 116.06 320.34 105.79 323.5 105.79 315.8 115.69 314.42 116.78 316.09 118.09 324.51 128.82 321.06 128.82 312.67 118.16"/><path class="cls-3" d="M379.58,159q0-5.76,2.43-8.83a8.35,8.35,0,0,1,6.94-3.08,9.58,9.58,0,0,1,4.21.86,7.81,7.81,0,0,1,2.95,2.42,10.48,10.48,0,0,1,1.72,3.74,19.44,19.44,0,0,1,.56,4.89c0,3.84-.81,6.78-2.45,8.83a8.41,8.41,0,0,1-7,3.08,9.45,9.45,0,0,1-4.16-.86,8,8,0,0,1-2.93-2.42,10.62,10.62,0,0,1-1.72-3.75,19.77,19.77,0,0,1-.56-4.88m2.89,0a16.88,16.88,0,0,0,.38,3.62,9.74,9.74,0,0,0,1.17,3,6.35,6.35,0,0,0,2,2.07,5.31,5.31,0,0,0,2.91.77,5.69,5.69,0,0,0,4.81-2.32c1.16-1.54,1.74-3.93,1.74-7.15a16.9,16.9,0,0,0-.38-3.6,9.78,9.78,0,0,0-1.18-3,6.31,6.31,0,0,0-2-2.07,5.43,5.43,0,0,0-2.95-.77,5.59,5.59,0,0,0-4.75,2.32c-1.15,1.54-1.73,3.93-1.73,7.15" transform="translate(-52.4 -41.68)"/><polygon class="cls-3" points="362.97 108.23 353.36 108.23 353.36 128.82 350.63 128.82 350.63 105.79 362.97 105.79 362.97 108.23"/><path class="cls-3" d="M415.86,159q0-5.76,2.43-8.83a8.35,8.35,0,0,1,6.94-3.08,9.58,9.58,0,0,1,4.21.86,7.81,7.81,0,0,1,2.95,2.42,10.48,10.48,0,0,1,1.72,3.74,19.44,19.44,0,0,1,.56,4.89c0,3.84-.81,6.78-2.45,8.83a8.41,8.41,0,0,1-7,3.08,9.45,9.45,0,0,1-4.16-.86,7.88,7.88,0,0,1-2.92-2.42,10.46,10.46,0,0,1-1.73-3.75,19.77,19.77,0,0,1-.56-4.88m2.89,0a16.88,16.88,0,0,0,.38,3.62,9.74,9.74,0,0,0,1.17,3,6.35,6.35,0,0,0,2,2.07,5.34,5.34,0,0,0,2.91.77,5.69,5.69,0,0,0,4.81-2.32c1.16-1.54,1.74-3.93,1.74-7.15a16.9,16.9,0,0,0-.38-3.6,9.78,9.78,0,0,0-1.18-3,6.31,6.31,0,0,0-2-2.07,5.41,5.41,0,0,0-2.95-.77,5.59,5.59,0,0,0-4.75,2.32c-1.15,1.54-1.73,3.93-1.73,7.15" transform="translate(-52.4 -41.68)"/><polygon class="cls-3" points="120.97 146.93 121.3 143.47 121.14 143.47 119.89 146.63 113.9 157.03 113.08 157.03 106.73 146.6 105.55 143.47 105.38 143.47 105.84 146.9 105.84 162.39 103.28 162.39 103.28 139.36 105.32 139.36 112.52 151.14 113.61 153.71 113.67 153.71 114.69 151.07 121.57 139.36 123.7 139.36 123.7 162.39 120.97 162.39 120.97 146.93"/><polygon class="cls-3" points="129.29 139.36 141.83 139.36 141.83 141.8 132.03 141.8 132.03 149.33 141 149.33 141 151.76 132.03 151.76 132.03 159.95 141.99 159.95 141.99 162.39 129.29 162.39 129.29 139.36"/><polygon class="cls-3" points="160.71 151.83 149.66 151.83 149.66 162.39 146.93 162.39 146.93 139.36 149.66 139.36 149.66 149.4 160.71 149.4 160.71 139.36 163.44 139.36 163.44 162.39 160.71 162.39 160.71 151.83"/><polygon class="cls-3" points="169.03 139.36 181.56 139.36 181.56 141.8 171.76 141.8 171.76 149.33 180.74 149.33 180.74 151.76 171.76 151.76 171.76 159.95 181.73 159.95 181.73 162.39 169.03 162.39 169.03 139.36"/><path class="cls-3" d="M257.35,208.32h-1.88l-.49-4.25H238.83l-.49,4.25h-1.91v-6.68h2.33a9.41,9.41,0,0,0,.81-1.7,24.44,24.44,0,0,0,1.08-3.81,62.93,62.93,0,0,0,1-6.22,80.59,80.59,0,0,0,.42-8.86h12.31v20.59h3Zm-5.73-6.68V183.48h-7c-.07,2.41-.19,4.58-.38,6.51s-.41,3.64-.67,5.12a33.92,33.92,0,0,1-.89,3.83,18.92,18.92,0,0,1-1,2.7Z" transform="translate(-52.4 -41.68)"/><polygon class="cls-3" points="217.65 139.36 220.28 139.36 220.28 150.09 221.69 149.63 228.37 139.36 231.4 139.36 224.75 149.36 223.43 150.42 225.08 151.76 232.41 162.39 229.06 162.39 221.79 151.73 220.28 151.73 220.28 162.39 217.65 162.39 217.65 151.34 216.26 151.8 208.99 162.39 205.84 162.39 213.11 152.09 214.69 150.84 213.17 149.69 206.3 139.36 209.49 139.36 216.17 149.69 217.65 149.69 217.65 139.36"/><polygon class="cls-3" points="252.88 146.93 253.2 143.47 253.04 143.47 251.79 146.63 245.8 157.03 244.98 157.03 238.63 146.6 237.45 143.47 237.28 143.47 237.74 146.9 237.74 162.39 235.18 162.39 235.18 139.36 237.22 139.36 244.42 151.14 245.51 153.71 245.57 153.71 246.59 151.07 253.47 139.36 255.6 139.36 255.6 162.39 252.88 162.39 252.88 146.93"/><polygon class="cls-3" points="261.19 139.36 273.73 139.36 273.73 141.8 263.93 141.8 263.93 149.33 272.9 149.33 272.9 151.76 263.93 151.76 263.93 159.95 273.89 159.95 273.89 162.39 261.19 162.39 261.19 139.36"/><polygon class="cls-3" points="292.61 151.83 281.56 151.83 281.56 162.39 278.83 162.39 278.83 139.36 281.56 139.36 281.56 149.4 292.61 149.4 292.61 139.36 295.34 139.36 295.34 162.39 292.61 162.39 292.61 151.83"/><polygon class="cls-3" points="315.8 141.8 308.63 141.8 308.63 162.39 305.9 162.39 305.9 141.8 298.73 141.8 298.73 139.36 315.8 139.36 315.8 141.8"/><path class="cls-3" d="M380.31,197.69h-8.44l-2.29,6.38h-2.73l8.72-23.38h1.25l8.74,23.38h-2.89Zm-7.56-2.37h6.75l-2.56-7-.81-3.49h0l-.82,3.55Z" transform="translate(-52.4 -41.68)"/></svg>