<?xml version="1.0" encoding="utf-8"?>
<!-- Generator: Adobe Illustrator 21.0.2, SVG Export Plug-In . SVG Version: 6.00 Build 0)  -->
<svg version="1.2" baseProfile="tiny" id="Слой_1"
	 xmlns="http://www.w3.org/2000/svg" xmlns:xlink="http://www.w3.org/1999/xlink" x="0px" y="0px" viewBox="0 0 449.3 180"
	 xml:space="preserve">
<g>
	<path fill="none" d="M151.2,35.4c-0.5-0.4-1-0.8-1.8-1c-0.7-0.2-1.6-0.4-2.6-0.4h-4.5v9.4h4.3c1.1,0,2-0.1,2.7-0.4
		c0.7-0.2,1.4-0.6,1.8-1c0.5-0.4,0.8-0.9,1-1.5c0.2-0.6,0.3-1.2,0.3-1.8c0-0.6-0.1-1.2-0.3-1.8C152,36.3,151.7,35.8,151.2,35.4z"/>
	<polygon fill="none" points="178.7,46.2 188.6,46.2 183.6,35.3 	"/>
	<polygon fill="none" points="180.3,67.3 175.3,78.2 185.3,78.2 	"/>
	<polygon fill="none" points="352.5,131.3 347.6,142.2 357.5,142.2 	"/>
	<path fill="none" d="M218.6,68.8c-0.9,0.9-1.7,2-2.2,3.2c-0.5,1.2-0.8,2.6-0.8,4c0,1.4,0.3,2.8,0.8,4c0.5,1.3,1.3,2.3,2.2,3.2
		c0.9,0.9,2,1.6,3.3,2.2c1.3,0.5,2.6,0.8,4.1,0.8s2.8-0.3,4.1-0.8c1.3-0.5,2.3-1.2,3.3-2.2c0.9-0.9,1.6-2,2.2-3.2
		c0.5-1.2,0.8-2.6,0.8-4c0-1.4-0.3-2.8-0.8-4c-0.5-1.2-1.2-2.3-2.2-3.2c-0.9-0.9-2-1.6-3.3-2.2c-1.3-0.5-2.6-0.8-4.1-0.8
		s-2.8,0.3-4.1,0.8C220.6,67.2,219.5,67.9,218.6,68.8z"/>
	<path fill="none" d="M361.9,108.1c0,1.4,0.3,2.8,0.8,4c0.5,1.3,1.3,2.3,2.2,3.2c0.9,0.9,2,1.6,3.3,2.2c1.3,0.5,2.6,0.8,4.1,0.8
		s2.8-0.3,4.1-0.8c1.3-0.5,2.3-1.2,3.3-2.2c0.9-0.9,1.6-2,2.2-3.2c0.5-1.2,0.8-2.6,0.8-4c0-1.5-0.3-2.8-0.8-4
		c-0.5-1.2-1.2-2.3-2.2-3.2c-0.9-0.9-2-1.6-3.3-2.2c-1.3-0.5-2.6-0.8-4.1-0.8s-2.8,0.3-4.1,0.8c-1.3,0.5-2.4,1.2-3.3,2.2
		c-0.9,0.9-1.7,2-2.2,3.2C362.2,105.3,361.9,106.6,361.9,108.1z"/>
	<polygon fill="none" points="200.3,150.2 216.3,150.2 208.2,131.3 	"/>
	<polygon fill="none" points="323.3,67.3 318.3,78.2 328.3,78.2 	"/>
	<path fill="none" d="M305.3,75c0.7-0.2,1.4-0.6,1.8-1c0.5-0.4,0.8-0.9,1-1.5c0.2-0.6,0.3-1.2,0.3-1.8c0-0.6-0.1-1.2-0.3-1.8
		c-0.2-0.6-0.6-1.1-1-1.5c-0.5-0.4-1-0.8-1.8-1c-0.7-0.2-1.6-0.4-2.6-0.4h-4.5v9.4h4.3C303.7,75.3,304.6,75.2,305.3,75z"/>
	<path fill="none" d="M244.4,76.1c0,1.4,0.3,2.8,0.8,4c0.5,1.3,1.3,2.3,2.2,3.2c0.9,0.9,2,1.6,3.3,2.2c1.3,0.5,2.6,0.8,4.1,0.8
		c1.5,0,2.8-0.3,4.1-0.8c1.3-0.5,2.3-1.2,3.3-2.2c0.9-0.9,1.6-2,2.2-3.2c0.5-1.2,0.8-2.6,0.8-4c0-1.4-0.3-2.8-0.8-4
		c-0.5-1.2-1.2-2.3-2.2-3.2c-0.9-0.9-2-1.6-3.3-2.2c-1.3-0.5-2.6-0.8-4.1-0.8c-1.4,0-2.8,0.3-4.1,0.8c-1.3,0.5-2.4,1.2-3.3,2.2
		c-0.9,0.9-1.7,2-2.2,3.2C244.7,73.3,244.4,74.6,244.4,76.1z"/>
	<path fill="none" d="M204.8,85.7c0.8-0.3,1.4-0.7,1.9-1.1c0.5-0.5,0.8-1,1-1.5c0.2-0.6,0.3-1.1,0.3-1.6c0-0.6-0.1-1.1-0.3-1.7
		c-0.2-0.6-0.5-1.1-1-1.5c-0.5-0.4-1.2-0.8-2.1-1.1c-0.9-0.3-2-0.4-3.4-0.4h-4v9.4h4.8C203,86.2,204,86,204.8,85.7z"/>
	<polygon fill="none" points="201,99.3 193.1,118.2 209.1,118.2 	"/>
	<path fill="none" d="M115.7,51.4c0.9,0.9,2,1.6,3.3,2.2c1.3,0.5,2.6,0.8,4.1,0.8c1.5,0,2.8-0.3,4.1-0.8c1.3-0.5,2.3-1.2,3.3-2.2
		c0.9-0.9,1.6-2,2.2-3.2c0.5-1.2,0.8-2.6,0.8-4c0-1.5-0.3-2.8-0.8-4c-0.5-1.2-1.3-2.3-2.2-3.2c-0.9-0.9-2-1.6-3.3-2.2
		c-1.3-0.5-2.6-0.8-4.1-0.8c-1.4,0-2.8,0.3-4.1,0.8c-1.3,0.5-2.4,1.2-3.3,2.2c-0.9,0.9-1.7,2-2.2,3.2c-0.5,1.2-0.8,2.6-0.8,4
		c0,1.4,0.3,2.8,0.8,4C114,49.4,114.7,50.5,115.7,51.4z"/>
	<path fill="none" d="M202.5,74.9c0.8-0.2,1.5-0.5,1.9-0.9c0.5-0.4,0.9-0.9,1.1-1.5c0.2-0.6,0.3-1.2,0.3-1.9c0-0.9-0.2-1.6-0.5-2.2
		c-0.3-0.6-0.8-1.1-1.4-1.4c-0.6-0.4-1.3-0.6-2-0.8c-0.8-0.2-1.6-0.2-2.5-0.2H197v9.2h2.5C200.7,75.2,201.7,75.1,202.5,74.9z"/>
	<path fill="none" d="M162.3,75c0.7-0.2,1.4-0.6,1.8-1c0.5-0.4,0.8-0.9,1-1.5c0.2-0.6,0.3-1.2,0.3-1.8c0-0.6-0.1-1.2-0.3-1.8
		c-0.2-0.6-0.6-1.1-1-1.5c-0.5-0.4-1-0.8-1.8-1c-0.7-0.2-1.6-0.4-2.6-0.4h-4.5v9.4h4.3C160.6,75.3,161.6,75.2,162.3,75z"/>
	<path fill="none" d="M223.7,176.7c0.8-0.8,1.2-1.8,1.2-3c0-1.2-0.4-2.2-1.2-3c-0.8-0.8-1.8-1.2-3.1-1.2c-1.2,0-2.2,0.4-2.9,1.2
		c-0.8,0.8-1.1,1.8-1.1,3c0,1.2,0.4,2.2,1.2,2.9c0.8,0.8,1.8,1.1,3,1.1C221.9,177.9,222.9,177.5,223.7,176.7z"/>
	<path fill="none" d="M410.1,115.4c0.9,0.9,2,1.6,3.3,2.2c1.3,0.5,2.6,0.8,4.1,0.8s2.8-0.3,4.1-0.8c1.3-0.5,2.3-1.2,3.3-2.2
		c0.9-0.9,1.6-2,2.2-3.2c0.5-1.2,0.8-2.6,0.8-4c0-1.5-0.3-2.8-0.8-4c-0.5-1.2-1.2-2.3-2.2-3.2c-0.9-0.9-2-1.6-3.3-2.2
		c-1.3-0.5-2.6-0.8-4.1-0.8s-2.8,0.3-4.1,0.8c-1.3,0.5-2.4,1.2-3.3,2.2c-0.9,0.9-1.7,2-2.2,3.2c-0.5,1.2-0.8,2.6-0.8,4
		c0,1.4,0.3,2.8,0.8,4C408.4,113.4,409.1,114.5,410.1,115.4z"/>
	<path fill="none" d="M436,67.5c-0.6,0.5-1,1-1.3,1.6c-0.3,0.6-0.4,1.2-0.4,1.9c0,0.7,0.1,1.3,0.3,2c0.2,0.6,0.6,1.1,1,1.6
		c0.5,0.4,1,0.8,1.8,1.1c0.7,0.3,1.5,0.4,2.5,0.4h4.7V66h-3.8c-1.1,0-2,0.1-2.8,0.4C437.3,66.7,436.6,67,436,67.5z"/>
	<polygon fill="none" points="270.7,46.2 280.6,46.2 275.6,35.3 	"/>
	<polygon fill="none" points="138.3,67.3 130.4,86.2 146.4,86.2 	"/>
	<path fill="#388E3C" d="M90,134c0-1.1-0.6-1.3-1.3-0.5l-7.4,8.9c-0.7,0.9-1.3,2.4-1.3,3.5v29H10v-3c0-1.1,0.7-2.6,1.5-3.3l18-15.7
		c0.8-0.7,2.4-1.5,3.5-1.7l37.8-7.4c1.1-0.2,2.6-1.1,3.3-1.9l14.6-16.6c0.7-0.8,1.3-2.4,1.3-3.5v-11.7c0-1.1-0.6-1.3-1.3-0.5
		l-19.9,23c-0.7,0.8-2.2,1.7-3.3,1.9L29,141.8c-1.1,0.2-2.6,1-3.5,1.7L1.5,165c-0.8,0.7-1.5,2.2-1.5,3.3V180h90v-5V134z"/>
	<path fill="#E64A19" d="M1.5,158.4L22.5,139c0.8-0.7,2.3-1.5,3.4-1.7l36.8-7.4c1.1-0.2,2.6-1.1,3.3-1.9l22.7-25.9
		c0.7-0.8,1.3-2.4,1.3-3.5V88c0-1.1-0.6-1.3-1.3-0.5l-27.9,31.4c-0.7,0.8-2.2,1.7-3.3,1.9L21.6,128c-1.1,0.2-2.6,1-3.5,1.7l-6.7,5.9
		c-0.8,0.7-1.5,0.4-1.5-0.7V10c0,0,29.9,5.1,35,13.1C50.2,15.1,80,8,80,8v80c0,1.1,0.6,1.3,1.3,0.5l7.3-8c0.7-0.8,1.3-2.4,1.3-3.5V0
		L45,13.4L0,0l0,157.8C0,158.9,0.7,159.1,1.5,158.4z"/>
	<polygon fill="#00231E" points="111.7,0.5 111.7,23.7 113.5,23.7 113.5,12.7 129,12.7 129,23.7 130.8,23.7 130.8,0.5 129,0.5 
		129,11.2 113.5,11.2 113.5,0.5 	"/>
	<polygon fill="#00231E" points="137,0.5 137,23.7 138.3,23.7 154.3,3.7 154.3,23.7 156.1,23.7 156.1,0.5 154.9,0.5 138.8,20.7 
		138.8,0.5 	"/>
	<polygon fill="#00231E" points="162.3,0.5 162.3,23.7 163.6,23.7 179.6,3.7 179.6,23.7 181.4,23.7 181.4,0.5 180.2,0.5 164.1,20.7 
		164.1,0.5 	"/>
	<path fill="#00231E" d="M110.7,44.1c0,1.1,0.1,2.2,0.4,3.2c0.3,1,0.7,2,1.2,2.8c0.5,0.9,1.2,1.7,1.9,2.4c0.7,0.7,1.6,1.3,2.5,1.8
		c0.9,0.5,1.9,0.9,2.9,1.2c1.1,0.3,2.1,0.4,3.3,0.4c1.7,0,3.3-0.3,4.8-0.9c1.5-0.6,2.8-1.5,3.9-2.5c1.1-1.1,2-2.3,2.6-3.8
		c0.6-1.4,1-3,1-4.7c0-1.1-0.1-2.2-0.4-3.2c-0.3-1-0.7-2-1.2-2.8c-0.5-0.9-1.2-1.7-1.9-2.4c-0.7-0.7-1.6-1.3-2.5-1.9
		c-0.9-0.5-1.9-0.9-2.9-1.2c-1.1-0.3-2.2-0.4-3.3-0.4c-1.1,0-2.2,0.1-3.3,0.4c-1.1,0.3-2,0.7-2.9,1.2c-0.9,0.5-1.7,1.1-2.5,1.9
		c-0.7,0.7-1.4,1.5-1.9,2.4c-0.5,0.9-0.9,1.8-1.2,2.9C110.9,41.9,110.7,43,110.7,44.1z M113.5,40c0.5-1.2,1.3-2.3,2.2-3.2
		c0.9-0.9,2-1.6,3.3-2.2c1.3-0.5,2.6-0.8,4.1-0.8c1.5,0,2.8,0.3,4.1,0.8c1.3,0.5,2.3,1.2,3.3,2.2c0.9,0.9,1.6,2,2.2,3.2
		c0.5,1.2,0.8,2.6,0.8,4c0,1.4-0.3,2.8-0.8,4c-0.5,1.3-1.3,2.3-2.2,3.2c-0.9,0.9-2,1.6-3.3,2.2c-1.3,0.5-2.6,0.8-4.1,0.8
		c-1.4,0-2.8-0.3-4.1-0.8c-1.3-0.5-2.4-1.2-3.3-2.2c-0.9-0.9-1.7-2-2.2-3.2c-0.5-1.2-0.8-2.6-0.8-4C112.7,42.6,112.9,41.3,113.5,40z
		"/>
	<path fill="#00231E" d="M154.5,38.6c0-0.8-0.1-1.6-0.4-2.4c-0.3-0.7-0.7-1.4-1.3-2c-0.6-0.6-1.4-1-2.3-1.3c-1-0.3-2.1-0.5-3.5-0.5
		h-6.4v23.2h1.8V44.8h4.4c1.5,0,2.8-0.2,3.7-0.6c1-0.4,1.8-0.8,2.4-1.4c0.6-0.6,1-1.3,1.3-2C154.3,40.1,154.5,39.3,154.5,38.6z
		 M152.2,40.5c-0.2,0.6-0.6,1.1-1,1.5c-0.5,0.4-1.1,0.8-1.8,1c-0.7,0.2-1.7,0.4-2.7,0.4h-4.3V34h4.5c1,0,1.9,0.1,2.6,0.4
		c0.7,0.2,1.3,0.6,1.8,1c0.5,0.4,0.8,0.9,1,1.5c0.2,0.6,0.3,1.2,0.3,1.8C152.5,39.3,152.4,39.9,152.2,40.5z"/>
	<polygon fill="#00231E" points="158.7,55.7 160.5,55.7 160.5,34 171.3,34 171.3,32.5 158.7,32.5 	"/>
	<path fill="#00231E" d="M183.2,32.3l-10.7,23.3h1.9l3.7-8h11.3l3.7,8h1.9l-10.7-23.3H183.2z M178.7,46.2l5-10.9l5,10.9H178.7z"/>
	<polygon fill="#00231E" points="198.5,32.5 198.5,55.7 200.3,55.7 200.3,44.7 215.8,44.7 215.8,55.7 217.6,55.7 217.6,32.5 
		215.8,32.5 215.8,43.2 200.3,43.2 200.3,32.5 	"/>
	<polygon fill="#00231E" points="223.8,32.5 223.8,55.7 225.1,55.7 241.1,35.7 241.1,55.7 242.9,55.7 242.9,32.5 241.7,32.5 
		225.6,52.7 225.6,32.5 	"/>
	<path fill="#00231E" d="M258.3,53.1c-0.6,0.4-1.3,0.7-2.1,0.9c-0.8,0.2-1.6,0.3-2.4,0.3c-0.6,0-1.1,0-1.7-0.1
		c-0.6-0.1-1.1-0.2-1.7-0.3c-0.5-0.1-1.1-0.3-1.6-0.4c-0.5-0.2-1-0.4-1.4-0.6v1.8c0.5,0.2,1,0.3,1.5,0.5c0.5,0.1,1.1,0.3,1.6,0.4
		c0.6,0.1,1.1,0.2,1.7,0.2c0.6,0.1,1.2,0.1,1.7,0.1c0.6,0,1.2,0,1.8-0.1c0.6-0.1,1.3-0.2,1.9-0.4c0.6-0.2,1.2-0.5,1.7-0.8
		c0.5-0.3,1-0.7,1.5-1.2c0.4-0.5,0.8-1.1,1-1.7c0.2-0.7,0.4-1.4,0.4-2.3c0-0.9-0.1-1.6-0.4-2.3c-0.3-0.7-0.6-1.3-1-1.7
		c-0.4-0.5-0.9-0.9-1.4-1.2c-0.5-0.3-1-0.5-1.5-0.7c0.6-0.2,1.1-0.5,1.6-0.9c0.5-0.4,0.9-0.9,1.3-1.4c0.3-0.5,0.6-1.1,0.8-1.6
		c0.2-0.6,0.3-1.1,0.3-1.6c0-0.9-0.2-1.8-0.6-2.5s-0.9-1.3-1.6-1.8c-0.7-0.5-1.5-0.8-2.4-1c-0.9-0.2-1.8-0.3-2.8-0.3
		c-0.6,0-1.2,0-1.8,0.1c-0.6,0.1-1.2,0.2-1.8,0.3c-0.6,0.1-1.2,0.3-1.7,0.5s-1,0.4-1.4,0.7v1.7c0.5-0.3,1-0.5,1.5-0.7
		c0.5-0.2,1.1-0.3,1.6-0.5c0.6-0.1,1.1-0.2,1.7-0.3c0.5-0.1,1.1-0.1,1.6-0.1c0.9,0,1.7,0.1,2.5,0.3c0.7,0.2,1.4,0.4,1.9,0.8
		c0.5,0.4,0.9,0.8,1.2,1.4c0.3,0.5,0.4,1.2,0.4,1.9c0,0.5-0.1,1-0.3,1.6c-0.2,0.5-0.6,1-1,1.5c-0.5,0.4-1,0.8-1.7,1.1
		c-0.7,0.3-1.4,0.4-2.3,0.4h-4.5v1.6h4c1,0,1.8,0.1,2.6,0.3c0.8,0.2,1.4,0.6,2,1s1,1,1.2,1.6c0.3,0.6,0.4,1.3,0.4,2.1
		c0,0.9-0.2,1.6-0.6,2.3C259.4,52.2,258.9,52.7,258.3,53.1z"/>
	<path fill="#00231E" d="M275.1,32.3l-10.7,23.3h1.9l3.7-8h11.3l3.7,8h1.9l-10.7-23.3H275.1z M270.7,46.2l5-10.9l5,10.9H270.7z"/>
	<polygon fill="#00231E" points="290.5,32.5 290.5,55.7 310.4,55.7 310.4,59.7 312.2,59.7 312.2,54.2 309.6,54.2 309.6,32.5 
		307.8,32.5 307.8,54.2 292.3,54.2 292.3,32.5 	"/>
	<polygon fill="#00231E" points="316.1,32.5 316.1,55.7 317.4,55.7 333.4,35.7 333.4,55.7 335.2,55.7 335.2,32.5 334,32.5 
		317.9,52.7 317.9,32.5 	"/>
	<polygon fill="#00231E" points="341.4,32.5 341.4,55.7 342.7,55.7 358.7,35.7 358.7,55.7 360.5,55.7 360.5,32.5 359.3,32.5 
		343.2,52.7 343.2,32.5 	"/>
	<path fill="#00231E" d="M120.8,85.2c-0.6,0.4-1.3,0.7-2.1,0.9c-0.8,0.2-1.6,0.3-2.4,0.3c-0.6,0-1.1,0-1.7-0.1
		c-0.6-0.1-1.1-0.1-1.7-0.3c-0.5-0.1-1.1-0.3-1.6-0.4c-0.5-0.2-1-0.4-1.4-0.6v1.8c0.5,0.2,1,0.3,1.5,0.5c0.5,0.1,1.1,0.3,1.6,0.4
		c0.6,0.1,1.1,0.2,1.7,0.2c0.6,0.1,1.2,0.1,1.7,0.1c0.6,0,1.2,0,1.8-0.1c0.6-0.1,1.3-0.2,1.9-0.4s1.2-0.5,1.7-0.8
		c0.5-0.3,1-0.7,1.5-1.2c0.4-0.5,0.8-1.1,1-1.7c0.2-0.7,0.4-1.4,0.4-2.3c0-0.9-0.1-1.6-0.4-2.3c-0.3-0.7-0.6-1.3-1-1.7
		c-0.4-0.5-0.9-0.9-1.4-1.2c-0.5-0.3-1-0.5-1.5-0.7c0.6-0.2,1.1-0.5,1.6-0.9c0.5-0.4,0.9-0.9,1.3-1.4c0.3-0.5,0.6-1.1,0.8-1.6
		c0.2-0.6,0.3-1.1,0.3-1.6c0-0.9-0.2-1.8-0.6-2.5c-0.4-0.7-0.9-1.3-1.6-1.8c-0.7-0.5-1.5-0.8-2.4-1c-0.9-0.2-1.8-0.3-2.8-0.3
		c-0.6,0-1.2,0-1.8,0.1c-0.6,0.1-1.2,0.2-1.8,0.3c-0.6,0.1-1.2,0.3-1.7,0.5c-0.5,0.2-1,0.4-1.4,0.7v1.7c0.5-0.3,1-0.5,1.5-0.7
		c0.5-0.2,1.1-0.4,1.6-0.5c0.6-0.1,1.1-0.2,1.7-0.3c0.5-0.1,1.1-0.1,1.6-0.1c0.9,0,1.7,0.1,2.5,0.3c0.7,0.2,1.4,0.4,1.9,0.8
		c0.5,0.4,0.9,0.8,1.2,1.4c0.3,0.5,0.4,1.2,0.4,1.9c0,0.5-0.1,1-0.3,1.6c-0.2,0.5-0.6,1-1,1.5c-0.5,0.4-1,0.8-1.7,1.1
		c-0.7,0.3-1.4,0.4-2.3,0.4h-4.5v1.6h4c1,0,1.8,0.1,2.6,0.3c0.8,0.2,1.4,0.6,2,1c0.5,0.4,1,1,1.2,1.6c0.3,0.6,0.4,1.3,0.4,2.1
		c0,0.9-0.2,1.6-0.6,2.3C121.9,84.2,121.4,84.7,120.8,85.2z"/>
	<path fill="#00231E" d="M127.2,86.2v6.7h1.8v-5.2h18.8v5.2h1.8v-6.7h-1.3l-9.4-21.8h-1l-9.4,21.8H127.2z M138.3,67.3l8.1,18.8h-16
		L138.3,67.3z"/>
	<path fill="#00231E" d="M153.4,87.7h1.8V76.8h4.4c1.5,0,2.8-0.2,3.7-0.6c1-0.4,1.8-0.8,2.4-1.4c0.6-0.6,1-1.3,1.3-2
		s0.4-1.5,0.4-2.2c0-0.8-0.1-1.6-0.4-2.4c-0.3-0.7-0.7-1.4-1.3-2c-0.6-0.6-1.4-1-2.3-1.3c-1-0.3-2.1-0.5-3.5-0.5h-6.4V87.7z
		 M155.2,66h4.5c1,0,1.9,0.1,2.6,0.4c0.7,0.2,1.3,0.6,1.8,1c0.5,0.4,0.8,0.9,1,1.5c0.2,0.6,0.3,1.2,0.3,1.8c0,0.7-0.1,1.3-0.3,1.8
		c-0.2,0.6-0.6,1.1-1,1.5c-0.5,0.4-1.1,0.8-1.8,1c-0.7,0.2-1.7,0.4-2.7,0.4h-4.3V66z"/>
	<path fill="#00231E" d="M186,79.7l3.7,8h1.9l-10.7-23.3h-1l-10.7,23.3h1.9l3.7-8H186z M180.3,67.3l5,10.9h-10L180.3,67.3z"/>
	<path fill="#00231E" d="M195.2,87.7h6.8c1.2,0,2.3-0.1,3.2-0.4c1-0.3,1.8-0.7,2.5-1.2c0.7-0.5,1.2-1.2,1.6-1.9
		c0.4-0.8,0.5-1.6,0.5-2.6c0-1.6-0.4-2.8-1.3-3.8c-0.9-1-2.2-1.7-4-2.1c1.1-0.6,2-1.4,2.5-2.2s0.8-1.8,0.8-3c0-0.7-0.1-1.4-0.3-2.1
		c-0.2-0.7-0.6-1.4-1.2-1.9c-0.6-0.6-1.4-1.1-2.4-1.4c-1-0.4-2.3-0.6-3.8-0.6h-4.8V87.7z M197,66h2.4c0.9,0,1.7,0.1,2.5,0.2
		c0.8,0.1,1.5,0.4,2,0.8c0.6,0.4,1,0.8,1.4,1.4c0.3,0.6,0.5,1.3,0.5,2.2c0,0.7-0.1,1.3-0.3,1.9c-0.2,0.6-0.6,1.1-1.1,1.5
		c-0.5,0.4-1.1,0.7-1.9,0.9c-0.8,0.2-1.8,0.3-3,0.3H197V66z M197,76.7h4c1.4,0,2.5,0.1,3.4,0.4c0.9,0.3,1.6,0.6,2.1,1.1
		c0.5,0.4,0.8,1,1,1.5c0.2,0.6,0.3,1.1,0.3,1.7c0,0.5-0.1,1.1-0.3,1.6c-0.2,0.6-0.5,1.1-1,1.5c-0.5,0.5-1.1,0.8-1.9,1.1
		c-0.8,0.3-1.8,0.4-3,0.4H197V76.7z"/>
	<path fill="#00231E" d="M219.6,65.8c-0.9,0.5-1.7,1.1-2.5,1.9c-0.7,0.7-1.4,1.5-1.9,2.4c-0.5,0.9-0.9,1.8-1.2,2.9
		c-0.3,1-0.4,2.1-0.4,3.2c0,1.1,0.1,2.2,0.4,3.2c0.3,1,0.7,2,1.2,2.8c0.5,0.9,1.2,1.7,1.9,2.4c0.7,0.7,1.6,1.3,2.5,1.8
		c0.9,0.5,1.9,0.9,2.9,1.2c1.1,0.3,2.1,0.4,3.3,0.4c1.7,0,3.3-0.3,4.8-0.9c1.5-0.6,2.8-1.5,3.9-2.5c1.1-1.1,2-2.3,2.6-3.8
		c0.6-1.4,1-3,1-4.7c0-1.1-0.1-2.2-0.4-3.2c-0.3-1-0.7-2-1.2-2.8c-0.5-0.9-1.2-1.7-1.9-2.4c-0.7-0.7-1.6-1.3-2.5-1.9
		c-0.9-0.5-1.9-0.9-2.9-1.2c-1.1-0.3-2.2-0.4-3.3-0.4c-1.1,0-2.2,0.1-3.3,0.4C221.5,64.9,220.5,65.3,219.6,65.8z M225.9,65.8
		c1.5,0,2.8,0.3,4.1,0.8c1.3,0.5,2.3,1.2,3.3,2.2c0.9,0.9,1.6,2,2.2,3.2c0.5,1.2,0.8,2.6,0.8,4c0,1.4-0.3,2.8-0.8,4
		c-0.5,1.3-1.2,2.3-2.2,3.2c-0.9,0.9-2,1.6-3.3,2.2c-1.3,0.5-2.6,0.8-4.1,0.8s-2.8-0.3-4.1-0.8c-1.3-0.5-2.4-1.2-3.3-2.2
		c-0.9-0.9-1.7-2-2.2-3.2c-0.5-1.2-0.8-2.6-0.8-4c0-1.4,0.3-2.8,0.8-4c0.5-1.2,1.3-2.3,2.2-3.2c0.9-0.9,2-1.6,3.3-2.2
		C223.1,66.1,224.5,65.8,225.9,65.8z"/>
	<path fill="#00231E" d="M244.1,70c-0.5,0.9-0.9,1.8-1.2,2.9c-0.3,1-0.4,2.1-0.4,3.2c0,1.1,0.1,2.2,0.4,3.2c0.3,1,0.7,2,1.2,2.8
		c0.5,0.9,1.2,1.7,1.9,2.4c0.7,0.7,1.6,1.3,2.5,1.8c0.9,0.5,1.9,0.9,2.9,1.2c1.1,0.3,2.1,0.4,3.3,0.4c1.7,0,3.3-0.3,4.8-0.9
		c1.5-0.6,2.8-1.5,3.9-2.5c1.1-1.1,2-2.3,2.6-3.8c0.6-1.4,1-3,1-4.7c0-1.1-0.1-2.2-0.4-3.2c-0.3-1-0.7-2-1.2-2.8s-1.2-1.7-1.9-2.4
		c-0.7-0.7-1.6-1.3-2.5-1.9c-0.9-0.5-1.9-0.9-2.9-1.2c-1.1-0.3-2.2-0.4-3.3-0.4c-1.1,0-2.2,0.1-3.3,0.4c-1.1,0.3-2,0.7-2.9,1.2
		c-0.9,0.5-1.7,1.1-2.5,1.9C245.3,68.4,244.6,69.2,244.1,70z M250.7,66.6c1.3-0.5,2.6-0.8,4.1-0.8c1.5,0,2.8,0.3,4.1,0.8
		c1.3,0.5,2.3,1.2,3.3,2.2c0.9,0.9,1.6,2,2.2,3.2c0.5,1.2,0.8,2.6,0.8,4c0,1.4-0.3,2.8-0.8,4c-0.5,1.3-1.2,2.3-2.2,3.2
		c-0.9,0.9-2,1.6-3.3,2.2c-1.3,0.5-2.6,0.8-4.1,0.8c-1.4,0-2.8-0.3-4.1-0.8c-1.3-0.5-2.4-1.2-3.3-2.2c-0.9-0.9-1.7-2-2.2-3.2
		c-0.5-1.2-0.8-2.6-0.8-4c0-1.4,0.3-2.8,0.8-4c0.5-1.2,1.3-2.3,2.2-3.2C248.3,67.9,249.4,67.2,250.7,66.6z"/>
	<polygon fill="#00231E" points="281.3,74.5 272.4,64.5 270.1,64.5 280.1,75.8 269.6,87.7 271.9,87.7 281.3,77.1 290.6,87.7 
		293,87.7 282.4,75.8 292.4,64.5 290.1,64.5 	"/>
	<path fill="#00231E" d="M302.7,76.8c1.5,0,2.8-0.2,3.7-0.6c1-0.4,1.8-0.8,2.4-1.4c0.6-0.6,1-1.3,1.3-2c0.2-0.7,0.4-1.5,0.4-2.2
		c0-0.8-0.1-1.6-0.4-2.4c-0.3-0.7-0.7-1.4-1.3-2c-0.6-0.6-1.4-1-2.3-1.3c-1-0.3-2.1-0.5-3.5-0.5h-6.4v23.2h1.8V76.8H302.7z
		 M298.3,66h4.5c1,0,1.9,0.1,2.6,0.4c0.7,0.2,1.3,0.6,1.8,1c0.5,0.4,0.8,0.9,1,1.5c0.2,0.6,0.3,1.2,0.3,1.8c0,0.7-0.1,1.3-0.3,1.8
		c-0.2,0.6-0.6,1.1-1,1.5c-0.5,0.4-1.1,0.8-1.8,1c-0.7,0.2-1.7,0.4-2.7,0.4h-4.3V66z"/>
	<path fill="#00231E" d="M314,87.7l3.7-8H329l3.7,8h1.9l-10.7-23.3h-1l-10.7,23.3H314z M323.3,67.3l5,10.9h-10L323.3,67.3z"/>
	<polygon fill="#00231E" points="338.2,64.5 338.2,87.7 340,87.7 340,76.7 355.5,76.7 355.5,87.7 357.3,87.7 357.3,64.5 355.5,64.5 
		355.5,75.2 340,75.2 340,64.5 	"/>
	<polygon fill="#00231E" points="376.2,66 376.2,64.5 363.5,64.5 363.5,87.7 376.5,87.7 376.5,86.2 365.3,86.2 365.3,76.8 
		375.9,76.8 375.9,75.3 365.3,75.3 365.3,66 	"/>
	<polygon fill="#00231E" points="381,64.5 381,87.7 382.8,87.7 382.8,76.7 398.3,76.7 398.3,87.7 400.1,87.7 400.1,64.5 398.3,64.5 
		398.3,75.2 382.8,75.2 382.8,64.5 	"/>
	<polygon fill="#00231E" points="406.3,64.5 406.3,87.7 407.6,87.7 423.6,67.7 423.6,87.7 425.4,87.7 425.4,64.5 424.2,64.5 
		408.1,84.7 408.1,64.5 	"/>
	<path fill="#00231E" d="M436.9,65.1c-1,0.4-1.9,0.9-2.5,1.5c-0.7,0.6-1.2,1.3-1.5,2.1c-0.3,0.8-0.5,1.5-0.5,2.3
		c0,0.7,0.1,1.3,0.3,2c0.2,0.7,0.6,1.3,1,1.8c0.4,0.6,1,1,1.6,1.4c0.6,0.4,1.3,0.7,2.1,0.8c-0.6,0.2-1.2,0.5-1.8,1.1
		c-0.6,0.5-1.2,1.2-1.7,2l-5,7.5h2.1l4.1-6.4c0.6-0.9,1.2-1.7,1.7-2.2c0.5-0.5,1-0.9,1.5-1.2c0.5-0.3,1.1-0.4,1.6-0.5
		c0.6-0.1,1.2-0.1,1.9-0.1h2.8v10.2h1.8V64.5h-6C439.1,64.5,437.9,64.7,436.9,65.1z M444.7,66v10h-4.7c-1,0-1.8-0.1-2.5-0.4
		c-0.7-0.3-1.3-0.6-1.8-1.1c-0.5-0.4-0.8-1-1-1.6c-0.2-0.6-0.3-1.3-0.3-2c0-0.7,0.1-1.3,0.4-1.9c0.3-0.6,0.7-1.1,1.3-1.6
		c0.6-0.5,1.2-0.8,2.1-1.1c0.8-0.3,1.8-0.4,2.8-0.4H444.7z"/>
	<polygon fill="#00231E" points="111.7,96.5 111.7,119.7 113,119.7 129,99.7 129,119.7 130.8,119.7 130.8,96.5 129.6,96.5 
		113.5,116.7 113.5,96.5 	"/>
	<polygon fill="#00231E" points="166.6,99.1 166.7,99.1 166.7,119.7 168.5,119.7 168.5,96.5 166.7,96.5 157.9,107.3 149,96.5 
		147.2,96.5 147.2,119.7 149,119.7 149,99.1 149.1,99.1 157.9,109.9 	"/>
	<polygon fill="#00231E" points="187.6,118.2 176.5,118.2 176.5,108.8 187.1,108.8 187.1,107.3 176.5,107.3 176.5,98 187.4,98 
		187.4,96.5 174.7,96.5 174.7,119.7 187.6,119.7 	"/>
	<path fill="#00231E" d="M189.8,118.2v6.7h1.8v-5.2h18.8v5.2h1.8v-6.7h-1.3l-9.4-21.8h-1l-9.4,21.8H189.8z M201,99.3l8.1,18.8h-16
		L201,99.3z"/>
	<polygon fill="#00231E" points="233.4,119.7 235.2,119.7 235.2,96.5 234.1,96.5 217.9,116.7 217.9,96.5 216.1,96.5 216.1,119.7 
		217.4,119.7 233.4,99.7 	"/>
	<polygon fill="#00231E" points="263.1,123.7 263.1,118.2 260.5,118.2 260.5,96.5 258.7,96.5 258.7,118.2 243.2,118.2 243.2,96.5 
		241.5,96.5 241.5,119.7 261.3,119.7 261.3,123.7 	"/>
	<polygon fill="#00231E" points="284.3,119.7 286.1,119.7 286.1,96.5 284.9,96.5 268.8,116.7 268.8,96.5 267,96.5 267,119.7 
		268.3,119.7 284.3,99.7 	"/>
	<polygon fill="#00231E" points="292.3,96.5 292.3,119.7 294.1,119.7 294.1,108.7 309.6,108.7 309.6,119.7 311.4,119.7 311.4,96.5 
		309.6,96.5 309.6,107.2 294.1,107.2 294.1,96.5 	"/>
	<path fill="#00231E" d="M321.4,100.8c0.9-0.9,2-1.6,3.2-2.2c1.2-0.5,2.6-0.8,4-0.8c1.4,0,2.8,0.2,4.1,0.5c1.3,0.4,2.7,0.9,4.2,1.7
		v-2c-1.4-0.7-2.8-1.2-4.2-1.5c-1.4-0.3-2.7-0.5-4-0.5c-1.1,0-2.1,0.1-3.1,0.4c-1,0.3-2,0.6-2.9,1.1c-0.9,0.5-1.7,1.1-2.5,1.8
		c-0.8,0.7-1.4,1.5-2,2.4c-0.5,0.9-1,1.9-1.3,2.9c-0.3,1.1-0.5,2.2-0.5,3.4c0,1.7,0.3,3.3,0.9,4.7c0.6,1.4,1.5,2.7,2.6,3.8
		c1.1,1.1,2.4,1.9,3.9,2.5c1.5,0.6,3.1,0.9,4.9,0.9c1.4,0,2.7-0.2,4.1-0.5c1.4-0.4,2.8-0.9,4.1-1.6v-1.9c-0.8,0.4-1.5,0.8-2.2,1.1
		c-0.7,0.3-1.4,0.5-2.1,0.7c-0.7,0.2-1.3,0.3-2,0.4c-0.6,0.1-1.3,0.1-1.9,0.1c-1.5,0-2.9-0.3-4.2-0.8c-1.3-0.5-2.4-1.2-3.3-2.1
		c-0.9-0.9-1.6-2-2.1-3.2c-0.5-1.3-0.8-2.6-0.8-4.1c0-1.5,0.3-2.8,0.8-4.1C319.8,102.8,320.5,101.7,321.4,100.8z"/>
	<path fill="#00231E" d="M341.5,96.5v23.2h1.8v-11.1h1.6c0.5,0,1,0.1,1.5,0.2c0.5,0.2,0.9,0.4,1.4,0.8c0.4,0.3,0.9,0.8,1.3,1.3
		c0.4,0.5,0.9,1.2,1.3,2l4,6.8h2.3l-4.5-7.3c-0.4-0.6-0.7-1.2-1.1-1.7c-0.3-0.5-0.7-1-1.1-1.4c-0.4-0.4-0.7-0.7-1.1-1
		c-0.4-0.3-0.8-0.4-1.3-0.5c0.2-0.1,0.5-0.3,0.8-0.5c0.3-0.3,0.5-0.6,0.8-0.9c0.3-0.4,0.5-0.7,0.8-1.2c0.3-0.4,0.5-0.9,0.7-1.3
		l1.8-4c0.2-0.4,0.3-0.7,0.5-0.9c0.1-0.3,0.3-0.5,0.5-0.6c0.2-0.2,0.4-0.3,0.6-0.3c0.2-0.1,0.6-0.1,1-0.1h0.8v-1.5H355
		c-0.5,0-0.9,0-1.2,0.1c-0.4,0.1-0.7,0.2-1,0.4c-0.3,0.2-0.6,0.5-0.9,0.8c-0.3,0.3-0.5,0.8-0.8,1.3l-2.1,4.6
		c-0.3,0.6-0.6,1.1-0.9,1.6c-0.3,0.4-0.7,0.8-1,1c-0.4,0.3-0.8,0.4-1.3,0.6c-0.5,0.1-1,0.2-1.6,0.2h-0.9V96.5H341.5z"/>
	<path fill="#00231E" d="M361.6,102c-0.5,0.9-0.9,1.8-1.2,2.9c-0.3,1-0.4,2.1-0.4,3.2c0,1.1,0.1,2.2,0.4,3.2c0.3,1,0.7,2,1.2,2.8
		c0.5,0.9,1.2,1.7,1.9,2.4c0.7,0.7,1.6,1.3,2.5,1.8c0.9,0.5,1.9,0.9,2.9,1.2c1.1,0.3,2.1,0.4,3.3,0.4c1.7,0,3.3-0.3,4.8-0.9
		c1.5-0.6,2.8-1.5,3.9-2.5c1.1-1.1,2-2.3,2.6-3.8c0.6-1.4,1-3,1-4.7c0-1.1-0.1-2.2-0.4-3.2c-0.3-1-0.7-2-1.2-2.8
		c-0.5-0.9-1.2-1.7-1.9-2.4c-0.7-0.7-1.6-1.3-2.5-1.8c-0.9-0.5-1.9-0.9-2.9-1.2c-1.1-0.3-2.2-0.4-3.3-0.4c-1.1,0-2.2,0.1-3.3,0.4
		c-1.1,0.3-2,0.7-2.9,1.2c-0.9,0.5-1.7,1.1-2.5,1.8C362.8,100.4,362.1,101.2,361.6,102z M368.2,98.6c1.3-0.5,2.6-0.8,4.1-0.8
		s2.8,0.3,4.1,0.8c1.3,0.5,2.3,1.2,3.3,2.2c0.9,0.9,1.6,2,2.2,3.2c0.5,1.2,0.8,2.6,0.8,4c0,1.4-0.3,2.8-0.8,4
		c-0.5,1.3-1.2,2.3-2.2,3.2c-0.9,0.9-2,1.6-3.3,2.2c-1.3,0.5-2.6,0.8-4.1,0.8s-2.8-0.3-4.1-0.8c-1.3-0.5-2.4-1.2-3.3-2.2
		c-0.9-0.9-1.7-2-2.2-3.2c-0.5-1.2-0.8-2.6-0.8-4c0-1.5,0.3-2.8,0.8-4c0.5-1.2,1.3-2.3,2.2-3.2C365.9,99.9,367,99.2,368.2,98.6z"/>
	<polygon fill="#00231E" points="389.7,119.7 391.5,119.7 391.5,98 402.4,98 402.4,96.5 389.7,96.5 	"/>
	<path fill="#00231E" d="M405.1,108.1c0,1.1,0.1,2.2,0.4,3.2c0.3,1,0.7,2,1.2,2.8c0.5,0.9,1.2,1.7,1.9,2.4c0.7,0.7,1.6,1.3,2.5,1.8
		c0.9,0.5,1.9,0.9,2.9,1.2c1.1,0.3,2.1,0.4,3.3,0.4c1.7,0,3.3-0.3,4.8-0.9c1.5-0.6,2.8-1.5,3.9-2.5c1.1-1.1,2-2.3,2.6-3.8
		c0.6-1.4,1-3,1-4.7c0-1.1-0.1-2.2-0.4-3.2c-0.3-1-0.7-2-1.2-2.8c-0.5-0.9-1.2-1.7-1.9-2.4c-0.7-0.7-1.6-1.3-2.5-1.8
		c-0.9-0.5-1.9-0.9-2.9-1.2c-1.1-0.3-2.2-0.4-3.3-0.4c-1.1,0-2.2,0.1-3.3,0.4c-1.1,0.3-2,0.7-2.9,1.2c-0.9,0.5-1.7,1.1-2.5,1.8
		c-0.7,0.7-1.4,1.5-1.9,2.4c-0.5,0.9-0.9,1.8-1.2,2.9C405.2,105.9,405.1,107,405.1,108.1z M407.8,104c0.5-1.2,1.3-2.3,2.2-3.2
		c0.9-0.9,2-1.6,3.3-2.2c1.3-0.5,2.6-0.8,4.1-0.8s2.8,0.3,4.1,0.8c1.3,0.5,2.3,1.2,3.3,2.2c0.9,0.9,1.6,2,2.2,3.2
		c0.5,1.2,0.8,2.6,0.8,4c0,1.4-0.3,2.8-0.8,4c-0.5,1.3-1.2,2.3-2.2,3.2c-0.9,0.9-2,1.6-3.3,2.2c-1.3,0.5-2.6,0.8-4.1,0.8
		s-2.8-0.3-4.1-0.8c-1.3-0.5-2.4-1.2-3.3-2.2c-0.9-0.9-1.7-2-2.2-3.2c-0.5-1.2-0.8-2.6-0.8-4C407,106.6,407.3,105.3,407.8,104z"/>
	<polygon fill="#00231E" points="132.9,151.7 132.9,128.5 131.1,128.5 122.3,139.3 113.4,128.5 111.6,128.5 111.6,151.7 
		113.4,151.7 113.4,131.1 113.5,131.1 122.3,141.9 131,131.1 131.1,131.1 131.1,151.7 	"/>
	<polygon fill="#00231E" points="151.8,130 151.8,128.5 139.1,128.5 139.1,151.7 152,151.7 152,150.2 140.9,150.2 140.9,140.8 
		151.5,140.8 151.5,139.3 140.9,139.3 140.9,130 	"/>
	<polygon fill="#00231E" points="175.7,151.7 175.7,128.5 173.9,128.5 173.9,139.2 158.4,139.2 158.4,128.5 156.6,128.5 
		156.6,151.7 158.4,151.7 158.4,140.7 173.9,140.7 173.9,151.7 	"/>
	<polygon fill="#00231E" points="194.9,150.2 183.7,150.2 183.7,140.8 194.3,140.8 194.3,139.3 183.7,139.3 183.7,130 194.6,130 
		194.6,128.5 181.9,128.5 181.9,151.7 194.9,151.7 	"/>
	<path fill="#00231E" d="M219.5,156.8v-6.7h-1.3l-9.4-21.8h-1l-9.4,21.8h-1.3v6.7h1.8v-5.2h18.8v5.2H219.5z M200.3,150.2l8-18.8
		l8.1,18.8H200.3z"/>
	<path fill="#00231E" d="M242.8,144.9l4,6.8h2.3l-4.5-7.3c-0.4-0.6-0.7-1.1-1-1.6c-0.3-0.5-0.7-0.9-1-1.3c-0.4-0.4-0.7-0.7-1.2-1
		c-0.4-0.3-0.9-0.5-1.4-0.6c0.3-0.1,0.5-0.3,0.8-0.5c0.3-0.3,0.6-0.6,0.9-0.9c0.3-0.4,0.6-0.8,0.8-1.2c0.3-0.4,0.5-0.8,0.7-1.3
		l1.8-4c0.2-0.4,0.3-0.7,0.5-0.9c0.1-0.3,0.3-0.5,0.5-0.6c0.2-0.2,0.4-0.3,0.6-0.3c0.2-0.1,0.6-0.1,1-0.1h0.8v-1.5h-0.8
		c-0.5,0-0.9,0-1.2,0.1c-0.4,0.1-0.7,0.2-1,0.4c-0.3,0.2-0.6,0.5-0.9,0.8c-0.3,0.3-0.5,0.8-0.8,1.3l-2.1,4.6
		c-0.3,0.6-0.6,1.1-0.9,1.6c-0.3,0.4-0.7,0.8-1,1c-0.4,0.3-0.8,0.4-1.3,0.6c-0.5,0.1-1,0.2-1.6,0.2h-0.5v-10.6h-1.8v10.6h-0.5
		c-0.6,0-1.1-0.1-1.6-0.2c-0.5-0.1-0.9-0.3-1.3-0.6c-0.4-0.3-0.7-0.6-1-1c-0.3-0.4-0.6-0.9-0.9-1.6l-2.1-4.6c-0.3-0.5-0.5-1-0.8-1.3
		c-0.3-0.3-0.5-0.6-0.9-0.8c-0.3-0.2-0.6-0.3-1-0.4c-0.4-0.1-0.8-0.1-1.2-0.1h-0.8v1.5h0.8c0.4,0,0.7,0,1,0.1
		c0.2,0.1,0.5,0.2,0.6,0.3c0.2,0.2,0.3,0.4,0.5,0.6c0.1,0.3,0.3,0.6,0.5,0.9l1.8,4c0.2,0.4,0.4,0.8,0.7,1.3c0.3,0.4,0.5,0.8,0.8,1.2
		c0.3,0.4,0.6,0.7,0.9,0.9c0.3,0.3,0.6,0.4,0.8,0.5c-0.5,0.1-1,0.4-1.4,0.6c-0.4,0.3-0.8,0.6-1.2,1c-0.4,0.4-0.7,0.8-1,1.3
		c-0.3,0.5-0.7,1-1.1,1.6l-4.5,7.3h2.3l4-6.8c0.5-0.8,0.9-1.5,1.4-2c0.5-0.5,0.9-1,1.4-1.3c0.5-0.3,1-0.6,1.5-0.8
		c0.5-0.2,1-0.2,1.5-0.2h0.9v11.1h1.8v-11.1h0.9c0.5,0,1,0.1,1.5,0.2c0.5,0.2,1,0.4,1.5,0.8c0.5,0.3,0.9,0.8,1.4,1.3
		C241.9,143.4,242.4,144.1,242.8,144.9z"/>
	<polygon fill="#00231E" points="274.6,151.7 274.6,128.5 272.8,128.5 263.9,139.3 255.1,128.5 253.3,128.5 253.3,151.7 
		255.1,151.7 255.1,131.1 255.1,131.1 263.9,141.9 272.7,131.1 272.8,131.1 272.8,151.7 	"/>
	<polygon fill="#00231E" points="293.7,150.2 282.6,150.2 282.6,140.8 293.2,140.8 293.2,139.3 282.6,139.3 282.6,130 293.4,130 
		293.4,128.5 280.8,128.5 280.8,151.7 293.7,151.7 	"/>
	<polygon fill="#00231E" points="317.3,151.7 317.3,128.5 315.5,128.5 315.5,139.2 300.1,139.2 300.1,128.5 298.3,128.5 
		298.3,151.7 300.1,151.7 300.1,140.7 315.5,140.7 315.5,151.7 	"/>
	<polygon fill="#00231E" points="321,130 329.7,130 329.7,151.7 331.5,151.7 331.5,130 340.2,130 340.2,128.5 321,128.5 	"/>
	<path fill="#00231E" d="M343.2,151.7l3.7-8h11.3l3.7,8h1.9l-10.7-23.3h-1l-10.7,23.3H343.2z M352.5,131.3l5,10.9h-10L352.5,131.3z"
		/>
	<polygon fill="#388E3C" points="132.2,167.4 129.5,167.4 126.2,175.1 123,167.4 121.2,167.4 118,175.1 114.7,167.4 112,167.4 
		117.5,180 118.5,180 122.1,171.5 125.7,180 126.7,180 	"/>
	<polygon fill="#388E3C" points="153.7,167.4 151,167.4 147.7,175.1 144.6,167.4 142.7,167.4 139.5,175.1 136.2,167.4 133.5,167.4 
		139,180 140,180 143.6,171.5 147.2,180 148.2,180 	"/>
	<polygon fill="#388E3C" points="175.2,167.4 172.6,167.4 169.3,175.1 166.1,167.4 164.3,167.4 161,175.1 157.7,167.4 155.1,167.4 
		160.6,180 161.6,180 165.2,171.5 168.8,180 169.8,180 	"/>
	<path fill="#388E3C" d="M179.2,179.8c0.3-0.3,0.5-0.7,0.5-1.1c0-0.5-0.2-0.9-0.5-1.2c-0.3-0.3-0.7-0.5-1.2-0.5s-0.9,0.2-1.2,0.5
		c-0.3,0.3-0.5,0.7-0.5,1.2c0,0.5,0.2,0.8,0.5,1.1c0.1,0.1,0.2,0.2,0.3,0.2h1.7C179,179.9,179.1,179.9,179.2,179.8z"/>
	<path fill="#388E3C" d="M194.8,180v-7.2c0-1.5-0.2-2.7-0.5-3.4c-0.4-0.7-0.9-1.3-1.5-1.7c-0.7-0.4-1.4-0.6-2.2-0.6
		c-1.4,0-2.7,0.6-3.8,1.8v-1.6h-2.5V180h2.5v-9c0.8-1.2,1.8-1.8,3-1.8c0.9,0,1.6,0.3,2,0.8c0.4,0.6,0.6,1.5,0.6,2.8v7.2H194.8z"/>
	<rect x="199.7" y="167.4" fill="#388E3C" width="2.5" height="12.6"/>
	<path fill="#388E3C" d="M200.9,165.1c0.4,0,0.8-0.1,1.1-0.4c0.3-0.3,0.4-0.6,0.4-1c0-0.4-0.1-0.8-0.4-1c-0.3-0.3-0.6-0.4-1.1-0.4
		c-0.4,0-0.7,0.1-1,0.4c-0.3,0.3-0.4,0.6-0.4,1c0,0.4,0.1,0.7,0.4,1C200.2,164.9,200.5,165.1,200.9,165.1z"/>
	<rect x="207.2" y="167.4" fill="#388E3C" width="2.5" height="12.6"/>
	<path fill="#388E3C" d="M208.5,165.1c0.4,0,0.8-0.1,1.1-0.4c0.3-0.3,0.4-0.6,0.4-1c0-0.4-0.1-0.8-0.4-1c-0.3-0.3-0.6-0.4-1.1-0.4
		c-0.4,0-0.7,0.1-1,0.4c-0.3,0.3-0.4,0.6-0.4,1c0,0.4,0.1,0.7,0.4,1C207.7,164.9,208.1,165.1,208.5,165.1z"/>
	<path fill="#388E3C" d="M225.5,178.4c1.3-1.2,1.9-2.7,1.9-4.5c0-1.9-0.6-3.4-1.9-4.7c-1.3-1.2-2.9-1.9-4.8-1.9
		c-1.9,0-3.5,0.6-4.8,1.8c-1.3,1.2-1.9,2.8-1.9,4.6c0,1.8,0.6,3.3,1.9,4.6c0.8,0.8,1.8,1.3,2.9,1.6h3.6
		C223.6,179.7,224.6,179.2,225.5,178.4z M216.5,173.8c0-1.2,0.4-2.2,1.1-3c0.8-0.8,1.7-1.2,2.9-1.2c1.2,0,2.3,0.4,3.1,1.2
		c0.8,0.8,1.2,1.8,1.2,3c0,1.2-0.4,2.2-1.2,3c-0.8,0.8-1.8,1.2-3,1.2c-1.2,0-2.2-0.4-3-1.1C216.9,176,216.5,175,216.5,173.8z"/>
	<polygon fill="#388E3C" points="230.4,167.4 230.4,169.7 236.7,169.7 230.1,180 241.1,180 241.1,177.7 234.5,177.7 241.1,167.4 	
		"/>
	<path fill="#388E3C" d="M247.1,179.8c0.3-0.3,0.5-0.7,0.5-1.1c0-0.5-0.2-0.9-0.5-1.2c-0.3-0.3-0.7-0.5-1.2-0.5s-0.9,0.2-1.2,0.5
		c-0.3,0.3-0.5,0.7-0.5,1.2c0,0.5,0.2,0.8,0.5,1.1c0.1,0.1,0.2,0.2,0.3,0.2h1.7C246.9,179.9,247,179.9,247.1,179.8z"/>
	<path fill="#388E3C" d="M252.3,167.4V180h2.5v-6.6c0-1,0.3-2,0.9-2.7c0.6-0.8,1.3-1.1,2.1-1.1c0.7,0,1.5,0.4,2.4,1.2l1.3-2.2
		c-1-0.9-2-1.4-2.9-1.4c-1.2,0-2.4,1-3.6,2.9l-0.1,0.2v-2.9H252.3z"/>
	<path fill="#388E3C" d="M272.7,167.4v9c-0.8,1.2-1.8,1.7-3,1.7c-0.9,0-1.6-0.3-2-0.8c-0.4-0.5-0.6-1.4-0.6-2.8v-7.2h-2.5v7.2
		c0,1.6,0.2,2.7,0.5,3.4c0.3,0.7,0.8,1.2,1.5,1.6c0.3,0.2,0.6,0.3,0.8,0.4h2.7c0.2-0.1,0.5-0.2,0.7-0.3c0.7-0.3,1.3-0.8,1.8-1.3v1.6
		h2.5v-12.6H272.7z"/>
</g>
</svg>
